<svg xmlns="http://www.w3.org/2000/svg" xmlns:xlink="http://www.w3.org/1999/xlink" contentStyleType="text/css" data-diagram-type="CLASS" height="2214px" preserveAspectRatio="none" style="width:527px;height:2214px;background:#FEFEFE;" version="1.1" viewBox="0 0 527 2214" width="527px" zoomAndPan="magnify"><title>C++ Standard Adaptive Features</title><defs/><g><rect fill="#FEFEFE" height="2214" style="stroke:none;stroke-width:1;" width="527" x="0" y="0"/><g class="title" data-source-line="2"><text fill="#000000" font-family="sans-serif" font-size="14" font-weight="bold" lengthAdjust="spacing" textLength="216.2891" x="148.6235" y="24.5332">C++ Standard Adaptive Features</text></g><!--class Cpp11--><g class="entity" data-entity="Cpp11" data-source-line="10" data-uid="ent0002" id="entity_Cpp11"><rect fill="#F1F1F1" height="294.5313" rx="2.5" ry="2.5" style="stroke:#181818;stroke-width:0.5;" width="255.5234" x="12" y="45.6094"/><ellipse cx="114.8843" cy="61.6094" fill="#ADD1B2" rx="11" ry="11" style="stroke:#181818;stroke-width:1;"/><path d="M117.6499,57.4844 Q117.8062,57.2656 117.9937,57.1563 Q118.1812,57.0469 118.3999,57.0469 Q118.7749,57.0469 119.0093,57.3125 Q119.2437,57.5625 119.2437,58.1719 L119.2437,59.625 Q119.2437,60.2344 119.0093,60.5 Q118.7749,60.7656 118.3999,60.7656 Q118.0562,60.7656 117.853,60.5625 Q117.6499,60.375 117.5405,59.8594 Q117.4937,59.5 117.3062,59.3125 Q116.978,58.9375 116.3687,58.7188 Q115.7593,58.5 115.1343,58.5 Q114.3687,58.5 113.728,58.8281 Q113.103,59.1563 112.603,59.9063 Q112.1187,60.6563 112.1187,61.6875 L112.1187,62.7813 Q112.1187,64.0156 113.0093,64.8438 Q113.8999,65.6563 115.4937,65.6563 Q116.4312,65.6563 117.0874,65.4063 Q117.478,65.25 117.8999,64.8125 Q118.1655,64.5469 118.3062,64.4688 Q118.4624,64.3906 118.6655,64.3906 Q118.9937,64.3906 119.2437,64.6563 Q119.5093,64.9063 119.5093,65.25 Q119.5093,65.5938 119.1655,66 Q118.6655,66.5781 117.8687,66.9063 Q116.7905,67.3594 115.4937,67.3594 Q113.978,67.3594 112.7749,66.7344 Q111.7905,66.2344 111.103,65.1719 Q110.4155,64.0938 110.4155,62.8125 L110.4155,61.6563 Q110.4155,60.3281 111.0249,59.1875 Q111.6499,58.0313 112.7437,57.4219 Q113.8374,56.7969 115.0718,56.7969 Q115.8062,56.7969 116.4468,56.9688 Q117.103,57.125 117.6499,57.4844 Z " fill="#000000"/><text fill="#000000" font-family="sans-serif" font-size="14" lengthAdjust="spacing" textLength="41.2549" x="135.3843" y="67.3379">Cpp11</text><line style="stroke:#181818;stroke-width:0.5;" x1="13" x2="266.5234" y1="77.6094" y2="77.6094"/><ellipse cx="23" cy="91.9141" fill="none" rx="3" ry="3" style="stroke:#038048;stroke-width:1;"/><text fill="#000000" font-family="sans-serif" font-size="14" lengthAdjust="spacing" textLength="117.5166" x="32" y="96.1426">required_features :</text><text fill="#000000" font-family="sans-serif" font-size="14" lengthAdjust="spacing" textLength="105.041" x="32" y="113.752">constexpr limited</text><text fill="#000000" font-family="sans-serif" font-size="14" lengthAdjust="spacing" textLength="63.8271" x="32" y="131.3613">alignas 16</text><text fill="#000000" font-family="sans-serif" font-size="14" lengthAdjust="spacing" textLength="78.5859" x="32" y="148.9707">static_assert</text><text fill="#000000" font-family="sans-serif" font-size="14" lengthAdjust="spacing" textLength="56.8271" x="32" y="166.5801">enable_if</text><text fill="#000000" font-family="sans-serif" font-size="14" lengthAdjust="spacing" textLength="116.7236" x="32" y="184.1895">variadic_templates</text><text fill="#000000" font-family="sans-serif" font-size="14" lengthAdjust="spacing" textLength="105.8613" x="32" y="201.7988">range_based_for</text><text fill="#000000" font-family="sans-serif" font-size="14" lengthAdjust="spacing" textLength="124.5029" x="32" y="219.4082">is_trivially_copyable</text><text fill="#000000" font-family="sans-serif" font-size="14" lengthAdjust="spacing" textLength="137.7168" x="32" y="237.0176">numeric_limits epsilon</text><line style="stroke:#181818;stroke-width:1;" x1="13" x2="266.5234" y1="244.0938" y2="244.0938"/><text fill="#000000" font-family="sans-serif" font-size="14" lengthAdjust="spacing" textLength="53.6758" x="18" y="262.627">macros :</text><text fill="#000000" font-family="sans-serif" font-size="14" lengthAdjust="spacing" textLength="147.7998" x="18" y="280.2363">MATRIX_CONSTEXPR</text><text fill="#000000" font-family="sans-serif" font-size="14" lengthAdjust="spacing" textLength="186.6963" x="18" y="297.8457">MATRIX_NODISCARD empty</text><text fill="#000000" font-family="sans-serif" font-size="14" lengthAdjust="spacing" textLength="243.5234" x="18" y="315.4551">MATRIX_INLINE_VAR static constexpr</text><text fill="#000000" font-family="sans-serif" font-size="14" lengthAdjust="spacing" textLength="226.3994" x="18" y="333.0645">MATRIX_BIT_CAST memcpy based</text></g><g class="entity" data-entity="GMN3" data-source-line="29" data-uid="ent0004" id="entity_GMN3"><path d="M303,163.6094 L303,189.1094 L268.03,193.1094 L303,197.1094 L303,222.6641 A0,0 0 0 0 303,222.6641 L520.5361,222.6641 A0,0 0 0 0 520.5361,222.6641 L520.5361,173.6094 L510.5361,163.6094 L303,163.6094 A0,0 0 0 0 303,163.6094" fill="#FEFFDD" style="stroke:#181818;stroke-width:0.5;"/><path d="M510.5361,163.6094 L510.5361,173.6094 L520.5361,173.6094 L510.5361,163.6094" fill="#FEFFDD" style="stroke:#181818;stroke-width:0.5;"/><text fill="#000000" font-family="sans-serif" font-size="13" lengthAdjust="spacing" textLength="149.5762" x="309" y="182.1045">Fully compatible baseline.</text><text fill="#000000" font-family="sans-serif" font-size="13" lengthAdjust="spacing" textLength="196.5361" x="309" y="198.4561">Provides fallback implementations</text><text fill="#000000" font-family="sans-serif" font-size="13" lengthAdjust="spacing" textLength="108.3862" x="309" y="214.8076">for newer features.</text></g><!--class Cpp14--><g class="entity" data-entity="Cpp14" data-source-line="38" data-uid="ent0006" id="entity_Cpp14"><rect fill="#F1F1F1" height="232.0938" rx="2.5" ry="2.5" style="stroke:#181818;stroke-width:0.5;" width="239.958" x="20" y="418.6094"/><ellipse cx="115.1016" cy="434.6094" fill="#ADD1B2" rx="11" ry="11" style="stroke:#181818;stroke-width:1;"/><path d="M117.8672,430.4844 Q118.0234,430.2656 118.2109,430.1563 Q118.3984,430.0469 118.6172,430.0469 Q118.9922,430.0469 119.2266,430.3125 Q119.4609,430.5625 119.4609,431.1719 L119.4609,432.625 Q119.4609,433.2344 119.2266,433.5 Q118.9922,433.7656 118.6172,433.7656 Q118.2734,433.7656 118.0703,433.5625 Q117.8672,433.375 117.7578,432.8594 Q117.7109,432.5 117.5234,432.3125 Q117.1953,431.9375 116.5859,431.7188 Q115.9766,431.5 115.3516,431.5 Q114.5859,431.5 113.9453,431.8281 Q113.3203,432.1563 112.8203,432.9063 Q112.3359,433.6563 112.3359,434.6875 L112.3359,435.7813 Q112.3359,437.0156 113.2266,437.8438 Q114.1172,438.6563 115.7109,438.6563 Q116.6484,438.6563 117.3047,438.4063 Q117.6953,438.25 118.1172,437.8125 Q118.3828,437.5469 118.5234,437.4688 Q118.6797,437.3906 118.8828,437.3906 Q119.2109,437.3906 119.4609,437.6563 Q119.7266,437.9063 119.7266,438.25 Q119.7266,438.5938 119.3828,439 Q118.8828,439.5781 118.0859,439.9063 Q117.0078,440.3594 115.7109,440.3594 Q114.1953,440.3594 112.9922,439.7344 Q112.0078,439.2344 111.3203,438.1719 Q110.6328,437.0938 110.6328,435.8125 L110.6328,434.6563 Q110.6328,433.3281 111.2422,432.1875 Q111.8672,431.0313 112.9609,430.4219 Q114.0547,429.7969 115.2891,429.7969 Q116.0234,429.7969 116.6641,429.9688 Q117.3203,430.125 117.8672,430.4844 Z " fill="#000000"/><text fill="#000000" font-family="sans-serif" font-size="14" lengthAdjust="spacing" textLength="41.2549" x="135.6016" y="440.3379">Cpp14</text><line style="stroke:#181818;stroke-width:0.5;" x1="21" x2="258.958" y1="450.6094" y2="450.6094"/><ellipse cx="31" cy="464.9141" fill="none" rx="3" ry="3" style="stroke:#038048;stroke-width:1;"/><text fill="#000000" font-family="sans-serif" font-size="14" lengthAdjust="spacing" textLength="91.834" x="40" y="469.1426">new_features :</text><text fill="#000000" font-family="sans-serif" font-size="14" lengthAdjust="spacing" textLength="114.3994" x="40" y="486.752">relaxed_constexpr</text><text fill="#000000" font-family="sans-serif" font-size="14" lengthAdjust="spacing" textLength="106.6201" x="40" y="504.3613">generic_lambdas</text><text fill="#000000" font-family="sans-serif" font-size="14" lengthAdjust="spacing" textLength="86.3721" x="40" y="521.9707">binary_literals</text><line style="stroke:#181818;stroke-width:1;" x1="21" x2="258.958" y1="529.0469" y2="529.0469"/><text fill="#000000" font-family="sans-serif" font-size="14" lengthAdjust="spacing" textLength="53.6758" x="26" y="547.5801">macros :</text><text fill="#000000" font-family="sans-serif" font-size="14" lengthAdjust="spacing" textLength="227.958" x="26" y="565.1895">MATRIX_CONSTEXPR14 constexpr</text><line style="stroke:#181818;stroke-width:1;" x1="21" x2="258.958" y1="572.2656" y2="572.2656"/><text fill="#000000" font-family="sans-serif" font-size="14" lengthAdjust="spacing" textLength="56.8135" x="26" y="590.7988">benefits :</text><text fill="#000000" font-family="sans-serif" font-size="14" lengthAdjust="spacing" textLength="183.6338" x="26" y="608.4082">more compile time operations</text><text fill="#000000" font-family="sans-serif" font-size="14" lengthAdjust="spacing" textLength="203.1299" x="26" y="626.0176">constexpr loops and conditionals</text><text fill="#000000" font-family="sans-serif" font-size="14" lengthAdjust="spacing" textLength="114.3926" x="26" y="643.627">better optimization</text></g><g class="entity" data-entity="GMN7" data-source-line="54" data-uid="ent0008" id="entity_GMN7"><path d="M295.5,480.6094 L295.5,530.6094 L260.25,534.6094 L295.5,538.6094 L295.5,588.7188 A0,0 0 0 0 295.5,588.7188 L508.6753,588.7188 A0,0 0 0 0 508.6753,588.7188 L508.6753,490.6094 L498.6753,480.6094 L295.5,480.6094 A0,0 0 0 0 295.5,480.6094" fill="#FEFFDD" style="stroke:#181818;stroke-width:0.5;"/><path d="M498.6753,480.6094 L498.6753,490.6094 L508.6753,490.6094 L498.6753,480.6094" fill="#FEFFDD" style="stroke:#181818;stroke-width:0.5;"/><text fill="#000000" font-family="sans-serif" font-size="13" lengthAdjust="spacing" textLength="58.5317" x="301.5" y="499.1045">Detection:</text><text fill="#000000" font-family="sans-serif" font-size="13" lengthAdjust="spacing" textLength="151.7852" x="301.5" y="515.4561">if __cplusplus &gt;= 201402L</text><text fill="#000000" font-family="sans-serif" font-size="13" lengthAdjust="spacing" textLength="3.6118" x="301.5" y="531.8076">&#160;</text><text fill="#000000" font-family="sans-serif" font-size="13" lengthAdjust="spacing" textLength="42.6245" x="301.5" y="548.1592">Impact:</text><text fill="#000000" font-family="sans-serif" font-size="13" lengthAdjust="spacing" textLength="192.1753" x="301.5" y="564.5107">small performance improvements</text><text fill="#000000" font-family="sans-serif" font-size="13" lengthAdjust="spacing" textLength="176.2935" x="301.5" y="580.8623">for compile time computations.</text></g><!--class Cpp17--><g class="entity" data-entity="Cpp17" data-source-line="66" data-uid="ent0010" id="entity_Cpp17"><rect fill="#F1F1F1" height="320.1406" rx="2.5" ry="2.5" style="stroke:#181818;stroke-width:0.5;" width="255.5029" x="12" y="728.6094"/><ellipse cx="114.874" cy="744.6094" fill="#ADD1B2" rx="11" ry="11" style="stroke:#181818;stroke-width:1;"/><path d="M117.6396,740.4844 Q117.7959,740.2656 117.9834,740.1563 Q118.1709,740.0469 118.3896,740.0469 Q118.7646,740.0469 118.999,740.3125 Q119.2334,740.5625 119.2334,741.1719 L119.2334,742.625 Q119.2334,743.2344 118.999,743.5 Q118.7646,743.7656 118.3896,743.7656 Q118.0459,743.7656 117.8428,743.5625 Q117.6396,743.375 117.5303,742.8594 Q117.4834,742.5 117.2959,742.3125 Q116.9678,741.9375 116.3584,741.7188 Q115.749,741.5 115.124,741.5 Q114.3584,741.5 113.7178,741.8281 Q113.0928,742.1563 112.5928,742.9063 Q112.1084,743.6563 112.1084,744.6875 L112.1084,745.7813 Q112.1084,747.0156 112.999,747.8438 Q113.8896,748.6563 115.4834,748.6563 Q116.4209,748.6563 117.0771,748.4063 Q117.4678,748.25 117.8896,747.8125 Q118.1553,747.5469 118.2959,747.4688 Q118.4521,747.3906 118.6553,747.3906 Q118.9834,747.3906 119.2334,747.6563 Q119.499,747.9063 119.499,748.25 Q119.499,748.5938 119.1553,749 Q118.6553,749.5781 117.8584,749.9063 Q116.7803,750.3594 115.4834,750.3594 Q113.9678,750.3594 112.7646,749.7344 Q111.7803,749.2344 111.0928,748.1719 Q110.4053,747.0938 110.4053,745.8125 L110.4053,744.6563 Q110.4053,743.3281 111.0146,742.1875 Q111.6396,741.0313 112.7334,740.4219 Q113.8271,739.7969 115.0615,739.7969 Q115.7959,739.7969 116.4365,739.9688 Q117.0928,740.125 117.6396,740.4844 Z " fill="#000000"/><text fill="#000000" font-family="sans-serif" font-size="14" lengthAdjust="spacing" textLength="41.2549" x="135.374" y="750.3379">Cpp17</text><line style="stroke:#181818;stroke-width:0.5;" x1="13" x2="266.5029" y1="760.6094" y2="760.6094"/><ellipse cx="23" cy="774.9141" fill="none" rx="3" ry="3" style="stroke:#038048;stroke-width:1;"/><text fill="#000000" font-family="sans-serif" font-size="14" lengthAdjust="spacing" textLength="91.834" x="32" y="779.1426">new_features :</text><text fill="#000000" font-family="sans-serif" font-size="14" lengthAdjust="spacing" textLength="115.1787" x="32" y="796.752">nodiscard attribute</text><text fill="#000000" font-family="sans-serif" font-size="14" lengthAdjust="spacing" textLength="75.4824" x="32" y="814.3613">if_constexpr</text><text fill="#000000" font-family="sans-serif" font-size="14" lengthAdjust="spacing" textLength="96.5029" x="32" y="831.9707">inline_variables</text><text fill="#000000" font-family="sans-serif" font-size="14" lengthAdjust="spacing" textLength="122.1855" x="32" y="849.5801">structured_bindings</text><line style="stroke:#181818;stroke-width:1;" x1="13" x2="266.5029" y1="856.6563" y2="856.6563"/><text fill="#000000" font-family="sans-serif" font-size="14" lengthAdjust="spacing" textLength="53.6758" x="18" y="875.1895">macros :</text><text fill="#000000" font-family="sans-serif" font-size="14" lengthAdjust="spacing" textLength="209.2754" x="18" y="892.7988">MATRIX_NODISCARD nodiscard</text><text fill="#000000" font-family="sans-serif" font-size="14" lengthAdjust="spacing" textLength="227.958" x="18" y="910.4082">MATRIX_CONSTEXPR17 constexpr</text><text fill="#000000" font-family="sans-serif" font-size="14" lengthAdjust="spacing" textLength="178.9512" x="18" y="928.0176">MATRIX_INLINE_VAR inline</text><text fill="#000000" font-family="sans-serif" font-size="14" lengthAdjust="spacing" textLength="243.5029" x="18" y="945.627">MATRIX_IF_CONSTEXPR if constexpr</text><line style="stroke:#181818;stroke-width:1;" x1="13" x2="266.5029" y1="952.7031" y2="952.7031"/><text fill="#000000" font-family="sans-serif" font-size="14" lengthAdjust="spacing" textLength="56.8135" x="18" y="971.2363">benefits :</text><text fill="#000000" font-family="sans-serif" font-size="14" lengthAdjust="spacing" textLength="143.958" x="18" y="988.8457">compile time branching</text><text fill="#000000" font-family="sans-serif" font-size="14" lengthAdjust="spacing" textLength="119.0889" x="18" y="1006.4551">reduced code bloat</text><text fill="#000000" font-family="sans-serif" font-size="14" lengthAdjust="spacing" textLength="95.7168" x="18" y="1024.0645">better warnings</text><text fill="#000000" font-family="sans-serif" font-size="14" lengthAdjust="spacing" textLength="175.0684" x="18" y="1041.6738">improved metaprogramming</text></g><g class="entity" data-entity="GMN11" data-source-line="87" data-uid="ent0012" id="entity_GMN11"><path d="M303.5,834.6094 L303.5,884.6094 L268.48,888.6094 L303.5,892.6094 L303.5,942.7188 A0,0 0 0 0 303.5,942.7188 L482.0234,942.7188 A0,0 0 0 0 482.0234,942.7188 L482.0234,844.6094 L472.0234,834.6094 L303.5,834.6094 A0,0 0 0 0 303.5,834.6094" fill="#FEFFDD" style="stroke:#181818;stroke-width:0.5;"/><path d="M472.0234,834.6094 L472.0234,844.6094 L482.0234,844.6094 L472.0234,834.6094" fill="#FEFFDD" style="stroke:#181818;stroke-width:0.5;"/><text fill="#000000" font-family="sans-serif" font-size="13" lengthAdjust="spacing" textLength="58.5317" x="309.5" y="853.1045">Detection:</text><text fill="#000000" font-family="sans-serif" font-size="13" lengthAdjust="spacing" textLength="151.7852" x="309.5" y="869.4561">if __cplusplus &gt;= 201703L</text><text fill="#000000" font-family="sans-serif" font-size="13" lengthAdjust="spacing" textLength="3.6118" x="309.5" y="885.8076">&#160;</text><text fill="#000000" font-family="sans-serif" font-size="13" lengthAdjust="spacing" textLength="42.6245" x="309.5" y="902.1592">Impact:</text><text fill="#000000" font-family="sans-serif" font-size="13" lengthAdjust="spacing" textLength="112.0107" x="309.5" y="918.5107">code size reduction</text><text fill="#000000" font-family="sans-serif" font-size="13" lengthAdjust="spacing" textLength="157.5234" x="309.5" y="934.8623">modest performance gains.</text></g><!--class Cpp20--><g class="entity" data-entity="Cpp20" data-source-line="99" data-uid="ent0014" id="entity_Cpp20"><rect fill="#F1F1F1" height="408.1875" rx="2.5" ry="2.5" style="stroke:#181818;stroke-width:0.5;" width="239.958" x="20" y="1126.6094"/><ellipse cx="115.1016" cy="1142.6094" fill="#ADD1B2" rx="11" ry="11" style="stroke:#181818;stroke-width:1;"/><path d="M117.8672,1138.4844 Q118.0234,1138.2656 118.2109,1138.1563 Q118.3984,1138.0469 118.6172,1138.0469 Q118.9922,1138.0469 119.2266,1138.3125 Q119.4609,1138.5625 119.4609,1139.1719 L119.4609,1140.625 Q119.4609,1141.2344 119.2266,1141.5 Q118.9922,1141.7656 118.6172,1141.7656 Q118.2734,1141.7656 118.0703,1141.5625 Q117.8672,1141.375 117.7578,1140.8594 Q117.7109,1140.5 117.5234,1140.3125 Q117.1953,1139.9375 116.5859,1139.7188 Q115.9766,1139.5 115.3516,1139.5 Q114.5859,1139.5 113.9453,1139.8281 Q113.3203,1140.1563 112.8203,1140.9063 Q112.3359,1141.6563 112.3359,1142.6875 L112.3359,1143.7813 Q112.3359,1145.0156 113.2266,1145.8438 Q114.1172,1146.6563 115.7109,1146.6563 Q116.6484,1146.6563 117.3047,1146.4063 Q117.6953,1146.25 118.1172,1145.8125 Q118.3828,1145.5469 118.5234,1145.4688 Q118.6797,1145.3906 118.8828,1145.3906 Q119.2109,1145.3906 119.4609,1145.6563 Q119.7266,1145.9063 119.7266,1146.25 Q119.7266,1146.5938 119.3828,1147 Q118.8828,1147.5781 118.0859,1147.9063 Q117.0078,1148.3594 115.7109,1148.3594 Q114.1953,1148.3594 112.9922,1147.7344 Q112.0078,1147.2344 111.3203,1146.1719 Q110.6328,1145.0938 110.6328,1143.8125 L110.6328,1142.6563 Q110.6328,1141.3281 111.2422,1140.1875 Q111.8672,1139.0313 112.9609,1138.4219 Q114.0547,1137.7969 115.2891,1137.7969 Q116.0234,1137.7969 116.6641,1137.9688 Q117.3203,1138.125 117.8672,1138.4844 Z " fill="#000000"/><text fill="#000000" font-family="sans-serif" font-size="14" lengthAdjust="spacing" textLength="41.2549" x="135.6016" y="1148.3379">Cpp20</text><line style="stroke:#181818;stroke-width:0.5;" x1="21" x2="258.958" y1="1158.6094" y2="1158.6094"/><ellipse cx="31" cy="1172.9141" fill="none" rx="3" ry="3" style="stroke:#038048;stroke-width:1;"/><text fill="#000000" font-family="sans-serif" font-size="14" lengthAdjust="spacing" textLength="91.834" x="40" y="1177.1426">new_features :</text><text fill="#000000" font-family="sans-serif" font-size="14" lengthAdjust="spacing" textLength="48.248" x="40" y="1194.752">bit_cast</text><text fill="#000000" font-family="sans-serif" font-size="14" lengthAdjust="spacing" textLength="106.6064" x="40" y="1212.3613">constexpr_vector</text><text fill="#000000" font-family="sans-serif" font-size="14" lengthAdjust="spacing" textLength="85.5928" x="40" y="1229.9707">likely_unlikely</text><text fill="#000000" font-family="sans-serif" font-size="14" lengthAdjust="spacing" textLength="59.1445" x="40" y="1247.5801">consteval</text><text fill="#000000" font-family="sans-serif" font-size="14" lengthAdjust="spacing" textLength="51.3584" x="40" y="1265.1895">constinit</text><text fill="#000000" font-family="sans-serif" font-size="14" lengthAdjust="spacing" textLength="56.0342" x="40" y="1282.7988">concepts</text><line style="stroke:#181818;stroke-width:1;" x1="21" x2="258.958" y1="1289.875" y2="1289.875"/><text fill="#000000" font-family="sans-serif" font-size="14" lengthAdjust="spacing" textLength="53.6758" x="26" y="1308.4082">macros :</text><text fill="#000000" font-family="sans-serif" font-size="14" lengthAdjust="spacing" textLength="227.958" x="26" y="1326.0176">MATRIX_CONSTEXPR20 constexpr</text><text fill="#000000" font-family="sans-serif" font-size="14" lengthAdjust="spacing" textLength="208.5098" x="26" y="1343.627">MATRIX_CONSTEVAL consteval</text><text fill="#000000" font-family="sans-serif" font-size="14" lengthAdjust="spacing" textLength="191.3652" x="26" y="1361.2363">MATRIX_CONSTINIT constinit</text><text fill="#000000" font-family="sans-serif" font-size="14" lengthAdjust="spacing" textLength="143.1582" x="26" y="1378.8457">MATRIX_LIKELY likely</text><text fill="#000000" font-family="sans-serif" font-size="14" lengthAdjust="spacing" textLength="178.9512" x="26" y="1396.4551">MATRIX_UNLIKELY unlikely</text><text fill="#000000" font-family="sans-serif" font-size="14" lengthAdjust="spacing" textLength="179.7168" x="26" y="1414.0645">MATRIX_BIT_CAST bit_cast</text><line style="stroke:#181818;stroke-width:1;" x1="21" x2="258.958" y1="1421.1406" y2="1421.1406"/><text fill="#000000" font-family="sans-serif" font-size="14" lengthAdjust="spacing" textLength="56.8135" x="26" y="1439.6738">benefits :</text><text fill="#000000" font-family="sans-serif" font-size="14" lengthAdjust="spacing" textLength="135.4063" x="26" y="1457.2832">safe type conversions</text><text fill="#000000" font-family="sans-serif" font-size="14" lengthAdjust="spacing" textLength="221.0264" x="26" y="1474.8926">guaranteed compile time evaluation</text><text fill="#000000" font-family="sans-serif" font-size="14" lengthAdjust="spacing" textLength="140.8613" x="26" y="1492.502">branch prediction hints</text><text fill="#000000" font-family="sans-serif" font-size="14" lengthAdjust="spacing" textLength="98.0479" x="26" y="1510.1113">type constraints</text><text fill="#000000" font-family="sans-serif" font-size="14" lengthAdjust="spacing" textLength="173.5781" x="26" y="1527.7207">reduced undefined behavior</text></g><g class="entity" data-entity="GMN15" data-source-line="125" data-uid="ent0016" id="entity_GMN15"><path d="M295.5,1268.6094 L295.5,1326.6094 L260.05,1330.6094 L295.5,1334.6094 L295.5,1393.0703 A0,0 0 0 0 295.5,1393.0703 L468.2852,1393.0703 A0,0 0 0 0 468.2852,1393.0703 L468.2852,1278.6094 L458.2852,1268.6094 L295.5,1268.6094 A0,0 0 0 0 295.5,1268.6094" fill="#FEFFDD" style="stroke:#181818;stroke-width:0.5;"/><path d="M458.2852,1268.6094 L458.2852,1278.6094 L468.2852,1278.6094 L458.2852,1268.6094" fill="#FEFFDD" style="stroke:#181818;stroke-width:0.5;"/><text fill="#000000" font-family="sans-serif" font-size="13" lengthAdjust="spacing" textLength="58.5317" x="301.5" y="1287.1045">Detection:</text><text fill="#000000" font-family="sans-serif" font-size="13" lengthAdjust="spacing" textLength="151.7852" x="301.5" y="1303.4561">if __cplusplus &gt;= 202002L</text><text fill="#000000" font-family="sans-serif" font-size="13" lengthAdjust="spacing" textLength="3.6118" x="301.5" y="1319.8076">&#160;</text><text fill="#000000" font-family="sans-serif" font-size="13" lengthAdjust="spacing" textLength="42.6245" x="301.5" y="1336.1592">Impact:</text><text fill="#000000" font-family="sans-serif" font-size="13" lengthAdjust="spacing" textLength="130.0571" x="301.5" y="1352.5107">improved performance</text><text fill="#000000" font-family="sans-serif" font-size="13" lengthAdjust="spacing" textLength="130.0952" x="301.5" y="1368.8623">better code generation</text><text fill="#000000" font-family="sans-serif" font-size="13" lengthAdjust="spacing" textLength="97.5381" x="301.5" y="1385.2139">sanitizer friendly.</text></g><!--class Cpp23--><g class="entity" data-entity="Cpp23" data-source-line="138" data-uid="ent0018" id="entity_Cpp23"><rect fill="#F1F1F1" height="249.7031" rx="2.5" ry="2.5" style="stroke:#181818;stroke-width:0.5;" width="239.958" x="20" y="1612.6094"/><ellipse cx="115.1016" cy="1628.6094" fill="#ADD1B2" rx="11" ry="11" style="stroke:#181818;stroke-width:1;"/><path d="M117.8672,1624.4844 Q118.0234,1624.2656 118.2109,1624.1563 Q118.3984,1624.0469 118.6172,1624.0469 Q118.9922,1624.0469 119.2266,1624.3125 Q119.4609,1624.5625 119.4609,1625.1719 L119.4609,1626.625 Q119.4609,1627.2344 119.2266,1627.5 Q118.9922,1627.7656 118.6172,1627.7656 Q118.2734,1627.7656 118.0703,1627.5625 Q117.8672,1627.375 117.7578,1626.8594 Q117.7109,1626.5 117.5234,1626.3125 Q117.1953,1625.9375 116.5859,1625.7188 Q115.9766,1625.5 115.3516,1625.5 Q114.5859,1625.5 113.9453,1625.8281 Q113.3203,1626.1563 112.8203,1626.9063 Q112.3359,1627.6563 112.3359,1628.6875 L112.3359,1629.7813 Q112.3359,1631.0156 113.2266,1631.8438 Q114.1172,1632.6563 115.7109,1632.6563 Q116.6484,1632.6563 117.3047,1632.4063 Q117.6953,1632.25 118.1172,1631.8125 Q118.3828,1631.5469 118.5234,1631.4688 Q118.6797,1631.3906 118.8828,1631.3906 Q119.2109,1631.3906 119.4609,1631.6563 Q119.7266,1631.9063 119.7266,1632.25 Q119.7266,1632.5938 119.3828,1633 Q118.8828,1633.5781 118.0859,1633.9063 Q117.0078,1634.3594 115.7109,1634.3594 Q114.1953,1634.3594 112.9922,1633.7344 Q112.0078,1633.2344 111.3203,1632.1719 Q110.6328,1631.0938 110.6328,1629.8125 L110.6328,1628.6563 Q110.6328,1627.3281 111.2422,1626.1875 Q111.8672,1625.0313 112.9609,1624.4219 Q114.0547,1623.7969 115.2891,1623.7969 Q116.0234,1623.7969 116.6641,1623.9688 Q117.3203,1624.125 117.8672,1624.4844 Z " fill="#000000"/><text fill="#000000" font-family="sans-serif" font-size="14" lengthAdjust="spacing" textLength="41.2549" x="135.6016" y="1634.3379">Cpp23</text><line style="stroke:#181818;stroke-width:0.5;" x1="21" x2="258.958" y1="1644.6094" y2="1644.6094"/><ellipse cx="31" cy="1658.9141" fill="none" rx="3" ry="3" style="stroke:#038048;stroke-width:1;"/><text fill="#000000" font-family="sans-serif" font-size="14" lengthAdjust="spacing" textLength="91.834" x="40" y="1663.1426">new_features :</text><text fill="#000000" font-family="sans-serif" font-size="14" lengthAdjust="spacing" textLength="73.9307" x="40" y="1680.752">if_consteval</text><text fill="#000000" font-family="sans-serif" font-size="14" lengthAdjust="spacing" textLength="168.0752" x="40" y="1698.3613">multidimensional_subscript</text><text fill="#000000" font-family="sans-serif" font-size="14" lengthAdjust="spacing" textLength="148.6816" x="40" y="1715.9707">extended_floating_point</text><line style="stroke:#181818;stroke-width:1;" x1="21" x2="258.958" y1="1723.0469" y2="1723.0469"/><text fill="#000000" font-family="sans-serif" font-size="14" lengthAdjust="spacing" textLength="53.6758" x="26" y="1741.5801">macros :</text><text fill="#000000" font-family="sans-serif" font-size="14" lengthAdjust="spacing" textLength="227.958" x="26" y="1759.1895">MATRIX_CONSTEXPR23 constexpr</text><text fill="#000000" font-family="sans-serif" font-size="14" lengthAdjust="spacing" textLength="165.7031" x="26" y="1776.7988">MATRIX_IF_CONSTEVAL</text><line style="stroke:#181818;stroke-width:1;" x1="21" x2="258.958" y1="1783.875" y2="1783.875"/><text fill="#000000" font-family="sans-serif" font-size="14" lengthAdjust="spacing" textLength="56.8135" x="26" y="1802.4082">benefits :</text><text fill="#000000" font-family="sans-serif" font-size="14" lengthAdjust="spacing" textLength="178.9785" x="26" y="1820.0176">better compile time detection</text><text fill="#000000" font-family="sans-serif" font-size="14" lengthAdjust="spacing" textLength="175.0684" x="26" y="1837.627">improved metaprogramming</text><text fill="#000000" font-family="sans-serif" font-size="14" lengthAdjust="spacing" textLength="133.0957" x="26" y="1855.2363">enhanced type safety</text></g><g class="entity" data-entity="GMN19" data-source-line="155" data-uid="ent0020" id="entity_GMN19"><path d="M295.5,1683.6094 L295.5,1733.6094 L260.22,1737.6094 L295.5,1741.6094 L295.5,1791.7188 A0,0 0 0 0 295.5,1791.7188 L498.5825,1791.7188 A0,0 0 0 0 498.5825,1791.7188 L498.5825,1693.6094 L488.5825,1683.6094 L295.5,1683.6094 A0,0 0 0 0 295.5,1683.6094" fill="#FEFFDD" style="stroke:#181818;stroke-width:0.5;"/><path d="M488.5825,1683.6094 L488.5825,1693.6094 L498.5825,1693.6094 L488.5825,1683.6094" fill="#FEFFDD" style="stroke:#181818;stroke-width:0.5;"/><text fill="#000000" font-family="sans-serif" font-size="13" lengthAdjust="spacing" textLength="58.5317" x="301.5" y="1702.1045">Detection:</text><text fill="#000000" font-family="sans-serif" font-size="13" lengthAdjust="spacing" textLength="151.7852" x="301.5" y="1718.4561">if __cplusplus &gt;= 202302L</text><text fill="#000000" font-family="sans-serif" font-size="13" lengthAdjust="spacing" textLength="3.6118" x="301.5" y="1734.8076">&#160;</text><text fill="#000000" font-family="sans-serif" font-size="13" lengthAdjust="spacing" textLength="42.6245" x="301.5" y="1751.1592">Impact:</text><text fill="#000000" font-family="sans-serif" font-size="13" lengthAdjust="spacing" textLength="152.4453" x="301.5" y="1767.5107">incremental improvements</text><text fill="#000000" font-family="sans-serif" font-size="13" lengthAdjust="spacing" textLength="182.0825" x="301.5" y="1783.8623">better compile time diagnostics.</text></g><!--class Cpp26--><g class="entity" data-entity="Cpp26" data-source-line="167" data-uid="ent0022" id="entity_Cpp26"><rect fill="#F1F1F1" height="267.3125" rx="2.5" ry="2.5" style="stroke:#181818;stroke-width:0.5;" width="265.6133" x="7" y="1940.6094"/><ellipse cx="114.9292" cy="1956.6094" fill="#ADD1B2" rx="11" ry="11" style="stroke:#181818;stroke-width:1;"/><path d="M117.6948,1952.4844 Q117.8511,1952.2656 118.0386,1952.1563 Q118.2261,1952.0469 118.4448,1952.0469 Q118.8198,1952.0469 119.0542,1952.3125 Q119.2886,1952.5625 119.2886,1953.1719 L119.2886,1954.625 Q119.2886,1955.2344 119.0542,1955.5 Q118.8198,1955.7656 118.4448,1955.7656 Q118.1011,1955.7656 117.8979,1955.5625 Q117.6948,1955.375 117.5854,1954.8594 Q117.5386,1954.5 117.3511,1954.3125 Q117.0229,1953.9375 116.4136,1953.7188 Q115.8042,1953.5 115.1792,1953.5 Q114.4136,1953.5 113.7729,1953.8281 Q113.1479,1954.1563 112.6479,1954.9063 Q112.1636,1955.6563 112.1636,1956.6875 L112.1636,1957.7813 Q112.1636,1959.0156 113.0542,1959.8438 Q113.9448,1960.6563 115.5386,1960.6563 Q116.4761,1960.6563 117.1323,1960.4063 Q117.5229,1960.25 117.9448,1959.8125 Q118.2104,1959.5469 118.3511,1959.4688 Q118.5073,1959.3906 118.7104,1959.3906 Q119.0386,1959.3906 119.2886,1959.6563 Q119.5542,1959.9063 119.5542,1960.25 Q119.5542,1960.5938 119.2104,1961 Q118.7104,1961.5781 117.9136,1961.9063 Q116.8354,1962.3594 115.5386,1962.3594 Q114.0229,1962.3594 112.8198,1961.7344 Q111.8354,1961.2344 111.1479,1960.1719 Q110.4604,1959.0938 110.4604,1957.8125 L110.4604,1956.6563 Q110.4604,1955.3281 111.0698,1954.1875 Q111.6948,1953.0313 112.7886,1952.4219 Q113.8823,1951.7969 115.1167,1951.7969 Q115.8511,1951.7969 116.4917,1951.9688 Q117.1479,1952.125 117.6948,1952.4844 Z " fill="#000000"/><text fill="#000000" font-family="sans-serif" font-size="14" lengthAdjust="spacing" textLength="41.2549" x="135.4292" y="1962.3379">Cpp26</text><line style="stroke:#181818;stroke-width:0.5;" x1="8" x2="271.6133" y1="1972.6094" y2="1972.6094"/><ellipse cx="18" cy="1986.9141" fill="none" rx="3" ry="3" style="stroke:#038048;stroke-width:1;"/><text fill="#000000" font-family="sans-serif" font-size="14" lengthAdjust="spacing" textLength="91.834" x="27" y="1991.1426">new_features :</text><text fill="#000000" font-family="sans-serif" font-size="14" lengthAdjust="spacing" textLength="86.3789" x="27" y="2008.752">constexpr_sin</text><text fill="#000000" font-family="sans-serif" font-size="14" lengthAdjust="spacing" textLength="90.2686" x="27" y="2026.3613">constexpr_cos</text><text fill="#000000" font-family="sans-serif" font-size="14" lengthAdjust="spacing" textLength="91.8203" x="27" y="2043.9707">constexpr_sqrt</text><text fill="#000000" font-family="sans-serif" font-size="14" lengthAdjust="spacing" textLength="106.6064" x="27" y="2061.5801">constexpr_cmath</text><line style="stroke:#181818;stroke-width:1;" x1="8" x2="271.6133" y1="2068.6563" y2="2068.6563"/><text fill="#000000" font-family="sans-serif" font-size="14" lengthAdjust="spacing" textLength="53.6758" x="13" y="2087.1895">macros :</text><text fill="#000000" font-family="sans-serif" font-size="14" lengthAdjust="spacing" textLength="227.958" x="13" y="2104.7988">MATRIX_CONSTEXPR26 constexpr</text><text fill="#000000" font-family="sans-serif" font-size="14" lengthAdjust="spacing" textLength="253.6133" x="13" y="2122.4082">MATRIX_CONSTEXPR_TRIG constexpr</text><line style="stroke:#181818;stroke-width:1;" x1="8" x2="271.6133" y1="2129.4844" y2="2129.4844"/><text fill="#000000" font-family="sans-serif" font-size="14" lengthAdjust="spacing" textLength="56.8135" x="13" y="2148.0176">benefits :</text><text fill="#000000" font-family="sans-serif" font-size="14" lengthAdjust="spacing" textLength="185.9512" x="13" y="2165.627">compile time rotation matrices</text><text fill="#000000" font-family="sans-serif" font-size="14" lengthAdjust="spacing" textLength="159.5029" x="13" y="2183.2363">arbitrary angle transforms</text><text fill="#000000" font-family="sans-serif" font-size="14" lengthAdjust="spacing" textLength="130.71" x="13" y="2200.8457">zero runtime trig cost</text></g><g class="entity" data-entity="GMN23" data-source-line="185" data-uid="ent0024" id="entity_GMN23"><path d="M308.5,2020.1094 L308.5,2070.1094 L273.03,2074.1094 L308.5,2078.1094 L308.5,2128.2188 A0,0 0 0 0 308.5,2128.2188 L487.0425,2128.2188 A0,0 0 0 0 487.0425,2128.2188 L487.0425,2030.1094 L477.0425,2020.1094 L308.5,2020.1094 A0,0 0 0 0 308.5,2020.1094" fill="#FEFFDD" style="stroke:#181818;stroke-width:0.5;"/><path d="M477.0425,2020.1094 L477.0425,2030.1094 L487.0425,2030.1094 L477.0425,2020.1094" fill="#FEFFDD" style="stroke:#181818;stroke-width:0.5;"/><text fill="#000000" font-family="sans-serif" font-size="13" lengthAdjust="spacing" textLength="58.5317" x="314.5" y="2038.6045">Detection:</text><text fill="#000000" font-family="sans-serif" font-size="13" lengthAdjust="spacing" textLength="151.7852" x="314.5" y="2054.9561">if __cplusplus &gt;= 202600L</text><text fill="#000000" font-family="sans-serif" font-size="13" lengthAdjust="spacing" textLength="3.6118" x="314.5" y="2071.3076">&#160;</text><text fill="#000000" font-family="sans-serif" font-size="13" lengthAdjust="spacing" textLength="42.6245" x="314.5" y="2087.6592">Impact:</text><text fill="#000000" font-family="sans-serif" font-size="13" lengthAdjust="spacing" textLength="126.4517" x="314.5" y="2104.0107">performance gains for</text><text fill="#000000" font-family="sans-serif" font-size="13" lengthAdjust="spacing" textLength="157.5425" x="314.5" y="2120.3623">rotation heavy applications.</text></g><!--link Cpp11 to Cpp14--><g class="link" data-entity-1="Cpp11" data-entity-2="Cpp14" data-source-line="197" data-uid="lnk26" id="link_Cpp11_Cpp14"><path codeLine="197" d="M140,341.0494 C140,366.9394 140,387.5594 140,412.4294" fill="none" id="Cpp11-to-Cpp14" style="stroke:#181818;stroke-width:1;"/><polygon fill="#181818" points="140,418.4294,144,409.4294,140,413.4294,136,409.4294,140,418.4294" style="stroke:#181818;stroke-width:1;"/><text fill="#000000" font-family="sans-serif" font-size="13" lengthAdjust="spacing" textLength="47.709" x="141" y="385.1045">upgrade</text></g><!--link Cpp14 to Cpp17--><g class="link" data-entity-1="Cpp14" data-entity-2="Cpp17" data-source-line="198" data-uid="lnk27" id="link_Cpp14_Cpp17"><path codeLine="198" d="M140,650.8694 C140,675.6294 140,696.2194 140,722.3194" fill="none" id="Cpp14-to-Cpp17" style="stroke:#181818;stroke-width:1;"/><polygon fill="#181818" points="140,728.3194,144,719.3194,140,723.3194,136,719.3194,140,728.3194" style="stroke:#181818;stroke-width:1;"/><text fill="#000000" font-family="sans-serif" font-size="13" lengthAdjust="spacing" textLength="47.709" x="141" y="695.1045">upgrade</text></g><!--link Cpp17 to Cpp20--><g class="link" data-entity-1="Cpp17" data-entity-2="Cpp20" data-source-line="199" data-uid="lnk28" id="link_Cpp17_Cpp20"><path codeLine="199" d="M140,1048.7694 C140,1073.9894 140,1094.3694 140,1120.4294" fill="none" id="Cpp17-to-Cpp20" style="stroke:#181818;stroke-width:1;"/><polygon fill="#181818" points="140,1126.4294,144,1117.4294,140,1121.4294,136,1117.4294,140,1126.4294" style="stroke:#181818;stroke-width:1;"/><text fill="#000000" font-family="sans-serif" font-size="13" lengthAdjust="spacing" textLength="47.709" x="141" y="1093.1045">upgrade</text></g><!--link Cpp20 to Cpp23--><g class="link" data-entity-1="Cpp20" data-entity-2="Cpp23" data-source-line="200" data-uid="lnk29" id="link_Cpp20_Cpp23"><path codeLine="200" d="M140,1534.6994 C140,1561.2494 140,1581.7794 140,1606.4794" fill="none" id="Cpp20-to-Cpp23" style="stroke:#181818;stroke-width:1;"/><polygon fill="#181818" points="140,1612.4794,144,1603.4794,140,1607.4794,136,1603.4794,140,1612.4794" style="stroke:#181818;stroke-width:1;"/><text fill="#000000" font-family="sans-serif" font-size="13" lengthAdjust="spacing" textLength="47.709" x="141" y="1579.1045">upgrade</text></g><!--link Cpp23 to Cpp26--><g class="link" data-entity-1="Cpp23" data-entity-2="Cpp26" data-source-line="201" data-uid="lnk30" id="link_Cpp23_Cpp26"><path codeLine="201" d="M140,1862.6894 C140,1888.0694 140,1908.8694 140,1934.5394" fill="none" id="Cpp23-to-Cpp26" style="stroke:#181818;stroke-width:1;"/><polygon fill="#181818" points="140,1940.5394,144,1931.5394,140,1935.5394,136,1931.5394,140,1940.5394" style="stroke:#181818;stroke-width:1;"/><text fill="#000000" font-family="sans-serif" font-size="13" lengthAdjust="spacing" textLength="47.709" x="141" y="1907.1045">upgrade</text></g><!--SRC=[hPTTRzis58RlzIi8x68NGGed3coWm0guJZmOozmYIOlkIg0eMYP2aIf9EN67_VUzf3uikvhdhKeGnEGX3yyXd_EITi99JkON5-JHKPLIav9PIWidjfmiE7MbuJQAxBDG1JKq9mbbpvdHfKhdMcf3VbhS-TyeYducb__t1tCHmTKLUKyjbqBn7tB69BMMp8i23l-C27ukYE5VIs5u6g_hdCZRO65QMSTV2qEao8NZQUYbKcIAMd8r2Kthg1CiXbTkNEZXYYQIns8TMbjg14qnml6yaDHXntoteIhZSOAKiAmseK_Os1cn5LJANSnqiVD-WaMLEJVm4UAmX1TMIAs22JdvVpbbHZU1_pvxUbX-YUSVLezFTry-FdGxLnzkbu_psSCjGJnkrpKjL_VBrLtyUVPGPxNVWUwmzykdU3vxV28vprcn8o69wAyeKjfnOaIsSKIlgpqEynOb4eAll81Jf1Hc-9Dy4ymVZTwA5Bk-Hk8U8IAmKppdoWU12C8eR19H_8KRqfpIcuYhbFX51m7iXjozEgviM74On6vQn13vCLs6I_gAqp_SuuohwgHfdgIqIZqHYfeT3jznGwKz-zYn_g7pUbA2DTQUesfQhWqFfoDmD4xadEW22-stlbC7MXUMG0fyNohya2QWX3k4Xwdm8Bw5sVrCt8JXjznnvWTLCOWrYMDMoDBwF_Bk5t8zkhePNTz7mRm4EinLGsqEJ0WY114vLOnxN81G06RFoa52lb7MD0sCpNHuRAQdi54w5PPvAQOEQf6KZjSxU4IIKBx4ug0_A3fRgvKfcNUNng0g5IhxLvpsWj4ktK_Rj5ykEgfIXNHWNEmTU0ZEuVNWP1C8ATiWZxgcqf9nJsSAazJKTTbyeKQr6TVGf50nH_4nmmMMUp-zq4xFXdOw6lT06mAouXklGWpLKTKUXCyTq9nHCJIarwF18ONB4v0cmiMCMdSe7_4MkrVVTL8ySznofQe-T0PkgTotX1Aj4yOBTxxu8S1U7Ai1dsVtHyjrpSlLykbe_Tfyl_pjxluFqWcwDdnQrQQ3Z8vlp8DzwQVRqZNGtXLUjDIM6zlAS5RYaQKS3tntIi2dKD8MgQeYI07GH02De3pgZMlyGWPeszaK3Pvj24JXKy8tT2jmKdsrS3qwjnQkHxq2tbPUX_fkcOPQ2VVWFYbBSH0e7zp-Hg0qv6xW2XaFNo7ZKnNIodN3NrvA9rASPuY1ojYMYML65FMZqaUN-iUYLpNeL5nedE3vvJ3-1tLUx2lY19NjqNIuIni2JkjfzIJU-5DEAm0zudXvzi8rFXkkSJzSYfdgwIY_VnVqPY5efZGgdGqjkfFXaPgSGcglirQeenwcxV6Oh-POdbbEtUPyeYQd11O3OZH__Uytkj7LGmshutt3weSBDT1EWsSmNf-P7mgLiruzAZEKGHDJgk01qpBuXCps8ZOv6x79QDI3s7UNDMc-mBMXRpZT8jAYa88D_khyLA2s894BgLz-o5NrBVZoybtzPUKjAIlNKTLkBDCZoxInu8uziA3TMCP7bd5hcNGiVmC0]--></g></svg>