<svg xmlns="http://www.w3.org/2000/svg" xmlns:xlink="http://www.w3.org/1999/xlink" contentStyleType="text/css" data-diagram-type="SEQUENCE" height="1662px" preserveAspectRatio="none" style="width:748px;height:1662px;background:#FEFEFE;" version="1.1" viewBox="0 0 748 1662" width="748px" zoomAndPan="magnify"><title>3D Transformation Pipeline</title><defs/><g><rect fill="#FEFEFE" height="1662" style="stroke:none;stroke-width:1;" width="748" x="0" y="0"/><text fill="#000000" font-family="sans-serif" font-size="14" font-weight="bold" lengthAdjust="spacing" textLength="182.0342" x="279.3352" y="29.5332">3D Transformation Pipeline</text><g><title>Vec3f</title><rect fill="#FFFFFF" height="333.8672" style="stroke:#181818;stroke-width:1;" width="10" x="163.1382" y="197.9219"/></g><g><title>Vec3f</title><rect fill="#FFFFFF" height="208.1094" style="stroke:#181818;stroke-width:1;" width="10" x="163.1382" y="667.1953"/></g><g><title>Vec3f</title><rect fill="#FFFFFF" height="151.7578" style="stroke:#181818;stroke-width:1;" width="10" x="163.1382" y="980.3594"/></g><g><title>Vec3f</title><rect fill="#FFFFFF" height="73.7031" style="stroke:#181818;stroke-width:1;" width="10" x="163.1382" y="1488.6328"/></g><g><title>Mat4f</title><rect fill="#FFFFFF" height="303.5156" style="stroke:#181818;stroke-width:1;" width="10" x="340.9253" y="228.2734"/></g><g><title>Mat4f</title><rect fill="#FFFFFF" height="30.3516" style="stroke:#181818;stroke-width:1;" width="10" x="340.9253" y="1192.8203"/></g><g><title>Mat3f</title><rect fill="#FFFFFF" height="30.3516" style="stroke:#181818;stroke-width:1;" width="10" x="478.6924" y="288.9766"/></g><g><title>Mat3f</title><rect fill="#FFFFFF" height="212.4609" style="stroke:#181818;stroke-width:1;" width="10" x="478.6924" y="950.0078"/></g><g><title>Quaternion.float.</title><rect fill="#FFFFFF" height="268.8125" style="stroke:#181818;stroke-width:1;" width="10" x="576.2402" y="606.4922"/></g><g><title>Quaternion.float.</title><rect fill="#FFFFFF" height="160.4063" style="stroke:#181818;stroke-width:1;" width="10" x="576.2402" y="1297.875"/></g><g><title>User</title><rect fill="#000000" fill-opacity="0.00000" height="1459.1172" width="8" x="18.7793" y="121.2188"/><line style="stroke:#181818;stroke-width:0.5;stroke-dasharray:5,5;" x1="22" x2="22" y1="121.2188" y2="1580.3359"/></g><g><title>Vec3f</title><rect fill="#000000" fill-opacity="0.00000" height="1459.1172" width="8" x="164.1382" y="121.2188"/><line style="stroke:#181818;stroke-width:0.5;stroke-dasharray:5,5;" x1="167.2383" x2="167.2383" y1="121.2188" y2="1580.3359"/></g><g><title>Mat4f</title><rect fill="#000000" fill-opacity="0.00000" height="1459.1172" width="8" x="341.9253" y="121.2188"/><line style="stroke:#181818;stroke-width:0.5;stroke-dasharray:5,5;" x1="345.4185" x2="345.4185" y1="121.2188" y2="1580.3359"/></g><g><title>Mat3f</title><rect fill="#000000" fill-opacity="0.00000" height="1459.1172" width="8" x="479.6924" y="121.2188"/><line style="stroke:#181818;stroke-width:0.5;stroke-dasharray:5,5;" x1="483.1855" x2="483.1855" y1="121.2188" y2="1580.3359"/></g><g><title>Quaternion.float.</title><rect fill="#000000" fill-opacity="0.00000" height="1459.1172" width="8" x="577.2402" y="121.2188"/><line style="stroke:#181818;stroke-width:0.5;stroke-dasharray:5,5;" x1="581.1992" x2="581.1992" y1="121.2188" y2="1580.3359"/></g><g class="participant participant-head" data-participant="User"><text fill="#000000" font-family="sans-serif" font-size="14" lengthAdjust="spacing" textLength="29.5586" x="5" y="118.1426">User</text><ellipse cx="22.7793" cy="52.1094" fill="#E2E2F0" rx="8" ry="8" style="stroke:#181818;stroke-width:0.5;"/><path d="M22.7793,60.1094 L22.7793,87.1094 M9.7793,68.1094 L35.7793,68.1094 M22.7793,87.1094 L9.7793,102.1094 M22.7793,87.1094 L35.7793,102.1094" fill="none" style="stroke:#181818;stroke-width:0.5;"/></g><g class="participant participant-tail" data-participant="User"><text fill="#000000" font-family="sans-serif" font-size="14" lengthAdjust="spacing" textLength="29.5586" x="5" y="1593.8691">User</text><ellipse cx="22.7793" cy="1605.4453" fill="#E2E2F0" rx="8" ry="8" style="stroke:#181818;stroke-width:0.5;"/><path d="M22.7793,1613.4453 L22.7793,1640.4453 M9.7793,1621.4453 L35.7793,1621.4453 M22.7793,1640.4453 L9.7793,1655.4453 M22.7793,1640.4453 L35.7793,1655.4453" fill="none" style="stroke:#181818;stroke-width:0.5;"/></g><g class="participant participant-head" data-participant="Vec"><rect fill="#E2E2F0" height="31.6094" rx="2.5" ry="2.5" style="stroke:#181818;stroke-width:0.5;" width="49.7998" x="143.2383" y="88.6094"/><text fill="#000000" font-family="sans-serif" font-size="14" lengthAdjust="spacing" textLength="35.7998" x="150.2383" y="110.1426">Vec3f</text></g><g class="participant participant-tail" data-participant="Vec"><rect fill="#E2E2F0" height="31.6094" rx="2.5" ry="2.5" style="stroke:#181818;stroke-width:0.5;" width="49.7998" x="143.2383" y="1579.3359"/><text fill="#000000" font-family="sans-serif" font-size="14" lengthAdjust="spacing" textLength="35.7998" x="150.2383" y="1600.8691">Vec3f</text></g><g class="participant participant-head" data-participant="Mat4"><rect fill="#E2E2F0" height="31.6094" rx="2.5" ry="2.5" style="stroke:#181818;stroke-width:0.5;" width="49.0137" x="321.4185" y="88.6094"/><text fill="#000000" font-family="sans-serif" font-size="14" lengthAdjust="spacing" textLength="35.0137" x="328.4185" y="110.1426">Mat4f</text></g><g class="participant participant-tail" data-participant="Mat4"><rect fill="#E2E2F0" height="31.6094" rx="2.5" ry="2.5" style="stroke:#181818;stroke-width:0.5;" width="49.0137" x="321.4185" y="1579.3359"/><text fill="#000000" font-family="sans-serif" font-size="14" lengthAdjust="spacing" textLength="35.0137" x="328.4185" y="1600.8691">Mat4f</text></g><g class="participant participant-head" data-participant="Mat3"><rect fill="#E2E2F0" height="31.6094" rx="2.5" ry="2.5" style="stroke:#181818;stroke-width:0.5;" width="49.0137" x="459.1855" y="88.6094"/><text fill="#000000" font-family="sans-serif" font-size="14" lengthAdjust="spacing" textLength="35.0137" x="466.1855" y="110.1426">Mat3f</text></g><g class="participant participant-tail" data-participant="Mat3"><rect fill="#E2E2F0" height="31.6094" rx="2.5" ry="2.5" style="stroke:#181818;stroke-width:0.5;" width="49.0137" x="459.1855" y="1579.3359"/><text fill="#000000" font-family="sans-serif" font-size="14" lengthAdjust="spacing" textLength="35.0137" x="466.1855" y="1600.8691">Mat3f</text></g><g class="participant participant-head" data-participant="Quat"><rect fill="#E2E2F0" height="31.6094" rx="2.5" ry="2.5" style="stroke:#181818;stroke-width:0.5;" width="126.082" x="518.1992" y="88.6094"/><text fill="#000000" font-family="sans-serif" font-size="14" lengthAdjust="spacing" textLength="112.082" x="525.1992" y="110.1426">Quaternion&lt;float&gt;</text></g><g class="participant participant-tail" data-participant="Quat"><rect fill="#E2E2F0" height="31.6094" rx="2.5" ry="2.5" style="stroke:#181818;stroke-width:0.5;" width="126.082" x="518.1992" y="1579.3359"/><text fill="#000000" font-family="sans-serif" font-size="14" lengthAdjust="spacing" textLength="112.082" x="525.1992" y="1600.8691">Quaternion&lt;float&gt;</text></g><g><title>Vec3f</title><rect fill="#FFFFFF" height="333.8672" style="stroke:#181818;stroke-width:1;" width="10" x="163.1382" y="197.9219"/></g><g><title>Vec3f</title><rect fill="#FFFFFF" height="208.1094" style="stroke:#181818;stroke-width:1;" width="10" x="163.1382" y="667.1953"/></g><g><title>Vec3f</title><rect fill="#FFFFFF" height="151.7578" style="stroke:#181818;stroke-width:1;" width="10" x="163.1382" y="980.3594"/></g><g><title>Vec3f</title><rect fill="#FFFFFF" height="73.7031" style="stroke:#181818;stroke-width:1;" width="10" x="163.1382" y="1488.6328"/></g><g><title>Mat4f</title><rect fill="#FFFFFF" height="303.5156" style="stroke:#181818;stroke-width:1;" width="10" x="340.9253" y="228.2734"/></g><g><title>Mat4f</title><rect fill="#FFFFFF" height="30.3516" style="stroke:#181818;stroke-width:1;" width="10" x="340.9253" y="1192.8203"/></g><g><title>Mat3f</title><rect fill="#FFFFFF" height="30.3516" style="stroke:#181818;stroke-width:1;" width="10" x="478.6924" y="288.9766"/></g><g><title>Mat3f</title><rect fill="#FFFFFF" height="212.4609" style="stroke:#181818;stroke-width:1;" width="10" x="478.6924" y="950.0078"/></g><g><title>Quaternion.float.</title><rect fill="#FFFFFF" height="268.8125" style="stroke:#181818;stroke-width:1;" width="10" x="576.2402" y="606.4922"/></g><g><title>Quaternion.float.</title><rect fill="#FFFFFF" height="160.4063" style="stroke:#181818;stroke-width:1;" width="10" x="576.2402" y="1297.875"/></g><rect fill="#EEEEEE" height="3" style="stroke:#EEEEEE;stroke-width:1;" width="741.7046" x="0" y="152.3945"/><line style="stroke:#000000;stroke-width:1;" x1="0" x2="741.7046" y1="152.3945" y2="152.3945"/><line style="stroke:#000000;stroke-width:1;" x1="0" x2="741.7046" y1="155.3945" y2="155.3945"/><rect fill="#EEEEEE" height="24.3516" style="stroke:#000000;stroke-width:2;" width="198.209" x="271.7478" y="141.2188"/><text fill="#000000" font-family="sans-serif" font-size="13" font-weight="bold" lengthAdjust="spacing" textLength="180.5972" x="277.7478" y="158.7139">Object Space to World Space</text><g class="message" data-participant-1="User" data-participant-2="Vec"><polygon fill="#181818" points="151.1382,193.9219,161.1382,197.9219,151.1382,201.9219,155.1382,197.9219" style="stroke:#181818;stroke-width:1;"/><line style="stroke:#181818;stroke-width:2;" x1="22.7793" x2="157.1382" y1="197.9219" y2="197.9219"/><text fill="#000000" font-family="sans-serif" font-size="13" lengthAdjust="spacing" textLength="89.6035" x="29.7793" y="193.0654">position(1, 2, 3)</text></g><g class="message" data-participant-1="User" data-participant-2="Mat4"><polygon fill="#181818" points="328.9253,224.2734,338.9253,228.2734,328.9253,232.2734,332.9253,228.2734" style="stroke:#181818;stroke-width:1;"/><line style="stroke:#181818;stroke-width:2;" x1="22.7793" x2="334.9253" y1="228.2734" y2="228.2734"/><text fill="#000000" font-family="sans-serif" font-size="13" lengthAdjust="spacing" textLength="153.9053" x="29.7793" y="223.417">translation(Vec3f(10, 5, 0))</text></g><g class="message" data-participant-1="User" data-participant-2="Mat4"><polygon fill="#181818" points="328.9253,254.625,338.9253,258.625,328.9253,262.625,332.9253,258.625" style="stroke:#181818;stroke-width:1;"/><line style="stroke:#181818;stroke-width:2;" x1="22.7793" x2="334.9253" y1="258.625" y2="258.625"/><text fill="#000000" font-family="sans-serif" font-size="13" lengthAdjust="spacing" textLength="85.5601" x="29.7793" y="253.7686">rotation_y(&#960;/4)</text></g><g class="message" data-participant-1="Mat4" data-participant-2="Mat3"><polygon fill="#181818" points="466.6924,284.9766,476.6924,288.9766,466.6924,292.9766,470.6924,288.9766" style="stroke:#181818;stroke-width:1;"/><line style="stroke:#181818;stroke-width:2;" x1="350.9253" x2="472.6924" y1="288.9766" y2="288.9766"/><text fill="#000000" font-family="sans-serif" font-size="13" lengthAdjust="spacing" textLength="108.7671" x="357.9253" y="284.1201">create 3&#215;3 rotation</text></g><g class="message" data-participant-1="Mat3" data-participant-2="Mat4"><polygon fill="#181818" points="361.9253,315.3281,351.9253,319.3281,361.9253,323.3281,357.9253,319.3281" style="stroke:#181818;stroke-width:1;"/><line style="stroke:#181818;stroke-width:2;stroke-dasharray:2,2;" x1="355.9253" x2="482.6924" y1="319.3281" y2="319.3281"/><text fill="#000000" font-family="sans-serif" font-size="13" lengthAdjust="spacing" textLength="82.3608" x="367.9253" y="314.4717">rotation matrix</text></g><g class="message" data-participant-1="User" data-participant-2="Mat4"><polygon fill="#181818" points="328.9253,345.6797,338.9253,349.6797,328.9253,353.6797,332.9253,349.6797" style="stroke:#181818;stroke-width:1;"/><line style="stroke:#181818;stroke-width:2;" x1="22.7793" x2="334.9253" y1="349.6797" y2="349.6797"/><text fill="#000000" font-family="sans-serif" font-size="13" lengthAdjust="spacing" textLength="208.4761" x="29.7793" y="344.8232">model = translation * rotation * scale</text></g><g class="message" data-participant-1="Mat4" data-participant-2="User"><polygon fill="#181818" points="33.7793,376.0313,23.7793,380.0313,33.7793,384.0313,29.7793,380.0313" style="stroke:#181818;stroke-width:1;"/><line style="stroke:#181818;stroke-width:2;stroke-dasharray:2,2;" x1="27.7793" x2="339.9253" y1="380.0313" y2="380.0313"/><text fill="#000000" font-family="sans-serif" font-size="13" lengthAdjust="spacing" textLength="119.5645" x="39.7793" y="375.1748">4&#215;4 transform matrix</text></g><g class="message" data-participant-1="User" data-participant-2="Mat4"><polygon fill="#181818" points="328.9253,406.3828,338.9253,410.3828,328.9253,414.3828,332.9253,410.3828" style="stroke:#181818;stroke-width:1;"/><line style="stroke:#181818;stroke-width:2;" x1="22.7793" x2="334.9253" y1="410.3828" y2="410.3828"/><text fill="#000000" font-family="sans-serif" font-size="13" lengthAdjust="spacing" textLength="186.418" x="29.7793" y="405.5264">transform_point(model, position)</text></g><g class="message" data-participant-1="Mat4" data-participant-2="Vec"><polygon fill="#181818" points="184.1382,436.7344,174.1382,440.7344,184.1382,444.7344,180.1382,440.7344" style="stroke:#181818;stroke-width:1;"/><line style="stroke:#181818;stroke-width:2;" x1="178.1382" x2="339.9253" y1="440.7344" y2="440.7344"/><text fill="#000000" font-family="sans-serif" font-size="13" lengthAdjust="spacing" textLength="143.7871" x="190.1382" y="435.8779">extend to Vec4(x, y, z, 1)</text></g><g class="message" data-participant-1="Mat4" data-participant-2="Vec"><polygon fill="#181818" points="184.1382,467.0859,174.1382,471.0859,184.1382,475.0859,180.1382,471.0859" style="stroke:#181818;stroke-width:1;"/><line style="stroke:#181818;stroke-width:2;" x1="178.1382" x2="339.9253" y1="471.0859" y2="471.0859"/><text fill="#000000" font-family="sans-serif" font-size="13" lengthAdjust="spacing" textLength="114.1436" x="190.1382" y="466.2295">matrix multiplication</text></g><g class="message" data-participant-1="Vec" data-participant-2="Mat4"><polygon fill="#181818" points="328.9253,497.4375,338.9253,501.4375,328.9253,505.4375,332.9253,501.4375" style="stroke:#181818;stroke-width:1;"/><line style="stroke:#181818;stroke-width:2;stroke-dasharray:2,2;" x1="173.1382" x2="334.9253" y1="501.4375" y2="501.4375"/><text fill="#000000" font-family="sans-serif" font-size="13" lengthAdjust="spacing" textLength="65.0317" x="180.1382" y="496.5811">result Vec4</text></g><g class="message" data-participant-1="Mat4" data-participant-2="User"><polygon fill="#181818" points="33.7793,527.7891,23.7793,531.7891,33.7793,535.7891,29.7793,531.7891" style="stroke:#181818;stroke-width:1;"/><line style="stroke:#181818;stroke-width:2;stroke-dasharray:2,2;" x1="27.7793" x2="344.9253" y1="531.7891" y2="531.7891"/><text fill="#000000" font-family="sans-serif" font-size="13" lengthAdjust="spacing" textLength="119.958" x="39.7793" y="526.9326">Vec3f world_position</text></g><rect fill="#EEEEEE" height="3" style="stroke:#EEEEEE;stroke-width:1;" width="741.7046" x="0" y="560.9648"/><line style="stroke:#000000;stroke-width:1;" x1="0" x2="741.7046" y1="560.9648" y2="560.9648"/><line style="stroke:#000000;stroke-width:1;" x1="0" x2="741.7046" y1="563.9648" y2="563.9648"/><rect fill="#EEEEEE" height="24.3516" style="stroke:#000000;stroke-width:2;" width="143.27" x="299.2173" y="549.7891"/><text fill="#000000" font-family="sans-serif" font-size="13" font-weight="bold" lengthAdjust="spacing" textLength="125.6582" x="305.2173" y="567.2842">Quaternion Rotation</text><g class="message" data-participant-1="User" data-participant-2="Quat"><polygon fill="#181818" points="564.2402,602.4922,574.2402,606.4922,564.2402,610.4922,568.2402,606.4922" style="stroke:#181818;stroke-width:1;"/><line style="stroke:#181818;stroke-width:2;" x1="22.7793" x2="570.2402" y1="606.4922" y2="606.4922"/><text fill="#000000" font-family="sans-serif" font-size="13" lengthAdjust="spacing" textLength="166.1943" x="29.7793" y="601.6357">from_axis_angle(axis, angle)</text></g><g class="message" data-participant-1="Quat" data-participant-2="User"><polygon fill="#181818" points="33.7793,632.8438,23.7793,636.8438,33.7793,640.8438,29.7793,636.8438" style="stroke:#181818;stroke-width:1;"/><line style="stroke:#181818;stroke-width:2;stroke-dasharray:2,2;" x1="27.7793" x2="575.2402" y1="636.8438" y2="636.8438"/><text fill="#000000" font-family="sans-serif" font-size="13" lengthAdjust="spacing" textLength="108.4116" x="39.7793" y="631.9873">rotation quaternion</text></g><g class="message" data-participant-1="User" data-participant-2="Vec"><polygon fill="#181818" points="151.1382,663.1953,161.1382,667.1953,151.1382,671.1953,155.1382,667.1953" style="stroke:#181818;stroke-width:1;"/><line style="stroke:#181818;stroke-width:2;" x1="22.7793" x2="157.1382" y1="667.1953" y2="667.1953"/><text fill="#000000" font-family="sans-serif" font-size="13" lengthAdjust="spacing" textLength="93.9326" x="29.7793" y="662.3389">direction(0, 0, 1)</text></g><g class="message" data-participant-1="User" data-participant-2="Quat"><polygon fill="#181818" points="564.2402,693.5469,574.2402,697.5469,564.2402,701.5469,568.2402,697.5469" style="stroke:#181818;stroke-width:1;"/><line style="stroke:#181818;stroke-width:2;" x1="22.7793" x2="570.2402" y1="697.5469" y2="697.5469"/><text fill="#000000" font-family="sans-serif" font-size="13" lengthAdjust="spacing" textLength="91.0381" x="29.7793" y="692.6904">rotate(direction)</text></g><g class="message" data-participant-1="Quat" data-participant-2="Quat"><line style="stroke:#181818;stroke-width:2;" x1="586.2402" x2="628.2402" y1="727.8984" y2="727.8984"/><line style="stroke:#181818;stroke-width:2;" x1="628.2402" x2="628.2402" y1="727.8984" y2="740.8984"/><line style="stroke:#181818;stroke-width:2;" x1="587.2402" x2="628.2402" y1="740.8984" y2="740.8984"/><polygon fill="#181818" points="597.2402,736.8984,587.2402,740.8984,597.2402,744.8984,593.2402,740.8984" style="stroke:#181818;stroke-width:1;"/><text fill="#000000" font-family="sans-serif" font-size="13" lengthAdjust="spacing" textLength="65.0381" x="593.2402" y="723.042">conjugate()</text></g><g class="message" data-participant-1="Quat" data-participant-2="Quat"><line style="stroke:#181818;stroke-width:2;" x1="586.2402" x2="628.2402" y1="771.25" y2="771.25"/><line style="stroke:#181818;stroke-width:2;" x1="628.2402" x2="628.2402" y1="771.25" y2="784.25"/><line style="stroke:#181818;stroke-width:2;" x1="587.2402" x2="628.2402" y1="784.25" y2="784.25"/><polygon fill="#181818" points="597.2402,780.25,587.2402,784.25,597.2402,788.25,593.2402,784.25" style="stroke:#181818;stroke-width:1;"/><text fill="#000000" font-family="sans-serif" font-size="13" lengthAdjust="spacing" textLength="50.5845" x="593.2402" y="766.3936">q * v * q*</text></g><g class="message" data-participant-1="Quat" data-participant-2="Vec"><polygon fill="#181818" points="184.1382,810.6016,174.1382,814.6016,184.1382,818.6016,180.1382,814.6016" style="stroke:#181818;stroke-width:1;"/><line style="stroke:#181818;stroke-width:2;" x1="178.1382" x2="575.2402" y1="814.6016" y2="814.6016"/><text fill="#000000" font-family="sans-serif" font-size="13" lengthAdjust="spacing" textLength="72.2554" x="190.1382" y="809.7451">extract Vec3</text></g><g class="message" data-participant-1="Vec" data-participant-2="Quat"><polygon fill="#181818" points="564.2402,840.9531,574.2402,844.9531,564.2402,848.9531,568.2402,844.9531" style="stroke:#181818;stroke-width:1;"/><line style="stroke:#181818;stroke-width:2;stroke-dasharray:2,2;" x1="173.1382" x2="570.2402" y1="844.9531" y2="844.9531"/><text fill="#000000" font-family="sans-serif" font-size="13" lengthAdjust="spacing" textLength="79.4854" x="180.1382" y="840.0967">rotated vector</text></g><g class="message" data-participant-1="Quat" data-participant-2="User"><polygon fill="#181818" points="33.7793,871.3047,23.7793,875.3047,33.7793,879.3047,29.7793,875.3047" style="stroke:#181818;stroke-width:1;"/><line style="stroke:#181818;stroke-width:2;stroke-dasharray:2,2;" x1="27.7793" x2="580.2402" y1="875.3047" y2="875.3047"/><text fill="#000000" font-family="sans-serif" font-size="13" lengthAdjust="spacing" textLength="96.8398" x="39.7793" y="870.4482">rotated_direction</text></g><rect fill="#EEEEEE" height="3" style="stroke:#EEEEEE;stroke-width:1;" width="741.7046" x="0" y="904.4805"/><line style="stroke:#000000;stroke-width:1;" x1="0" x2="741.7046" y1="904.4805" y2="904.4805"/><line style="stroke:#000000;stroke-width:1;" x1="0" x2="741.7046" y1="907.4805" y2="907.4805"/><rect fill="#EEEEEE" height="24.3516" style="stroke:#000000;stroke-width:2;" width="133.209" x="304.2478" y="893.3047"/><text fill="#000000" font-family="sans-serif" font-size="13" font-weight="bold" lengthAdjust="spacing" textLength="115.5972" x="310.2478" y="910.7998">Camera Transform</text><g class="message" data-participant-1="User" data-participant-2="Mat3"><polygon fill="#181818" points="466.6924,946.0078,476.6924,950.0078,466.6924,954.0078,470.6924,950.0078" style="stroke:#181818;stroke-width:1;"/><line style="stroke:#181818;stroke-width:2;" x1="22.7793" x2="472.6924" y1="950.0078" y2="950.0078"/><text fill="#000000" font-family="sans-serif" font-size="13" lengthAdjust="spacing" textLength="115.6099" x="29.7793" y="945.1514">look_at(forward, up)</text></g><g class="message" data-participant-1="Mat3" data-participant-2="Vec"><polygon fill="#181818" points="184.1382,976.3594,174.1382,980.3594,184.1382,984.3594,180.1382,980.3594" style="stroke:#181818;stroke-width:1;"/><line style="stroke:#181818;stroke-width:2;" x1="178.1382" x2="477.6924" y1="980.3594" y2="980.3594"/><text fill="#000000" font-family="sans-serif" font-size="13" lengthAdjust="spacing" textLength="108.3608" x="190.1382" y="975.5029">normalize(forward)</text></g><g class="message" data-participant-1="Vec" data-participant-2="Mat3"><polygon fill="#181818" points="466.6924,1006.7109,476.6924,1010.7109,466.6924,1014.7109,470.6924,1010.7109" style="stroke:#181818;stroke-width:1;"/><line style="stroke:#181818;stroke-width:2;stroke-dasharray:2,2;" x1="173.1382" x2="472.6924" y1="1010.7109" y2="1010.7109"/><text fill="#000000" font-family="sans-serif" font-size="13" lengthAdjust="spacing" textLength="36.8481" x="180.1382" y="1005.8545">z_axis</text></g><g class="message" data-participant-1="Mat3" data-participant-2="Vec"><polygon fill="#181818" points="184.1382,1037.0625,174.1382,1041.0625,184.1382,1045.0625,180.1382,1041.0625" style="stroke:#181818;stroke-width:1;"/><line style="stroke:#181818;stroke-width:2;" x1="178.1382" x2="477.6924" y1="1041.0625" y2="1041.0625"/><text fill="#000000" font-family="sans-serif" font-size="13" lengthAdjust="spacing" textLength="98.249" x="190.1382" y="1036.2061">cross(up, z_axis)</text></g><g class="message" data-participant-1="Vec" data-participant-2="Mat3"><polygon fill="#181818" points="466.6924,1067.4141,476.6924,1071.4141,466.6924,1075.4141,470.6924,1071.4141" style="stroke:#181818;stroke-width:1;"/><line style="stroke:#181818;stroke-width:2;stroke-dasharray:2,2;" x1="173.1382" x2="472.6924" y1="1071.4141" y2="1071.4141"/><text fill="#000000" font-family="sans-serif" font-size="13" lengthAdjust="spacing" textLength="36.8481" x="180.1382" y="1066.5576">x_axis</text></g><g class="message" data-participant-1="Mat3" data-participant-2="Vec"><polygon fill="#181818" points="184.1382,1097.7656,174.1382,1101.7656,184.1382,1105.7656,180.1382,1101.7656" style="stroke:#181818;stroke-width:1;"/><line style="stroke:#181818;stroke-width:2;" x1="178.1382" x2="477.6924" y1="1101.7656" y2="1101.7656"/><text fill="#000000" font-family="sans-serif" font-size="13" lengthAdjust="spacing" textLength="120.6372" x="190.1382" y="1096.9092">cross(z_axis, x_axis)</text></g><g class="message" data-participant-1="Vec" data-participant-2="Mat3"><polygon fill="#181818" points="466.6924,1128.1172,476.6924,1132.1172,466.6924,1136.1172,470.6924,1132.1172" style="stroke:#181818;stroke-width:1;"/><line style="stroke:#181818;stroke-width:2;stroke-dasharray:2,2;" x1="168.1382" x2="472.6924" y1="1132.1172" y2="1132.1172"/><text fill="#000000" font-family="sans-serif" font-size="13" lengthAdjust="spacing" textLength="36.8481" x="175.1382" y="1127.2607">y_axis</text></g><g class="message" data-participant-1="Mat3" data-participant-2="User"><polygon fill="#181818" points="33.7793,1158.4688,23.7793,1162.4688,33.7793,1166.4688,29.7793,1162.4688" style="stroke:#181818;stroke-width:1;"/><line style="stroke:#181818;stroke-width:2;stroke-dasharray:2,2;" x1="27.7793" x2="482.6924" y1="1162.4688" y2="1162.4688"/><text fill="#000000" font-family="sans-serif" font-size="13" lengthAdjust="spacing" textLength="76.5972" x="39.7793" y="1157.6123">view_rotation</text></g><g class="message" data-participant-1="User" data-participant-2="Mat4"><polygon fill="#181818" points="328.9253,1188.8203,338.9253,1192.8203,328.9253,1196.8203,332.9253,1192.8203" style="stroke:#181818;stroke-width:1;"/><line style="stroke:#181818;stroke-width:2;" x1="22.7793" x2="334.9253" y1="1192.8203" y2="1192.8203"/><text fill="#000000" font-family="sans-serif" font-size="13" lengthAdjust="spacing" textLength="170.9043" x="29.7793" y="1187.9639">combine rotation + translation</text></g><g class="message" data-participant-1="Mat4" data-participant-2="User"><polygon fill="#181818" points="33.7793,1219.1719,23.7793,1223.1719,33.7793,1227.1719,29.7793,1223.1719" style="stroke:#181818;stroke-width:1;"/><line style="stroke:#181818;stroke-width:2;stroke-dasharray:2,2;" x1="27.7793" x2="344.9253" y1="1223.1719" y2="1223.1719"/><text fill="#000000" font-family="sans-serif" font-size="13" lengthAdjust="spacing" textLength="68.6245" x="39.7793" y="1218.3154">view_matrix</text></g><rect fill="#EEEEEE" height="3" style="stroke:#EEEEEE;stroke-width:1;" width="741.7046" x="0" y="1252.3477"/><line style="stroke:#000000;stroke-width:1;" x1="0" x2="741.7046" y1="1252.3477" y2="1252.3477"/><line style="stroke:#000000;stroke-width:1;" x1="0" x2="741.7046" y1="1255.3477" y2="1255.3477"/><rect fill="#EEEEEE" height="24.3516" style="stroke:#000000;stroke-width:2;" width="96.3291" x="322.6877" y="1241.1719"/><text fill="#000000" font-family="sans-serif" font-size="13" font-weight="bold" lengthAdjust="spacing" textLength="78.7173" x="328.6877" y="1258.667">Interpolation</text><g class="message" data-participant-1="User" data-participant-2="Quat"><polygon fill="#181818" points="564.2402,1293.875,574.2402,1297.875,564.2402,1301.875,568.2402,1297.875" style="stroke:#181818;stroke-width:1;"/><line style="stroke:#181818;stroke-width:2;" x1="22.7793" x2="570.2402" y1="1297.875" y2="1297.875"/><text fill="#000000" font-family="sans-serif" font-size="13" lengthAdjust="spacing" textLength="80.2026" x="29.7793" y="1293.0186">q1.slerp(q2, t)</text></g><g class="message" data-participant-1="Quat" data-participant-2="Quat"><line style="stroke:#181818;stroke-width:2;" x1="586.2402" x2="628.2402" y1="1328.2266" y2="1328.2266"/><line style="stroke:#181818;stroke-width:2;" x1="628.2402" x2="628.2402" y1="1328.2266" y2="1341.2266"/><line style="stroke:#181818;stroke-width:2;" x1="587.2402" x2="628.2402" y1="1341.2266" y2="1341.2266"/><polygon fill="#181818" points="597.2402,1337.2266,587.2402,1341.2266,597.2402,1345.2266,593.2402,1341.2266" style="stroke:#181818;stroke-width:1;"/><text fill="#000000" font-family="sans-serif" font-size="13" lengthAdjust="spacing" textLength="62.8735" x="593.2402" y="1323.3701">dot(q1, q2)</text></g><g class="message" data-participant-1="Quat" data-participant-2="Quat"><line style="stroke:#181818;stroke-width:2;" x1="586.2402" x2="628.2402" y1="1371.5781" y2="1371.5781"/><line style="stroke:#181818;stroke-width:2;" x1="628.2402" x2="628.2402" y1="1371.5781" y2="1384.5781"/><line style="stroke:#181818;stroke-width:2;" x1="587.2402" x2="628.2402" y1="1384.5781" y2="1384.5781"/><polygon fill="#181818" points="597.2402,1380.5781,587.2402,1384.5781,597.2402,1388.5781,593.2402,1384.5781" style="stroke:#181818;stroke-width:1;"/><text fill="#000000" font-family="sans-serif" font-size="13" lengthAdjust="spacing" textLength="85.2808" x="593.2402" y="1366.7217">compute angle</text></g><g class="message" data-participant-1="Quat" data-participant-2="Quat"><line style="stroke:#181818;stroke-width:2;" x1="586.2402" x2="628.2402" y1="1414.9297" y2="1414.9297"/><line style="stroke:#181818;stroke-width:2;" x1="628.2402" x2="628.2402" y1="1414.9297" y2="1427.9297"/><line style="stroke:#181818;stroke-width:2;" x1="587.2402" x2="628.2402" y1="1427.9297" y2="1427.9297"/><polygon fill="#181818" points="597.2402,1423.9297,587.2402,1427.9297,597.2402,1431.9297,593.2402,1427.9297" style="stroke:#181818;stroke-width:1;"/><text fill="#000000" font-family="sans-serif" font-size="13" lengthAdjust="spacing" textLength="126.4644" x="593.2402" y="1410.0732">spherical interpolation</text></g><g class="message" data-participant-1="Quat" data-participant-2="User"><polygon fill="#181818" points="33.7793,1454.2813,23.7793,1458.2813,33.7793,1462.2813,29.7793,1458.2813" style="stroke:#181818;stroke-width:1;"/><line style="stroke:#181818;stroke-width:2;stroke-dasharray:2,2;" x1="27.7793" x2="580.2402" y1="1458.2813" y2="1458.2813"/><text fill="#000000" font-family="sans-serif" font-size="13" lengthAdjust="spacing" textLength="114.9116" x="39.7793" y="1453.4248">interpolated rotation</text></g><g class="message" data-participant-1="User" data-participant-2="Vec"><polygon fill="#181818" points="151.1382,1484.6328,161.1382,1488.6328,151.1382,1492.6328,155.1382,1488.6328" style="stroke:#181818;stroke-width:1;"/><line style="stroke:#181818;stroke-width:2;" x1="22.7793" x2="157.1382" y1="1488.6328" y2="1488.6328"/><text fill="#000000" font-family="sans-serif" font-size="13" lengthAdjust="spacing" textLength="72.2427" x="29.7793" y="1483.7764">v1.lerp(v2, t)</text></g><g class="message" data-participant-1="Vec" data-participant-2="Vec"><line style="stroke:#181818;stroke-width:2;" x1="173.1382" x2="215.1382" y1="1518.9844" y2="1518.9844"/><line style="stroke:#181818;stroke-width:2;" x1="215.1382" x2="215.1382" y1="1518.9844" y2="1531.9844"/><line style="stroke:#181818;stroke-width:2;" x1="174.1382" x2="215.1382" y1="1531.9844" y2="1531.9844"/><polygon fill="#181818" points="184.1382,1527.9844,174.1382,1531.9844,184.1382,1535.9844,180.1382,1531.9844" style="stroke:#181818;stroke-width:1;"/><text fill="#000000" font-family="sans-serif" font-size="13" lengthAdjust="spacing" textLength="92.1108" x="180.1382" y="1514.1279">v1 + t * (v2 - v1)</text></g><g class="message" data-participant-1="Vec" data-participant-2="User"><polygon fill="#181818" points="33.7793,1558.3359,23.7793,1562.3359,33.7793,1566.3359,29.7793,1562.3359" style="stroke:#181818;stroke-width:1;"/><line style="stroke:#181818;stroke-width:2;stroke-dasharray:2,2;" x1="27.7793" x2="167.1382" y1="1562.3359" y2="1562.3359"/><text fill="#000000" font-family="sans-serif" font-size="13" lengthAdjust="spacing" textLength="116.3589" x="39.7793" y="1557.4795">interpolated position</text></g><!--SRC=[XLNRRjim37ttLn3TGvtEoP8uVIcM0aDtmO1rwzPsUqmLcqdKsf8ZoRdqQN_H3-e7x9T6AOdjEEw68gXi7fBYuI5z39VCABxwmiSGleSRnOIUI9KomwM0AvvXmWLwnt0zaqiDPftnY2MGQpP5o9Wng8G6yh3UKyMo6O-qvnbk4lnNG4y_S94nnL8Oi-XXgcGkuWkPKA1N7p_Olmf2upn74U4xfUJoXZ8y2DGQ-fx78aCUjngLHr338vunOU3e9qRXv0YO1ZhjcwZUmSPaJmUsiB25-xRlERF5KXLl9ubavjpXx5kFwFc40XK1ObXoCuEhX7nkBxz0hzFlzayxlQu5VPK6py3Ck8QOiwajBTUeGKYuYvYAxm0JJ54O3Jwziw_QvmeZmyIKw8nczD_24MECMntF6mxXs_YU072TiGZ1IFWbLH9l7uT3pxFSGFlSyW1da4dDRIFyNW3z0CAMPP0lwEAEg09jgI6uiTrBNEjyHwdVwmPm6a2tLV5qFDPTbJJERxJs__n-CsXvxlt67f8zKcXzm-UdiC3kXGmzXsmVXeJKITQBSHzVlq8gOqnWMAq2Jiee9w19ohYz6BavzpCOF3yDDZvMjxjaZTHOm2YJN1ZV9GiAWijwDyJZog28ROFeUU2l0bW7y1X0hmxSf8CqJmpF4XesHuorLPb0JNONwk3wha-mj38OxMvJesfGVNPz9o6L-eOVEugg0h9s2ZzHCXsn5TSZ9qhV7WDmvueat5WuZyhD2kRdHQgwFcDkvMxbHZhhEdgQ1RgzZGk9Vk7MsYOj094Kz_dKOWvCSrB0Wdxpay9Iz4fHLiTamVnUmXWMQ3TFSuaOZueBLPbsf3GmVy5IsXtbgjoZVJikYPGF8sPyiYzfBGIGPwt6STaL8UpEJVWZxbngJ5OKPUC_kfxMOaHAQktdMR0rj-fUgvUzDXx15dBWkTvurjaeHdxBvuBZSbIiX_yDV2JJCNrSIg6zhiv-RM7LvyQbQjmi0zUbpu8qcydanScOzpew8OW_fyrgceUX0CVI-7DQmlD-WsJJB2StDrDreyvcgDmdc5VlSo34qafYRI9my-7Qdxv5h-CAMDGAAFHI0YsrD3i4XJOzblrjoj-qXcpClm00]--></g></svg>