<svg xmlns="http://www.w3.org/2000/svg" xmlns:xlink="http://www.w3.org/1999/xlink" contentStyleType="text/css" data-diagram-type="DESCRIPTION" height="1032px" preserveAspectRatio="none" style="width:1888px;height:1032px;background:#FEFEFE;" version="1.1" viewBox="0 0 1888 1032" width="1888px" zoomAndPan="magnify"><title>MatrixLib Module Structure</title><defs/><g><rect fill="#FEFEFE" height="1032" style="stroke:none;stroke-width:1;" width="1888" x="0" y="0"/><g class="title" data-source-line="5"><text fill="#000000" font-family="sans-serif" font-size="14" font-weight="bold" lengthAdjust="spacing" textLength="181.2344" x="846.3828" y="24.5332">MatrixLib Module Structure</text></g><!--cluster matrixlib--><g class="cluster" data-entity="matrixlib" data-source-line="10" data-uid="ent0002" id="cluster_matrixlib"><path d="M8.5,44.6094 L67.8516,44.6094 A3.75,3.75 0 0 1 70.3516,47.1094 L77.3516,68.2188 L1878.5,68.2188 A2.5,2.5 0 0 1 1881,70.7188 L1881,1022.6094 A2.5,2.5 0 0 1 1878.5,1025.1094 L8.5,1025.1094 A2.5,2.5 0 0 1 6,1022.6094 L6,47.1094 A2.5,2.5 0 0 1 8.5,44.6094" fill="none" style="stroke:#000000;stroke-width:1.5;"/><line style="stroke:#000000;stroke-width:1.5;" x1="6" x2="77.3516" y1="68.2188" y2="68.2188"/><text fill="#000000" font-family="sans-serif" font-size="14" font-weight="bold" lengthAdjust="spacing" textLength="58.3516" x="10" y="61.1426">matrixlib</text></g><!--cluster Core Components--><g class="cluster" data-entity="Core Components" data-source-line="19" data-uid="ent0007" id="cluster_Core Components"><path d="M617.5,576.1094 L739.8379,576.1094 A3.75,3.75 0 0 1 742.3379,578.6094 L749.3379,599.7188 L1005.5,599.7188 A2.5,2.5 0 0 1 1008,602.2188 L1008,998.6094 A2.5,2.5 0 0 1 1005.5,1001.1094 L617.5,1001.1094 A2.5,2.5 0 0 1 615,998.6094 L615,578.6094 A2.5,2.5 0 0 1 617.5,576.1094" fill="none" style="stroke:#000000;stroke-width:1.5;"/><line style="stroke:#000000;stroke-width:1.5;" x1="615" x2="749.3379" y1="599.7188" y2="599.7188"/><text fill="#000000" font-family="sans-serif" font-size="14" font-weight="bold" lengthAdjust="spacing" textLength="121.3379" x="619" y="592.6426">Core Components</text></g><!--cluster Type Aliases--><g class="cluster" data-entity="Type Aliases" data-source-line="37" data-uid="ent0016" id="cluster_Type Aliases"><path d="M1047.5,418.1094 L1134.0996,418.1094 A3.75,3.75 0 0 1 1136.5996,420.6094 L1143.5996,441.7188 L1783.5,441.7188 A2.5,2.5 0 0 1 1786,444.2188 L1786,663.6094 A2.5,2.5 0 0 1 1783.5,666.1094 L1047.5,666.1094 A2.5,2.5 0 0 1 1045,663.6094 L1045,420.6094 A2.5,2.5 0 0 1 1047.5,418.1094" fill="none" style="stroke:#000000;stroke-width:1.5;"/><line style="stroke:#000000;stroke-width:1.5;" x1="1045" x2="1143.5996" y1="441.7188" y2="441.7188"/><text fill="#000000" font-family="sans-serif" font-size="14" font-weight="bold" lengthAdjust="spacing" textLength="85.5996" x="1049" y="434.6426">Type Aliases</text></g><!--cluster Build System--><g class="cluster" data-entity="Build System" data-source-line="56" data-uid="ent0027" id="cluster_Build System"><path d="M1242.5,88.6094 L1332.1895,88.6094 A3.75,3.75 0 0 1 1334.6895,91.1094 L1341.6895,112.2188 L1854.5,112.2188 A2.5,2.5 0 0 1 1857,114.7188 L1857,382.6094 A2.5,2.5 0 0 1 1854.5,385.1094 L1242.5,385.1094 A2.5,2.5 0 0 1 1240,382.6094 L1240,91.1094 A2.5,2.5 0 0 1 1242.5,88.6094" fill="none" style="stroke:#000000;stroke-width:1.5;"/><line style="stroke:#000000;stroke-width:1.5;" x1="1240" x2="1341.6895" y1="112.2188" y2="112.2188"/><text fill="#000000" font-family="sans-serif" font-size="14" font-weight="bold" lengthAdjust="spacing" textLength="88.6895" x="1244" y="105.1426">Build System</text></g><!--cluster Zephyr RTOS--><g class="cluster" data-entity="Zephyr RTOS" data-source-line="60" data-uid="ent0030" id="cluster_Zephyr RTOS"><path d="M1496.5,132.6094 L1586.9551,132.6094 A3.75,3.75 0 0 1 1589.4551,135.1094 L1596.4551,156.2188 L1830.5,156.2188 A2.5,2.5 0 0 1 1833,158.7188 L1833,358.6094 A2.5,2.5 0 0 1 1830.5,361.1094 L1496.5,361.1094 A2.5,2.5 0 0 1 1494,358.6094 L1494,135.1094 A2.5,2.5 0 0 1 1496.5,132.6094" fill="none" style="stroke:#000000;stroke-width:1.5;"/><line style="stroke:#000000;stroke-width:1.5;" x1="1494" x2="1596.4551" y1="156.2188" y2="156.2188"/><text fill="#000000" font-family="sans-serif" font-size="14" font-weight="bold" lengthAdjust="spacing" textLength="89.4551" x="1498" y="149.1426">Zephyr RTOS</text></g><!--cluster SIMD Backends--><g class="cluster" data-entity="SIMD Backends" data-source-line="67" data-uid="ent0034" id="cluster_SIMD Backends"><path d="M32.5,815.1094 L138.5342,815.1094 A3.75,3.75 0 0 1 141.0342,817.6094 L148.0342,838.7188 L588.5,838.7188 A2.5,2.5 0 0 1 591,841.2188 L591,990.6094 A2.5,2.5 0 0 1 588.5,993.1094 L32.5,993.1094 A2.5,2.5 0 0 1 30,990.6094 L30,817.6094 A2.5,2.5 0 0 1 32.5,815.1094" fill="none" style="stroke:#000000;stroke-width:1.5;"/><line style="stroke:#000000;stroke-width:1.5;" x1="30" x2="148.0342" y1="838.7188" y2="838.7188"/><text fill="#000000" font-family="sans-serif" font-size="14" font-weight="bold" lengthAdjust="spacing" textLength="105.0342" x="34" y="831.6426">SIMD Backends</text><text fill="#000000" font-family="sans-serif" font-size="14" font-style="italic" lengthAdjust="spacing" textLength="64.6133" x="282.1934" y="855.252">&#171;optional&#187;</text></g><!--cluster Testing--><g class="cluster" data-entity="Testing" data-source-line="89" data-uid="ent0043" id="cluster_Testing"><path d="M772.5,105.6094 L823.2793,105.6094 A3.75,3.75 0 0 1 825.7793,108.1094 L832.7793,129.2188 L1213.5,129.2188 A2.5,2.5 0 0 1 1216,131.7188 L1216,247.1094 A2.5,2.5 0 0 1 1213.5,249.6094 L772.5,249.6094 A2.5,2.5 0 0 1 770,247.1094 L770,108.1094 A2.5,2.5 0 0 1 772.5,105.6094" fill="none" style="stroke:#000000;stroke-width:1.5;"/><line style="stroke:#000000;stroke-width:1.5;" x1="770" x2="832.7793" y1="129.2188" y2="129.2188"/><text fill="#000000" font-family="sans-serif" font-size="14" font-weight="bold" lengthAdjust="spacing" textLength="49.7793" x="774" y="122.1426">Testing</text></g><!--cluster Documentation--><g class="cluster" data-entity="Documentation" data-source-line="102" data-uid="ent0049" id="cluster_Documentation"><path d="M32.5,132.6094 L135.3896,132.6094 A3.75,3.75 0 0 1 137.8896,135.1094 L144.8896,156.2188 L743.5,156.2188 A2.5,2.5 0 0 1 746,158.7188 L746,358.6094 A2.5,2.5 0 0 1 743.5,361.1094 L32.5,361.1094 A2.5,2.5 0 0 1 30,358.6094 L30,135.1094 A2.5,2.5 0 0 1 32.5,132.6094" fill="none" style="stroke:#000000;stroke-width:1.5;"/><line style="stroke:#000000;stroke-width:1.5;" x1="30" x2="144.8896" y1="156.2188" y2="156.2188"/><text fill="#000000" font-family="sans-serif" font-size="14" font-weight="bold" lengthAdjust="spacing" textLength="101.8896" x="34" y="149.1426">Documentation</text></g><!--entity main--><g class="entity" data-entity="main" data-source-line="12" data-uid="ent0003" id="entity_main"><rect fill="#F1F1F1" height="37.6094" rx="2.5" ry="2.5" style="stroke:#181818;stroke-width:0.5;" width="99.3652" x="944.5" y="307.1094"/><text fill="#000000" font-family="sans-serif" font-size="14" lengthAdjust="spacing" textLength="79.3652" x="954.5" y="331.6426">matrixlib.hpp</text></g><g class="entity" data-entity="GMN4" data-source-line="14" data-uid="ent0005" id="entity_GMN4"><path d="M1079,296.6094 L1079,322.1094 L1043.66,326.1094 L1079,330.1094 L1079,355.6641 A0,0 0 0 0 1079,355.6641 L1220.6943,355.6641 A0,0 0 0 0 1220.6943,355.6641 L1220.6943,306.6094 L1210.6943,296.6094 L1079,296.6094 A0,0 0 0 0 1079,296.6094" fill="#FEFFDD" style="stroke:#181818;stroke-width:0.5;"/><path d="M1210.6943,296.6094 L1210.6943,306.6094 L1220.6943,306.6094 L1210.6943,296.6094" fill="#FEFFDD" style="stroke:#181818;stroke-width:0.5;"/><text fill="#000000" font-family="sans-serif" font-size="13" font-weight="bold" lengthAdjust="spacing" textLength="77.3018" x="1085" y="315.1045">Main Header</text><text fill="#000000" font-family="sans-serif" font-size="13" lengthAdjust="spacing" textLength="120.6943" x="1085" y="331.4561">Convenience include</text><text fill="#000000" font-family="sans-serif" font-size="13" lengthAdjust="spacing" textLength="106.2217" x="1085" y="347.8076">for all components</text></g><!--entity constants--><g class="entity" data-entity="constants" data-source-line="20" data-uid="ent0008" id="entity_constants"><rect fill="#F1F1F1" height="37.6094" rx="2.5" ry="2.5" style="stroke:#181818;stroke-width:0.5;" width="107.1719" x="681.5" y="904.1094"/><text fill="#000000" font-family="sans-serif" font-size="14" lengthAdjust="spacing" textLength="87.1719" x="691.5" y="928.6426">constants.hpp</text></g><!--entity vector--><g class="entity" data-entity="vector" data-source-line="21" data-uid="ent0009" id="entity_vector"><rect fill="#F1F1F1" height="37.6094" rx="2.5" ry="2.5" style="stroke:#181818;stroke-width:0.5;" width="85.3721" x="811.5" y="713.1094"/><text fill="#000000" font-family="sans-serif" font-size="14" lengthAdjust="spacing" textLength="65.3721" x="821.5" y="737.6426">vector.hpp</text></g><!--entity matrix--><g class="entity" data-entity="matrix" data-source-line="22" data-uid="ent0010" id="entity_matrix"><rect fill="#F1F1F1" height="37.6094" rx="2.5" ry="2.5" style="stroke:#181818;stroke-width:0.5;" width="85.3584" x="758.5" y="612.1094"/><text fill="#000000" font-family="sans-serif" font-size="14" lengthAdjust="spacing" textLength="65.3584" x="768.5" y="636.6426">matrix.hpp</text></g><!--entity quaternion--><g class="entity" data-entity="quaternion" data-source-line="23" data-uid="ent0011" id="entity_quaternion"><rect fill="#F1F1F1" height="37.6094" rx="2.5" ry="2.5" style="stroke:#181818;stroke-width:0.5;" width="113.4131" x="878.5" y="612.1094"/><text fill="#000000" font-family="sans-serif" font-size="14" lengthAdjust="spacing" textLength="93.4131" x="888.5" y="636.6426">quaternion.hpp</text></g><!--entity version--><g class="entity" data-entity="version" data-source-line="24" data-uid="ent0012" id="entity_version"><rect fill="#F1F1F1" height="37.6094" rx="2.5" ry="2.5" style="stroke:#181818;stroke-width:0.5;" width="92.3789" x="631" y="612.1094"/><text fill="#000000" font-family="sans-serif" font-size="14" lengthAdjust="spacing" textLength="72.3789" x="641" y="636.6426">version.hpp</text></g><g class="entity" data-entity="GMN13" data-source-line="27" data-uid="ent0014" id="entity_GMN13"><path d="M824,861.1094 L824,919.1094 L788.72,923.1094 L824,927.1094 L824,985.5703 A0,0 0 0 0 824,985.5703 L991.7261,985.5703 A0,0 0 0 0 991.7261,985.5703 L991.7261,871.1094 L981.7261,861.1094 L824,861.1094 A0,0 0 0 0 824,861.1094" fill="#FEFFDD" style="stroke:#181818;stroke-width:0.5;"/><path d="M981.7261,861.1094 L981.7261,871.1094 L991.7261,871.1094 L981.7261,861.1094" fill="#FEFFDD" style="stroke:#181818;stroke-width:0.5;"/><text fill="#000000" font-family="sans-serif" font-size="13" font-weight="bold" lengthAdjust="spacing" textLength="70.0654" x="830" y="879.6045">Standalone</text><text fill="#000000" font-family="sans-serif" font-size="13" lengthAdjust="spacing" textLength="101.188" x="830" y="895.9561">No dependencies</text><text fill="#000000" font-family="sans-serif" font-size="13" lengthAdjust="spacing" textLength="3.6118" x="830" y="912.3076">&#160;</text><text fill="#000000" font-family="sans-serif" font-size="13" lengthAdjust="spacing" textLength="140.1753" x="830" y="928.6592">Mathematical constants:</text><text fill="#000000" font-family="sans-serif" font-size="13" lengthAdjust="spacing" textLength="96.8145" x="830" y="945.0107">- pi, e, sqrt2, etc.</text><text fill="#000000" font-family="sans-serif" font-size="13" lengthAdjust="spacing" textLength="146.7261" x="830" y="961.3623">- deg_to_rad, rad_to_deg</text><text fill="#000000" font-family="sans-serif" font-size="13" lengthAdjust="spacing" textLength="115.6035" x="830" y="977.7139">- Physical constants</text></g><!--entity vec2d--><g class="entity" data-entity="vec2d" data-source-line="38" data-uid="ent0017" id="entity_vec2d"><rect fill="#F1F1F1" height="37.6094" rx="2.5" ry="2.5" style="stroke:#181818;stroke-width:0.5;" width="86.9307" x="1505.5" y="472.6094"/><text fill="#000000" font-family="sans-serif" font-size="14" lengthAdjust="spacing" textLength="66.9307" x="1515.5" y="497.1426">vec2D.hpp</text></g><!--entity vec3d--><g class="entity" data-entity="vec3d" data-source-line="39" data-uid="ent0018" id="entity_vec3d"><rect fill="#F1F1F1" height="37.6094" rx="2.5" ry="2.5" style="stroke:#181818;stroke-width:0.5;" width="86.9307" x="1207.5" y="612.1094"/><text fill="#000000" font-family="sans-serif" font-size="14" lengthAdjust="spacing" textLength="66.9307" x="1217.5" y="636.6426">vec3D.hpp</text></g><!--entity mat2d--><g class="entity" data-entity="mat2d" data-source-line="40" data-uid="ent0019" id="entity_mat2d"><rect fill="#F1F1F1" height="37.6094" rx="2.5" ry="2.5" style="stroke:#181818;stroke-width:0.5;" width="103.2549" x="1061.5" y="472.6094"/><text fill="#000000" font-family="sans-serif" font-size="14" lengthAdjust="spacing" textLength="83.2549" x="1071.5" y="497.1426">matrix2D.hpp</text></g><!--entity mat3d--><g class="entity" data-entity="mat3d" data-source-line="41" data-uid="ent0020" id="entity_mat3d"><rect fill="#F1F1F1" height="37.6094" rx="2.5" ry="2.5" style="stroke:#181818;stroke-width:0.5;" width="103.2549" x="1199.5" y="472.6094"/><text fill="#000000" font-family="sans-serif" font-size="14" lengthAdjust="spacing" textLength="83.2549" x="1209.5" y="497.1426">matrix3D.hpp</text></g><g class="entity" data-entity="GMN21" data-source-line="44" data-uid="ent0022" id="entity_GMN21"><path d="M1628,470.1094 L1628,487.6094 L1592.65,491.6094 L1628,495.6094 L1628,512.8125 A0,0 0 0 0 1628,512.8125 L1770.4053,512.8125 A0,0 0 0 0 1770.4053,512.8125 L1770.4053,480.1094 L1760.4053,470.1094 L1628,470.1094 A0,0 0 0 0 1628,470.1094" fill="#FEFFDD" style="stroke:#181818;stroke-width:0.5;"/><path d="M1760.4053,470.1094 L1760.4053,480.1094 L1770.4053,480.1094 L1760.4053,470.1094" fill="#FEFFDD" style="stroke:#181818;stroke-width:0.5;"/><text fill="#000000" font-family="sans-serif" font-size="13" lengthAdjust="spacing" textLength="121.4053" x="1634" y="488.6045">Vec2&lt;T&gt;, Vec2f/d/i/u</text><text fill="#000000" font-family="sans-serif" font-size="13" lengthAdjust="spacing" textLength="93.9199" x="1634" y="504.9561">POD verification</text></g><g class="entity" data-entity="GMN24" data-source-line="49" data-uid="ent0025" id="entity_GMN24"><path d="M1338,454.1094 L1338,487.6094 L1302.7,491.6094 L1338,495.6094 L1338,529.5156 A0,0 0 0 0 1338,529.5156 L1470.2744,529.5156 A0,0 0 0 0 1470.2744,529.5156 L1470.2744,464.1094 L1460.2744,454.1094 L1338,454.1094 A0,0 0 0 0 1338,454.1094" fill="#FEFFDD" style="stroke:#181818;stroke-width:0.5;"/><path d="M1460.2744,454.1094 L1460.2744,464.1094 L1470.2744,464.1094 L1460.2744,454.1094" fill="#FEFFDD" style="stroke:#181818;stroke-width:0.5;"/><text fill="#000000" font-family="sans-serif" font-size="13" lengthAdjust="spacing" textLength="111.2744" x="1344" y="472.6045">Mat3&lt;T&gt;, Mat4&lt;T&gt;</text><text fill="#000000" font-family="sans-serif" font-size="13" lengthAdjust="spacing" textLength="109.8208" x="1344" y="488.9561">3D transformations</text><text fill="#000000" font-family="sans-serif" font-size="13" lengthAdjust="spacing" textLength="108.0625" x="1344" y="505.3076">4&#215;4 homogeneous</text><text fill="#000000" font-family="sans-serif" font-size="13" lengthAdjust="spacing" textLength="106.1899" x="1344" y="521.6592">transform_vector()</text></g><!--entity cmake_root--><g class="entity" data-entity="cmake_root" data-source-line="57" data-uid="ent0028" id="entity_cmake_root"><rect fill="#F1F1F1" height="37.6094" rx="2.5" ry="2.5" style="stroke:#181818;stroke-width:0.5;" width="111.7998" x="1310" y="168.6094"/><text fill="#000000" font-family="sans-serif" font-size="14" lengthAdjust="spacing" textLength="91.7998" x="1320" y="193.1426">CMakeLists.txt</text></g><!--entity cmake_config--><g class="entity" data-entity="cmake_config" data-source-line="58" data-uid="ent0029" id="entity_cmake_config"><rect fill="#F1F1F1" height="37.6094" rx="2.5" ry="2.5" style="stroke:#181818;stroke-width:0.5;" width="219.1719" x="1256.5" y="307.1094"/><text fill="#000000" font-family="sans-serif" font-size="14" lengthAdjust="spacing" textLength="199.1719" x="1266.5" y="331.6426">cmake/matrixlib-config.cmake.in</text></g><!--entity zephyr_mod--><g class="entity" data-entity="zephyr_mod" data-source-line="61" data-uid="ent0031" id="entity_zephyr_mod"><rect fill="#F1F1F1" height="37.6094" rx="2.5" ry="2.5" style="stroke:#181818;stroke-width:0.5;" width="137.4893" x="1589.5" y="168.6094"/><text fill="#000000" font-family="sans-serif" font-size="14" lengthAdjust="spacing" textLength="117.4893" x="1599.5" y="193.1426">zephyr/module.yml</text></g><!--entity kconfig--><g class="entity" data-entity="kconfig" data-source-line="62" data-uid="ent0032" id="entity_kconfig"><rect fill="#F1F1F1" height="37.6094" rx="2.5" ry="2.5" style="stroke:#181818;stroke-width:0.5;" width="112.6064" x="1510.5" y="307.1094"/><text fill="#000000" font-family="sans-serif" font-size="14" lengthAdjust="spacing" textLength="92.6064" x="1520.5" y="331.6426">zephyr/Kconfig</text></g><!--entity zephyr_cmake--><g class="entity" data-entity="zephyr_cmake" data-source-line="63" data-uid="ent0033" id="entity_zephyr_cmake"><rect fill="#F1F1F1" height="37.6094" rx="2.5" ry="2.5" style="stroke:#181818;stroke-width:0.5;" width="157.71" x="1659" y="307.1094"/><text fill="#000000" font-family="sans-serif" font-size="14" lengthAdjust="spacing" textLength="137.71" x="1669" y="331.6426">zephyr/CMakeLists.txt</text></g><!--entity neon--><g class="entity" data-entity="neon" data-source-line="68" data-uid="ent0035" id="entity_neon"><ellipse cx="339" cy="923.1094" fill="#F1F1F1" rx="8" ry="8" style="stroke:#181818;stroke-width:0.5;"/><text fill="#000000" font-family="sans-serif" font-size="14" lengthAdjust="spacing" textLength="40.4482" x="281.4346" y="954.6426">NEON</text><text fill="#000000" font-family="sans-serif" font-size="14" lengthAdjust="spacing" textLength="115.1309" x="281.4346" y="972.252">(Cortex-A/ARM64)</text></g><!--entity cmsis--><g class="entity" data-entity="cmsis" data-source-line="69" data-uid="ent0036" id="entity_cmsis"><ellipse cx="55" cy="923.1094" fill="#F1F1F1" rx="8" ry="8" style="stroke:#181818;stroke-width:0.5;"/><text fill="#000000" font-family="sans-serif" font-size="14" lengthAdjust="spacing" textLength="77.7861" x="16.1069" y="954.6426">CMSIS-DSP</text><text fill="#000000" font-family="sans-serif" font-size="14" lengthAdjust="spacing" textLength="66.8828" x="16.1069" y="972.252">(Cortex-M)</text></g><g class="entity" data-entity="GMN37" data-source-line="72" data-uid="ent0038" id="entity_GMN37"><path d="M383,877.1094 L383,919.1094 L348.02,923.1094 L383,927.1094 L383,968.8672 A0,0 0 0 0 383,968.8672 L575.1963,968.8672 A0,0 0 0 0 575.1963,968.8672 L575.1963,887.1094 L565.1963,877.1094 L383,877.1094 A0,0 0 0 0 383,877.1094" fill="#FEFFDD" style="stroke:#181818;stroke-width:0.5;"/><path d="M565.1963,877.1094 L565.1963,887.1094 L575.1963,887.1094 L565.1963,877.1094" fill="#FEFFDD" style="stroke:#181818;stroke-width:0.5;"/><text fill="#000000" font-family="sans-serif" font-size="13" lengthAdjust="spacing" textLength="171.1963" x="389" y="895.6045">CONFIG_MATRIXLIB_NEON</text><text fill="#000000" font-family="sans-serif" font-size="13" lengthAdjust="spacing" textLength="3.6118" x="389" y="911.9561">&#160;</text><text fill="#000000" font-family="sans-serif" font-size="13" lengthAdjust="spacing" textLength="61.4009" x="389" y="928.3076">Optimizes:</text><text fill="#000000" font-family="sans-serif" font-size="13" lengthAdjust="spacing" textLength="106.2344" x="389" y="944.6592">- Vec&lt;float, 2/3/4&gt;</text><text fill="#000000" font-family="sans-serif" font-size="13" lengthAdjust="spacing" textLength="112.0171" x="389" y="961.0107">- Quaternion&lt;float&gt;</text></g><g class="entity" data-entity="GMN40" data-source-line="80" data-uid="ent0041" id="entity_GMN40"><path d="M99,869.1094 L99,919.1094 L64.15,923.1094 L99,927.1094 L99,977.2188 A0,0 0 0 0 99,977.2188 L294.8081,977.2188 A0,0 0 0 0 294.8081,977.2188 L294.8081,879.1094 L284.8081,869.1094 L99,869.1094 A0,0 0 0 0 99,869.1094" fill="#FEFFDD" style="stroke:#181818;stroke-width:0.5;"/><path d="M284.8081,869.1094 L284.8081,879.1094 L294.8081,879.1094 L284.8081,869.1094" fill="#FEFFDD" style="stroke:#181818;stroke-width:0.5;"/><text fill="#000000" font-family="sans-serif" font-size="13" lengthAdjust="spacing" textLength="174.8081" x="105" y="887.6045">CONFIG_MATRIXLIB_CMSIS</text><text fill="#000000" font-family="sans-serif" font-size="13" lengthAdjust="spacing" textLength="3.6118" x="105" y="903.9561">&#160;</text><text fill="#000000" font-family="sans-serif" font-size="13" lengthAdjust="spacing" textLength="61.4009" x="105" y="920.3076">Optimizes:</text><text fill="#000000" font-family="sans-serif" font-size="13" lengthAdjust="spacing" textLength="114.8926" x="105" y="936.6592">- All float operations</text><text fill="#000000" font-family="sans-serif" font-size="13" lengthAdjust="spacing" textLength="122.0845" x="105" y="953.0107">- Matrix multiplication</text><text fill="#000000" font-family="sans-serif" font-size="13" lengthAdjust="spacing" textLength="119.2344" x="105" y="969.3623">- Quaternion product</text></g><!--entity gtest--><g class="entity" data-entity="gtest" data-source-line="90" data-uid="ent0044" id="entity_gtest"><rect fill="#F1F1F1" height="37.6094" rx="2.5" ry="2.5" style="stroke:#181818;stroke-width:0.5;" width="99.3857" x="786.5" y="168.6094"/><text fill="#000000" font-family="sans-serif" font-size="14" lengthAdjust="spacing" textLength="79.3857" x="796.5" y="193.1426">tests/google/</text></g><!--entity ztest--><g class="entity" data-entity="ztest" data-source-line="91" data-uid="ent0045" id="entity_ztest"><rect fill="#F1F1F1" height="37.6094" rx="2.5" ry="2.5" style="stroke:#181818;stroke-width:0.5;" width="99.3652" x="1100.5" y="168.6094"/><text fill="#000000" font-family="sans-serif" font-size="14" lengthAdjust="spacing" textLength="79.3652" x="1110.5" y="193.1426">tests/zephyr/</text></g><g class="entity" data-entity="GMN46" data-source-line="94" data-uid="ent0047" id="entity_GMN46"><path d="M921,141.6094 L921,183.6094 L885.68,187.6094 L921,191.6094 L921,233.3672 A0,0 0 0 0 921,233.3672 L1064.8652,233.3672 A0,0 0 0 0 1064.8652,233.3672 L1064.8652,151.6094 L1054.8652,141.6094 L921,141.6094 A0,0 0 0 0 921,141.6094" fill="#FEFFDD" style="stroke:#181818;stroke-width:0.5;"/><path d="M1054.8652,141.6094 L1054.8652,151.6094 L1064.8652,151.6094 L1054.8652,141.6094" fill="#FEFFDD" style="stroke:#181818;stroke-width:0.5;"/><text fill="#000000" font-family="sans-serif" font-size="13" lengthAdjust="spacing" textLength="72.9854" x="927" y="160.1045">test_vec.cpp</text><text fill="#000000" font-family="sans-serif" font-size="13" lengthAdjust="spacing" textLength="74.4263" x="927" y="176.4561">test_mat.cpp</text><text fill="#000000" font-family="sans-serif" font-size="13" lengthAdjust="spacing" textLength="78.0571" x="927" y="192.8076">test_quat.cpp</text><text fill="#000000" font-family="sans-serif" font-size="13" lengthAdjust="spacing" textLength="108.3989" x="927" y="209.1592">test_constants.cpp</text><text fill="#000000" font-family="sans-serif" font-size="13" lengthAdjust="spacing" textLength="122.8652" x="927" y="225.5107">test_edge_cases.cpp</text></g><!--entity readme--><g class="entity" data-entity="readme" data-source-line="103" data-uid="ent0050" id="entity_readme"><rect fill="#F1F1F1" height="37.6094" rx="2.5" ry="2.5" style="stroke:#181818;stroke-width:0.5;" width="103.2344" x="124.5" y="168.6094"/><text fill="#000000" font-family="sans-serif" font-size="14" lengthAdjust="spacing" textLength="83.2344" x="134.5" y="193.1426">README.md</text></g><!--entity quickstart--><g class="entity" data-entity="quickstart" data-source-line="104" data-uid="ent0051" id="entity_quickstart"><rect fill="#F1F1F1" height="37.6094" rx="2.5" ry="2.5" style="stroke:#181818;stroke-width:0.5;" width="133.5654" x="263" y="168.6094"/><text fill="#000000" font-family="sans-serif" font-size="14" lengthAdjust="spacing" textLength="113.5654" x="273" y="193.1426">QUICKSTART.md</text></g><!--entity api_doc--><g class="entity" data-entity="api_doc" data-source-line="105" data-uid="ent0052" id="entity_api_doc"><rect fill="#F1F1F1" height="37.6094" rx="2.5" ry="2.5" style="stroke:#181818;stroke-width:0.5;" width="201.3164" x="432.5" y="168.6094"/><text fill="#000000" font-family="sans-serif" font-size="14" lengthAdjust="spacing" textLength="181.3164" x="442.5" y="193.1426">docs/API_Documentation.md</text></g><!--entity cpp_doc--><g class="entity" data-entity="cpp_doc" data-source-line="106" data-uid="ent0053" id="entity_cpp_doc"><rect fill="#F1F1F1" height="37.6094" rx="2.5" ry="2.5" style="stroke:#181818;stroke-width:0.5;" width="259.6816" x="46" y="307.1094"/><text fill="#000000" font-family="sans-serif" font-size="14" lengthAdjust="spacing" textLength="239.6816" x="56" y="331.6426">docs/Cpp_Standard_Optimizations.md</text></g><!--entity iar_doc--><g class="entity" data-entity="iar_doc" data-source-line="107" data-uid="ent0054" id="entity_iar_doc"><rect fill="#F1F1F1" height="37.6094" rx="2.5" ry="2.5" style="stroke:#181818;stroke-width:0.5;" width="174.082" x="341" y="307.1094"/><text fill="#000000" font-family="sans-serif" font-size="14" lengthAdjust="spacing" textLength="154.082" x="351" y="331.6426">docs/IAR_Integration.md</text></g><!--entity sanitizer_doc--><g class="entity" data-entity="sanitizer_doc" data-source-line="108" data-uid="ent0055" id="entity_sanitizer_doc"><rect fill="#F1F1F1" height="37.6094" rx="2.5" ry="2.5" style="stroke:#181818;stroke-width:0.5;" width="178.7441" x="550.5" y="307.1094"/><text fill="#000000" font-family="sans-serif" font-size="14" lengthAdjust="spacing" textLength="158.7441" x="560.5" y="331.6426">docs/Sanitizer_Safety.md</text></g><!--link main to constants--><g class="link" data-entity-1="main" data-entity-2="constants" data-source-line="113" data-uid="lnk56" id="link_main_constants"><path d="M1006.39,345.2894 C1018.47,361.2494 1038.42,383.3894 1062,393.1094 C1079.85,400.4694 1737.77,399.3794 1757,401.1094 C1780.8,403.2494 1791.35,395.1794 1810,410.1094 C1840.19,434.2694 1843,451.9394 1843,490.6094 C1843,490.6094 1843,490.6094 1843,733.1094 C1843,848.5094 905.9,747.6394 807,807.1094 C770.46,829.0794 751.5487,871.7947 742.4587,898.2647" fill="none" id="main-to-constants" style="stroke:#181818;stroke-width:1;"/><polygon fill="#181818" points="740.51,903.9394,747.2163,896.7265,742.134,899.2104,739.65,894.1281,740.51,903.9394" style="stroke:#181818;stroke-width:1;"/></g><!--link main to vector--><g class="link" data-entity-1="main" data-entity-2="vector" data-source-line="114" data-uid="lnk57" id="link_main_vector"><path d="M1001.85,345.4594 C1024.24,400.9694 1082.28,569.7294 1009,674.1094 C979.68,715.8794 948.83,695.3194 901,713.1094 C899.53,713.6594 903.648,712.1126 902.128,712.6826" fill="none" id="main-to-vector" style="stroke:#181818;stroke-width:1;"/><polygon fill="#181818" points="896.51,714.7894,906.3415,715.3746,901.1916,713.0338,903.5325,707.8839,896.51,714.7894" style="stroke:#181818;stroke-width:1;"/></g><!--link main to vec2d--><g class="link" data-entity-1="main" data-entity-2="vec2d" data-source-line="115" data-uid="lnk58" id="link_main_vec2d"><path d="M1006.46,345.1294 C1018.58,360.9794 1038.56,383.0594 1062,393.1094 C1105.54,411.7794 1446.01,388.1894 1488,410.1094 C1513.65,423.4994 1528.9213,447.6857 1538.4313,467.0157" fill="none" id="main-to-vec2d" style="stroke:#181818;stroke-width:1;"/><polygon fill="#181818" points="1541.08,472.3994,1540.6961,462.558,1538.8728,467.9129,1533.5178,466.0896,1541.08,472.3994" style="stroke:#181818;stroke-width:1;"/></g><!--link main to vec3d--><g class="link" data-entity-1="main" data-entity-2="vec3d" data-source-line="116" data-uid="lnk59" id="link_main_vec3d"><path d="M1006.42,345.2294 C1018.51,361.1494 1038.47,383.2794 1062,393.1094 C1099.22,408.6694 1759.84,381.2194 1788,410.1094 C1824.92,447.9794 1823.88,490.2494 1788,529.1094 C1714.04,609.1994 1394.89,516.2494 1299,568.1094 C1281.04,577.8194 1270.539,592.1807 1262.529,606.7607" fill="none" id="main-to-vec3d" style="stroke:#181818;stroke-width:1;"/><polygon fill="#181818" points="1259.64,612.0194,1267.4793,606.0574,1262.0475,607.6372,1260.4678,602.2054,1259.64,612.0194" style="stroke:#181818;stroke-width:1;"/></g><!--link main to matrix--><g class="link" data-entity-1="main" data-entity-2="matrix" data-source-line="117" data-uid="lnk60" id="link_main_matrix"><path d="M982.5,345.1594 C948.26,398.9194 850.3835,552.5788 815.9035,606.7088" fill="none" id="main-to-matrix" style="stroke:#181818;stroke-width:1;"/><polygon fill="#181818" points="812.68,611.7694,820.8889,606.3276,815.3662,607.5523,814.1415,602.0296,812.68,611.7694" style="stroke:#181818;stroke-width:1;"/></g><!--link main to mat2d--><g class="link" data-entity-1="main" data-entity-2="mat2d" data-source-line="118" data-uid="lnk61" id="link_main_mat2d"><path d="M1008.54,345.3394 C1021.72,362.0094 1041.53,387.4394 1058,410.1094 C1073.32,431.1994 1086.7853,451.0547 1097.7353,467.5047" fill="none" id="main-to-mat2d" style="stroke:#181818;stroke-width:1;"/><polygon fill="#181818" points="1101.06,472.4994,1099.4027,462.791,1098.2894,468.3372,1092.7432,467.2239,1101.06,472.4994" style="stroke:#181818;stroke-width:1;"/></g><!--link main to mat3d--><g class="link" data-entity-1="main" data-entity-2="mat3d" data-source-line="119" data-uid="lnk62" id="link_main_mat3d"><path d="M1007.19,345.1894 C1019.52,360.6194 1039.4,382.0294 1062,393.1094 C1110.37,416.8094 1134.77,384.2194 1182,410.1094 C1208.47,424.6194 1226.2082,448.4616 1237.7982,467.4016" fill="none" id="main-to-mat3d" style="stroke:#181818;stroke-width:1;"/><polygon fill="#181818" points="1240.93,472.5194,1239.6442,462.7548,1238.3202,468.2545,1232.8205,466.9305,1240.93,472.5194" style="stroke:#181818;stroke-width:1;"/></g><!--link main to quaternion--><g class="link" data-entity-1="main" data-entity-2="quaternion" data-source-line="120" data-uid="lnk63" id="link_main_quaternion"><path d="M990.49,345.1594 C980.02,398.9194 950.2568,551.75 939.7168,605.88" fill="none" id="main-to-quaternion" style="stroke:#181818;stroke-width:1;"/><polygon fill="#181818" points="938.57,611.7694,944.2164,603.6998,939.5256,606.8615,936.3639,602.1708,938.57,611.7694" style="stroke:#181818;stroke-width:1;"/></g><!--link main to version--><g class="link" data-entity-1="main" data-entity-2="version" data-source-line="121" data-uid="lnk64" id="link_main_version"><path d="M956.84,345.1694 C927.91,360.2394 887.66,383.4894 857,410.1094 C782.84,474.4894 718.5128,566.7102 692.0728,606.8102" fill="none" id="main-to-version" style="stroke:#181818;stroke-width:1;"/><polygon fill="#181818" points="688.77,611.8194,697.0636,606.5075,691.5223,607.6451,690.3848,602.1038,688.77,611.8194" style="stroke:#181818;stroke-width:1;"/></g><!--link vector to constants--><g class="link" data-entity-1="vector" data-entity-2="constants" data-source-line="123" data-uid="lnk65" id="link_vector_constants"><path d="M811.44,750.3594 C797.41,757.9194 782.89,768.0894 773,781.1094 C744.79,818.2594 737.8876,868.8619 736.0176,897.7519" fill="none" id="vector-to-constants" style="stroke:#181818;stroke-width:1;"/><polygon fill="#181818" points="735.63,903.7394,740.203,895.0165,735.953,898.7498,732.2197,894.4998,735.63,903.7394" style="stroke:#181818;stroke-width:1;"/></g><!--link matrix to vector--><g class="link" data-entity-1="matrix" data-entity-2="vector" data-source-line="124" data-uid="lnk66" id="link_matrix_vector"><path d="M810.72,650.2694 C820.28,668.1294 831.9694,689.949 841.5094,707.779" fill="none" id="matrix-to-vector" style="stroke:#181818;stroke-width:1;"/><polygon fill="#181818" points="844.34,713.0694,843.621,703.2468,841.9812,708.6608,836.5672,707.0209,844.34,713.0694" style="stroke:#181818;stroke-width:1;"/></g><!--link mat2d to matrix--><g class="link" data-entity-1="mat2d" data-entity-2="matrix" data-source-line="125" data-uid="lnk67" id="link_mat2d_matrix"><path d="M1090.05,510.7494 C1080.59,517.4294 1069.23,524.4794 1058,529.1094 C1057.36,529.3794 861.61,567.7794 861,568.1094 C841.53,578.7094 828.1713,593.0183 817.2813,607.2183" fill="none" id="mat2d-to-matrix" style="stroke:#181818;stroke-width:1;"/><polygon fill="#181818" points="813.63,611.9794,822.281,607.2719,816.6727,608.0118,815.9329,602.4035,813.63,611.9794" style="stroke:#181818;stroke-width:1;"/></g><!--link mat3d to matrix--><g class="link" data-entity-1="mat3d" data-entity-2="matrix" data-source-line="126" data-uid="lnk68" id="link_mat3d_matrix"><path d="M1222.48,510.7094 C1210.43,517.5494 1195.97,524.7294 1182,529.1094 C1173.43,531.7994 869.04,564.1094 861,568.1094 C841.01,578.0494 827.5519,592.6058 816.7919,607.0658" fill="none" id="mat3d-to-matrix" style="stroke:#181818;stroke-width:1;"/><polygon fill="#181818" points="813.21,611.8794,821.7918,607.047,816.1949,607.8681,815.3738,602.2711,813.21,611.8794" style="stroke:#181818;stroke-width:1;"/></g><!--link mat3d to vec3d--><g class="link" data-entity-1="mat3d" data-entity-2="vec3d" data-source-line="127" data-uid="lnk69" id="link_mat3d_vec3d"><path d="M1251,510.8694 C1251,537.1694 1251,579.4294 1251,605.7794" fill="none" id="mat3d-to-vec3d" style="stroke:#181818;stroke-width:1;"/><polygon fill="#181818" points="1251,611.7794,1255,602.7794,1251,606.7794,1247,602.7794,1251,611.7794" style="stroke:#181818;stroke-width:1;"/></g><!--link quaternion to vector--><g class="link" data-entity-1="quaternion" data-entity-2="vector" data-source-line="128" data-uid="lnk70" id="link_quaternion_vector"><path d="M909.43,650.2794 C898.45,658.9994 886.08,670.1394 877,682.1094 C869.96,691.3894 866.5901,697.6173 862.6701,707.3073" fill="none" id="quaternion-to-vector" style="stroke:#181818;stroke-width:1;"/><polygon fill="#181818" points="860.42,712.8694,867.5032,706.0263,862.2951,708.2343,860.0871,703.0261,860.42,712.8694" style="stroke:#181818;stroke-width:1;"/></g><!--link quaternion to mat3d--><g class="link" data-entity-1="quaternion" data-entity-2="mat3d" data-source-line="129" data-uid="lnk71" id="link_quaternion_mat3d"><path d="M963.01,611.8694 C984.7,598.3594 1015.87,580.2694 1045,568.1094 C1103.43,543.7294 1123.25,552.7094 1182,529.1094 C1194.83,523.9594 1203.1235,519.9941 1214.7935,513.6241" fill="none" id="quaternion-to-mat3d" style="stroke:#181818;stroke-width:1;"/><polygon fill="#181818" points="1220.06,510.7494,1210.2438,511.5504,1215.6712,513.145,1214.0767,518.5724,1220.06,510.7494" style="stroke:#181818;stroke-width:1;"/></g><!--link vec2d to vector--><g class="link" data-entity-1="vec2d" data-entity-2="vector" data-source-line="131" data-uid="lnk72" id="link_vec2d_vector"><path d="M1524.42,510.7994 C1513.76,517.7394 1500.8,524.9694 1488,529.1094 C1414.78,552.7994 1197.25,504.5194 1143,559.1094 C1123.51,578.7194 1152.07,663.0994 1133,683.1094 C1097.14,720.7394 951.4,700.3894 901,713.1094 C899.56,713.4694 903.8662,712.2106 902.4062,712.6306" fill="none" id="vec2d-to-vector" style="stroke:#181818;stroke-width:1;"/><polygon fill="#181818" points="896.64,714.2894,906.3951,715.6453,901.4451,712.9071,904.1834,707.9571,896.64,714.2894" style="stroke:#181818;stroke-width:1;"/></g><!--link vec3d to vector--><g class="link" data-entity-1="vec3d" data-entity-2="vector" data-source-line="132" data-uid="lnk73" id="link_vec3d_vector"><path d="M1220.7,650.3394 C1200.52,661.6194 1173.03,675.3794 1147,683.1094 C1041.41,714.4594 1007.89,686.5494 901,713.1094 C899.56,713.4694 903.8765,712.2372 902.4165,712.6472" fill="none" id="vec3d-to-vector" style="stroke:#181818;stroke-width:1;"/><polygon fill="#181818" points="896.64,714.2694,906.3863,715.6871,901.4538,712.9176,904.2234,707.9851,896.64,714.2694" style="stroke:#181818;stroke-width:1;"/></g><!--link vector to neon--><g class="link" data-entity-1="vector" data-entity-2="neon" data-source-line="134" data-uid="lnk74" id="link_vector_neon"><path d="M811.2,746.4894 C758.56,762.2694 666.2,787.7894 585,799.1094 C572.89,800.7994 374.41,799.2994 365,807.1094 C332.39,834.1594 334.8544,886.6864 337.2444,908.0964" fill="none" id="vector-to-neon" style="stroke:#181818;stroke-width:1;stroke-dasharray:7,7;"/><polygon fill="#181818" points="337.91,914.0594,340.8868,904.6712,337.3553,909.0902,332.9362,905.5587,337.91,914.0594" style="stroke:#181818;stroke-width:1;"/><text fill="#000000" font-family="sans-serif" font-size="13" lengthAdjust="spacing" textLength="45.5381" x="676" y="795.6045">optional</text></g><!--link vector to cmsis--><g class="link" data-entity-1="vector" data-entity-2="cmsis" data-source-line="135" data-uid="lnk75" id="link_vector_cmsis"><path d="M811.38,738.8494 C714.16,751.7294 468.46,783.0594 262,799.1094 C251.96,799.8894 88.72,800.6494 81,807.1094 C48.49,834.2894 50.9014,886.7356 53.2614,908.1056" fill="none" id="vector-to-cmsis" style="stroke:#181818;stroke-width:1;stroke-dasharray:7,7;"/><polygon fill="#181818" points="53.92,914.0694,56.9079,904.6847,53.3712,909.0996,48.9563,905.5628,53.92,914.0694" style="stroke:#181818;stroke-width:1;"/><text fill="#000000" font-family="sans-serif" font-size="13" lengthAdjust="spacing" textLength="45.5381" x="443" y="795.6045">optional</text></g><!--link matrix to cmsis--><g class="link" data-entity-1="matrix" data-entity-2="cmsis" data-source-line="136" data-uid="lnk76" id="link_matrix_cmsis"><path d="M781.18,650.2194 C769.97,659.2494 755.19,669.2494 740,674.1094 C687.5,690.8994 298.12,671.6594 244,682.1094 C206.15,689.4194 194.61,691.0394 163,713.1094 C117.54,744.8494 106.1,757.6794 81,807.1094 C62.28,843.9794 57.347,888.2753 55.917,907.8553" fill="none" id="matrix-to-cmsis" style="stroke:#181818;stroke-width:1;stroke-dasharray:7,7;"/><polygon fill="#181818" points="55.48,913.8394,60.1249,905.1546,55.8442,908.8527,52.1462,904.5719,55.48,913.8394" style="stroke:#181818;stroke-width:1;"/><text fill="#000000" font-family="sans-serif" font-size="13" lengthAdjust="spacing" textLength="45.5381" x="164" y="737.6045">optional</text></g><!--link quaternion to neon--><g class="link" data-entity-1="quaternion" data-entity-2="neon" data-source-line="137" data-uid="lnk77" id="link_quaternion_neon"><path d="M907.5,650.2994 C893.96,658.5694 877.12,667.8694 861,674.1094 C659.58,752.0294 571.65,669.0994 387,781.1094 C339.91,809.6794 337.7931,882.3214 338.4631,907.9314" fill="none" id="quaternion-to-neon" style="stroke:#181818;stroke-width:1;stroke-dasharray:7,7;"/><polygon fill="#181818" points="338.62,913.9294,342.3833,904.8278,338.4892,908.9311,334.386,905.0371,338.62,913.9294" style="stroke:#181818;stroke-width:1;"/><text fill="#000000" font-family="sans-serif" font-size="13" lengthAdjust="spacing" textLength="45.5381" x="662" y="737.6045">optional</text></g><!--link quaternion to cmsis--><g class="link" data-entity-1="quaternion" data-entity-2="cmsis" data-source-line="138" data-uid="lnk78" id="link_quaternion_cmsis"><path d="M909.55,650.2094 C895.83,658.9994 878.22,668.7894 861,674.1094 C760.86,705.0294 493.94,693.4594 391,713.1094 C382.16,714.7994 87.13,800.5194 81,807.1094 C52.42,837.8294 52.5543,887.1018 53.8943,907.9018" fill="none" id="quaternion-to-cmsis" style="stroke:#181818;stroke-width:1;stroke-dasharray:7,7;"/><polygon fill="#181818" points="54.28,913.8894,57.6931,904.6508,53.9586,908.8997,49.7097,905.1652,54.28,913.8894" style="stroke:#181818;stroke-width:1;"/><text fill="#000000" font-family="sans-serif" font-size="13" lengthAdjust="spacing" textLength="45.5381" x="392" y="737.6045">optional</text></g><!--link cmake_root to cmake_config--><g class="link" data-entity-1="cmake_root" data-entity-2="cmake_config" data-source-line="140" data-uid="lnk79" id="link_cmake_root_cmake_config"><path d="M1366,206.7394 C1366,232.8394 1366,274.7594 1366,300.9094" fill="none" id="cmake_root-to-cmake_config" style="stroke:#181818;stroke-width:1;"/><polygon fill="#181818" points="1366,306.9094,1370,297.9094,1366,301.9094,1362,297.9094,1366,306.9094" style="stroke:#181818;stroke-width:1;"/></g><!--link zephyr_mod to kconfig--><g class="link" data-entity-1="zephyr_mod" data-entity-2="kconfig" data-source-line="141" data-uid="lnk80" id="link_zephyr_mod_kconfig"><path d="M1645.92,206.7394 C1628.51,232.8394 1599.8991,275.7677 1582.4591,301.9177" fill="none" id="zephyr_mod-to-kconfig" style="stroke:#181818;stroke-width:1;"/><polygon fill="#181818" points="1579.13,306.9094,1587.4514,301.6412,1581.9042,302.7496,1580.7958,297.2024,1579.13,306.9094" style="stroke:#181818;stroke-width:1;"/></g><!--link zephyr_mod to zephyr_cmake--><g class="link" data-entity-1="zephyr_mod" data-entity-2="zephyr_cmake" data-source-line="142" data-uid="lnk81" id="link_zephyr_mod_zephyr_cmake"><path d="M1668.62,206.7394 C1683.92,232.8394 1708.9771,275.5824 1724.2971,301.7324" fill="none" id="zephyr_mod-to-zephyr_cmake" style="stroke:#181818;stroke-width:1;"/><polygon fill="#181818" points="1727.33,306.9094,1726.2319,297.1219,1724.8025,302.5952,1719.3293,301.1659,1727.33,306.9094" style="stroke:#181818;stroke-width:1;"/></g><!--link gtest to main--><g class="link" data-entity-1="gtest" data-entity-2="main" data-source-line="144" data-uid="lnk82" id="link_gtest_main"><path d="M852.36,206.6394 C865.72,221.0094 885.38,241.3394 904,257.6094 C924.44,275.4694 944.3277,290.3658 962.7077,303.4158" fill="none" id="gtest-to-main" style="stroke:#181818;stroke-width:1;"/><polygon fill="#181818" points="967.6,306.8894,962.5773,298.4175,963.5231,303.9947,957.9459,304.9405,967.6,306.8894" style="stroke:#181818;stroke-width:1;"/></g><!--link ztest to main--><g class="link" data-entity-1="ztest" data-entity-2="main" data-source-line="145" data-uid="lnk83" id="link_ztest_main"><path d="M1133.9,206.6394 C1120.74,221.0094 1101.38,241.3394 1083,257.6094 C1062.81,275.4694 1043.1842,290.3405 1025.0042,303.3905" fill="none" id="ztest-to-main" style="stroke:#181818;stroke-width:1;"/><polygon fill="#181818" points="1020.13,306.8894,1029.7739,304.8906,1024.1919,303.9737,1025.1088,298.3916,1020.13,306.8894" style="stroke:#181818;stroke-width:1;"/></g><!--SRC=[ZLPTRkCs47xNAOZq8Rk1RG5si0-Bm81ZPrjZepXhkKNHj10OYPO8IwH2KjiuHSxH0_LY7L5_fAmiuW21EDyCvt-6vyZ3Ij3dM_g8bZpBEIDCkHwFYfIWXGWJgaYe2a6SS-Gd_6-9L49GLk9Oe8JWY0WabIWq4y8iGX792Oi82ocHZgEeWfiw9VNLVYFYEF90MOu5pb3O6E2h8_08q8nPd1A3vH67XrZmWaLBddA1VlfoK_uvJWu0ZWawoxIgb3wUeNyS1y7leILDaZp_2s69CaoPnXXNe8Z6YK9ytv7BtyM51qVqY_RnugAbBpdxJXW51mcYB4oBYBJO7ap2QTfv8ZK4yT2QAdjQKvSSGjP6NPO6DnSzX9n9y5x9rkQMqZ5zXmXnqN9Knmwk_3QSBeyT_5HWHGIZdBKi7SbK8gJ9Kv-TbiEEuQcPLJ1z84Ou1LUDM9Q_Ezuh6HE4maa864v3d7PNVxPunYYd8qH6I3u9DOKl5Kvw31690yK3WQCHWd_bDv1wJFV9KTfwMeOsWUNXjPV6tJ67NaafbiJE8UHZkZApCuqiS6Q1iwYVEKCO2DCJV6RX8Fz6IcpDvUyte5pjvYFziNSZbxg5nN2_MPM9fdi8Y3BBmIxbeHPIiwYVmfdM1H-Ny661inLI0ZC9ZPDfHNRPNFxtxoLAUCPZmWWlRB0L3Ah2__3nVVcwBcWQ8Vye5SciV2qzV22tL4BJgMTLDLq6f41mhepMB6bkErJ6K2vx6ayqUKAP8LSXNQXQ4_uWUN8KQBlR-AO5-leNZRbwnfB9CKlrXHKr0EeWzzTAbMOzr6g7-0PSh6_M5hSohuEHyzVU2bt32U8BfNvrnVCoPpYTpmqlA8CPiiSm7i_kRZPtVx8FCEWKUHultCNM-tJvyQnK2_baGo9Bpr_xuvL_tybvbKIOIIhVgZlhEZscDtTVrZy7tcAtNVz-kxuEIbliuR81wpFwGaxc2NJ5rJxbM8tGr9svb_CU_gqTanNR_DtjKVdmGpjr0Dvfw09sZRO0yPo8WGOQrwiNPKMgQ9xssxdl3ye5r5setZdvY5IKnLOJAQ19D-OS5hUh2omkINs6kXwh2jGCRqJCbjPz3uIovITXdfy2q9V3GBdRXf5krmx298gXbSlfRk4_ZCoAXqK6Irr7suhFzcQnycucMQHT5_2woBgsU_ZswthvrTyjjhk6uwcWuG7C4qO88nvATt6_3YmrZGJEQG0SFVPbdWVL3XPHK1TKLJ2D73Wt8BTUR8Crj6SiB2KKYm5c7pEge515uECzKSU6MxRqHkRLWP2TevMv-Sld5ngFvyO2RadrsyOymqupZpFZM3zrpFFKXarkuzLZN5Y_SYh59sRffh8C0mssRj0nJAYCxRIQz_IezLxNtffi-WgJqDWvcSprB4IVKJESJKZF7nEhFHd435k6hkt19-9Ejpohy9axiTjd6ZiCawtTvEXHK8S57kelzl5_]--></g></svg>