<svg xmlns="http://www.w3.org/2000/svg" xmlns:xlink="http://www.w3.org/1999/xlink" contentStyleType="text/css" data-diagram-type="CLASS" height="1407px" preserveAspectRatio="none" style="width:1503px;height:1407px;background:#FEFEFE;" version="1.1" viewBox="0 0 1503 1407" width="1503px" zoomAndPan="magnify"><title>MatrixLib Class Hierarchy</title><defs/><g><rect fill="#FEFEFE" height="1407" style="stroke:none;stroke-width:1;" width="1503" x="0" y="0"/><g class="title" data-source-line="5"><text fill="#000000" font-family="sans-serif" font-size="14" font-weight="bold" lengthAdjust="spacing" textLength="171.958" x="658.6423" y="24.5332">MatrixLib Class Hierarchy</text></g><!--cluster matrixlib--><g class="cluster" data-entity="matrixlib" data-source-line="11" data-uid="ent0002" id="cluster_matrixlib"><rect fill="none" height="1356" rx="2.5" ry="2.5" style="stroke:#000000;stroke-width:1.5;" width="1126" x="7" y="45.6094"/><text fill="#000000" font-family="sans-serif" font-size="14" font-weight="bold" lengthAdjust="spacing" textLength="58.3516" x="540.8242" y="62.1426">matrixlib</text></g><!--class Vec--><g class="entity" data-entity="Vec" data-source-line="13" data-uid="ent0003" id="entity_Vec"><rect fill="#F1F1F1" height="347.3594" rx="2.5" ry="2.5" style="stroke:#181818;stroke-width:0.5;" width="233.416" x="883.5" y="1038.6094"/><ellipse cx="970.564" cy="1054.6094" fill="#ADD1B2" rx="11" ry="11" style="stroke:#181818;stroke-width:1;"/><path d="M973.3296,1050.4844 Q973.4858,1050.2656 973.6733,1050.1563 Q973.8608,1050.0469 974.0796,1050.0469 Q974.4546,1050.0469 974.689,1050.3125 Q974.9233,1050.5625 974.9233,1051.1719 L974.9233,1052.625 Q974.9233,1053.2344 974.689,1053.5 Q974.4546,1053.7656 974.0796,1053.7656 Q973.7358,1053.7656 973.5327,1053.5625 Q973.3296,1053.375 973.2202,1052.8594 Q973.1733,1052.5 972.9858,1052.3125 Q972.6577,1051.9375 972.0483,1051.7188 Q971.439,1051.5 970.814,1051.5 Q970.0483,1051.5 969.4077,1051.8281 Q968.7827,1052.1563 968.2827,1052.9063 Q967.7983,1053.6563 967.7983,1054.6875 L967.7983,1055.7813 Q967.7983,1057.0156 968.689,1057.8438 Q969.5796,1058.6563 971.1733,1058.6563 Q972.1108,1058.6563 972.7671,1058.4063 Q973.1577,1058.25 973.5796,1057.8125 Q973.8452,1057.5469 973.9858,1057.4688 Q974.1421,1057.3906 974.3452,1057.3906 Q974.6733,1057.3906 974.9233,1057.6563 Q975.189,1057.9063 975.189,1058.25 Q975.189,1058.5938 974.8452,1059 Q974.3452,1059.5781 973.5483,1059.9063 Q972.4702,1060.3594 971.1733,1060.3594 Q969.6577,1060.3594 968.4546,1059.7344 Q967.4702,1059.2344 966.7827,1058.1719 Q966.0952,1057.0938 966.0952,1055.8125 L966.0952,1054.6563 Q966.0952,1053.3281 966.7046,1052.1875 Q967.3296,1051.0313 968.4233,1050.4219 Q969.5171,1049.7969 970.7515,1049.7969 Q971.4858,1049.7969 972.1265,1049.9688 Q972.7827,1050.125 973.3296,1050.4844 Z " fill="#000000"/><text fill="#000000" font-family="sans-serif" font-size="14" lengthAdjust="spacing" textLength="24.124" x="991.064" y="1060.3379">Vec</text><rect fill="#FFFFFF" height="17.0938" style="stroke:#181818;stroke-width:1;stroke-dasharray:2,2;" width="24.6641" x="1095.252" y="1035.6094"/><text fill="#000000" font-family="sans-serif" font-size="12" font-style="italic" lengthAdjust="spacing" textLength="22.6641" x="1096.252" y="1049.0664">T, N</text><line style="stroke:#181818;stroke-width:0.5;" x1="884.5" x2="1115.916" y1="1070.6094" y2="1070.6094"/><text fill="#000000" font-family="sans-serif" font-size="14" lengthAdjust="spacing" textLength="184.0645" x="889.5" y="1089.1426">+enum {X=0, Y=1, Z=2, W=3}</text><text fill="#000000" font-family="sans-serif" font-size="14" lengthAdjust="spacing" textLength="138.9063" x="889.5" y="1106.752">+alignas(16) T data[N]</text><line style="stroke:#181818;stroke-width:1;" x1="884.5" x2="1115.916" y1="1113.8281" y2="1113.8281"/><text fill="#000000" font-family="sans-serif" font-size="14" lengthAdjust="spacing" textLength="41.624" x="889.5" y="1132.3613">+Vec()</text><text fill="#000000" font-family="sans-serif" font-size="14" lengthAdjust="spacing" textLength="61.8447" x="889.5" y="1149.9707">+Vec(T...)</text><text fill="#000000" font-family="sans-serif" font-size="14" lengthAdjust="spacing" textLength="149.0234" x="889.5" y="1167.5801">+T&amp; operator[](uint32_t)</text><text fill="#000000" font-family="sans-serif" font-size="14" lengthAdjust="spacing" text-decoration="underline" textLength="147.4443" x="889.5" y="1185.1895">+constexpr size_t size()</text><text fill="#000000" font-family="sans-serif" font-size="14" lengthAdjust="spacing" textLength="129.958" x="889.5" y="1202.7988">+Vec operator+(Vec)</text><text fill="#000000" font-family="sans-serif" font-size="14" lengthAdjust="spacing" textLength="126.4443" x="889.5" y="1220.4082">+Vec operator-(Vec)</text><text fill="#000000" font-family="sans-serif" font-size="14" lengthAdjust="spacing" textLength="111.6582" x="889.5" y="1238.0176">+Vec operator*(T)</text><text fill="#000000" font-family="sans-serif" font-size="14" lengthAdjust="spacing" textLength="73.5273" x="889.5" y="1255.627">+T dot(Vec)</text><text fill="#000000" font-family="sans-serif" font-size="14" lengthAdjust="spacing" textLength="103.0859" x="889.5" y="1273.2363">+Vec cross(Vec)</text><text fill="#000000" font-family="sans-serif" font-size="14" lengthAdjust="spacing" textLength="95.3203" x="889.5" y="1290.8457">+T magnitude()</text><text fill="#000000" font-family="sans-serif" font-size="14" lengthAdjust="spacing" textLength="113.9893" x="889.5" y="1308.4551">+Vec normalized()</text><text fill="#000000" font-family="sans-serif" font-size="14" lengthAdjust="spacing" textLength="205.0439" x="889.5" y="1326.0645">+Vec safe_normalized(T epsilon)</text><text fill="#000000" font-family="sans-serif" font-size="14" lengthAdjust="spacing" textLength="112.3623" x="889.5" y="1343.6738">+T x(), y(), z(), w()</text><text fill="#000000" font-family="sans-serif" font-size="14" lengthAdjust="spacing" textLength="109.3135" x="889.5" y="1361.2832">+Vec lerp(Vec, T)</text><text fill="#000000" font-family="sans-serif" font-size="14" lengthAdjust="spacing" textLength="221.416" x="889.5" y="1378.8926">+bool approx_equal(Vec, T epsilon)</text></g><!--class Mat--><g class="entity" data-entity="Mat" data-source-line="34" data-uid="ent0004" id="entity_Mat"><rect fill="#F1F1F1" height="329.75" rx="2.5" ry="2.5" style="stroke:#181818;stroke-width:0.5;" width="232.6299" x="423.5" y="81.6094"/><ellipse cx="502.897" cy="97.6094" fill="#ADD1B2" rx="11" ry="11" style="stroke:#181818;stroke-width:1;"/><path d="M505.6626,93.4844 Q505.8188,93.2656 506.0063,93.1563 Q506.1938,93.0469 506.4126,93.0469 Q506.7876,93.0469 507.022,93.3125 Q507.2563,93.5625 507.2563,94.1719 L507.2563,95.625 Q507.2563,96.2344 507.022,96.5 Q506.7876,96.7656 506.4126,96.7656 Q506.0688,96.7656 505.8657,96.5625 Q505.6626,96.375 505.5532,95.8594 Q505.5063,95.5 505.3188,95.3125 Q504.9907,94.9375 504.3813,94.7188 Q503.772,94.5 503.147,94.5 Q502.3813,94.5 501.7407,94.8281 Q501.1157,95.1563 500.6157,95.9063 Q500.1313,96.6563 500.1313,97.6875 L500.1313,98.7813 Q500.1313,100.0156 501.022,100.8438 Q501.9126,101.6563 503.5063,101.6563 Q504.4438,101.6563 505.1001,101.4063 Q505.4907,101.25 505.9126,100.8125 Q506.1782,100.5469 506.3188,100.4688 Q506.4751,100.3906 506.6782,100.3906 Q507.0063,100.3906 507.2563,100.6563 Q507.522,100.9063 507.522,101.25 Q507.522,101.5938 507.1782,102 Q506.6782,102.5781 505.8813,102.9063 Q504.8032,103.3594 503.5063,103.3594 Q501.9907,103.3594 500.7876,102.7344 Q499.8032,102.2344 499.1157,101.1719 Q498.4282,100.0938 498.4282,98.8125 L498.4282,97.6563 Q498.4282,96.3281 499.0376,95.1875 Q499.6626,94.0313 500.7563,93.4219 Q501.8501,92.7969 503.0845,92.7969 Q503.8188,92.7969 504.4595,92.9688 Q505.1157,93.125 505.6626,93.4844 Z " fill="#000000"/><text fill="#000000" font-family="sans-serif" font-size="14" lengthAdjust="spacing" textLength="23.3379" x="523.397" y="103.3379">Mat</text><rect fill="#FFFFFF" height="17.0938" style="stroke:#181818;stroke-width:1;stroke-dasharray:2,2;" width="39.998" x="619.1318" y="78.6094"/><text fill="#000000" font-family="sans-serif" font-size="12" font-style="italic" lengthAdjust="spacing" textLength="37.998" x="620.1318" y="92.0664">T, R, C</text><line style="stroke:#181818;stroke-width:0.5;" x1="424.5" x2="655.1299" y1="113.6094" y2="113.6094"/><text fill="#000000" font-family="sans-serif" font-size="14" lengthAdjust="spacing" textLength="162.2441" x="429.5" y="132.1426">+alignas(16) T data[R * C]</text><line style="stroke:#181818;stroke-width:1;" x1="424.5" x2="655.1299" y1="139.2188" y2="139.2188"/><text fill="#000000" font-family="sans-serif" font-size="14" lengthAdjust="spacing" textLength="40.8379" x="429.5" y="157.752">+Mat()</text><text fill="#000000" font-family="sans-serif" font-size="14" lengthAdjust="spacing" textLength="194.9268" x="429.5" y="175.3613">+RowProxy operator[](uint32_t)</text><text fill="#000000" font-family="sans-serif" font-size="14" lengthAdjust="spacing" text-decoration="underline" textLength="147.4443" x="429.5" y="192.9707">+constexpr size_t size()</text><text fill="#000000" font-family="sans-serif" font-size="14" lengthAdjust="spacing" text-decoration="underline" textLength="152.1064" x="429.5" y="210.5801">+constexpr size_t rows()</text><text fill="#000000" font-family="sans-serif" font-size="14" lengthAdjust="spacing" text-decoration="underline" textLength="147.4443" x="429.5" y="228.1895">+constexpr size_t cols()</text><text fill="#000000" font-family="sans-serif" font-size="14" lengthAdjust="spacing" textLength="128.3857" x="429.5" y="245.7988">+Mat operator+(Mat)</text><text fill="#000000" font-family="sans-serif" font-size="14" lengthAdjust="spacing" textLength="124.8721" x="429.5" y="263.4082">+Mat operator-(Mat)</text><text fill="#000000" font-family="sans-serif" font-size="14" lengthAdjust="spacing" textLength="125.6582" x="429.5" y="281.0176">+Mat operator*(Mat)</text><text fill="#000000" font-family="sans-serif" font-size="14" lengthAdjust="spacing" textLength="205.0371" x="429.5" y="298.627">+Vec&lt;T,R&gt; operator*(Vec&lt;T,C&gt;)</text><text fill="#000000" font-family="sans-serif" font-size="14" lengthAdjust="spacing" textLength="159.1133" x="429.5" y="316.2363">+Mat&lt;T,C,R&gt; transpose()</text><text fill="#000000" font-family="sans-serif" font-size="14" lengthAdjust="spacing" textLength="127.2168" x="429.5" y="333.8457">+T frobenius_norm()</text><text fill="#000000" font-family="sans-serif" font-size="14" lengthAdjust="spacing" textLength="113.2031" x="429.5" y="351.4551">+Mat normalized()</text><text fill="#000000" font-family="sans-serif" font-size="14" lengthAdjust="spacing" textLength="156.7959" x="429.5" y="369.0645">+Vec&lt;T,C&gt; row(uint32_t)</text><text fill="#000000" font-family="sans-serif" font-size="14" lengthAdjust="spacing" textLength="152.1338" x="429.5" y="386.6738">+Vec&lt;T,R&gt; col(uint32_t)</text><text fill="#000000" font-family="sans-serif" font-size="14" lengthAdjust="spacing" textLength="220.6299" x="429.5" y="404.2832">+bool approx_equal(Mat, T epsilon)</text></g><!--class SquareMat--><g class="entity" data-entity="SquareMat" data-source-line="54" data-uid="ent0005" id="entity_SquareMat"><rect fill="#F1F1F1" height="153.6563" rx="2.5" ry="2.5" style="stroke:#181818;stroke-width:0.5;" width="197.582" x="420" y="648.1094"/><ellipse cx="466.9678" cy="664.1094" fill="#ADD1B2" rx="11" ry="11" style="stroke:#181818;stroke-width:1;"/><path d="M469.7334,659.9844 Q469.8896,659.7656 470.0771,659.6563 Q470.2646,659.5469 470.4834,659.5469 Q470.8584,659.5469 471.0928,659.8125 Q471.3271,660.0625 471.3271,660.6719 L471.3271,662.125 Q471.3271,662.7344 471.0928,663 Q470.8584,663.2656 470.4834,663.2656 Q470.1396,663.2656 469.9365,663.0625 Q469.7334,662.875 469.624,662.3594 Q469.5771,662 469.3896,661.8125 Q469.0615,661.4375 468.4521,661.2188 Q467.8428,661 467.2178,661 Q466.4521,661 465.8115,661.3281 Q465.1865,661.6563 464.6865,662.4063 Q464.2021,663.1563 464.2021,664.1875 L464.2021,665.2813 Q464.2021,666.5156 465.0928,667.3438 Q465.9834,668.1563 467.5771,668.1563 Q468.5146,668.1563 469.1709,667.9063 Q469.5615,667.75 469.9834,667.3125 Q470.249,667.0469 470.3896,666.9688 Q470.5459,666.8906 470.749,666.8906 Q471.0771,666.8906 471.3271,667.1563 Q471.5928,667.4063 471.5928,667.75 Q471.5928,668.0938 471.249,668.5 Q470.749,669.0781 469.9521,669.4063 Q468.874,669.8594 467.5771,669.8594 Q466.0615,669.8594 464.8584,669.2344 Q463.874,668.7344 463.1865,667.6719 Q462.499,666.5938 462.499,665.3125 L462.499,664.1563 Q462.499,662.8281 463.1084,661.6875 Q463.7334,660.5313 464.8271,659.9219 Q465.9209,659.2969 467.1553,659.2969 Q467.8896,659.2969 468.5303,659.4688 Q469.1865,659.625 469.7334,659.9844 Z " fill="#000000"/><text fill="#000000" font-family="sans-serif" font-size="14" lengthAdjust="spacing" textLength="68.4824" x="487.4678" y="669.8379">SquareMat</text><rect fill="#FFFFFF" height="17.0938" style="stroke:#181818;stroke-width:1;stroke-dasharray:2,2;" width="24.6641" x="595.918" y="645.1094"/><text fill="#000000" font-family="sans-serif" font-size="12" font-style="italic" lengthAdjust="spacing" textLength="22.6641" x="596.918" y="658.5664">T, N</text><line style="stroke:#181818;stroke-width:0.5;" x1="421" x2="616.582" y1="680.1094" y2="680.1094"/><line style="stroke:#181818;stroke-width:1;" x1="421" x2="616.582" y1="688.1094" y2="688.1094"/><text fill="#000000" font-family="sans-serif" font-size="14" lengthAdjust="spacing" textLength="61.0654" x="426" y="706.6426">+T trace()</text><text fill="#000000" font-family="sans-serif" font-size="14" lengthAdjust="spacing" textLength="98.4443" x="426" y="724.252">+uint32_t rank()</text><text fill="#000000" font-family="sans-serif" font-size="14" lengthAdjust="spacing" textLength="103.8721" x="426" y="741.8613">+T determinant()</text><text fill="#000000" font-family="sans-serif" font-size="14" lengthAdjust="spacing" textLength="135.0029" x="426" y="759.4707">+SquareMat inverse()</text><text fill="#000000" font-family="sans-serif" font-size="14" lengthAdjust="spacing" text-decoration="underline" textLength="134.2305" x="426" y="777.0801">+SquareMat identity()</text><text fill="#000000" font-family="sans-serif" font-size="14" lengthAdjust="spacing" text-decoration="underline" textLength="185.582" x="426" y="794.6895">+SquareMat scale(Vec&lt;T,N&gt;)</text></g><!--class SquareMat2--><g class="entity" data-entity="SquareMat2" data-source-line="64" data-uid="ent0006" id="entity_SquareMat2"><rect fill="#F1F1F1" height="83.2188" rx="2.5" ry="2.5" style="stroke:#181818;stroke-width:0.5;" width="195.2646" x="285.5" y="1170.6094"/><ellipse cx="332.3052" cy="1186.6094" fill="#ADD1B2" rx="11" ry="11" style="stroke:#181818;stroke-width:1;"/><path d="M335.0708,1182.4844 Q335.2271,1182.2656 335.4146,1182.1563 Q335.6021,1182.0469 335.8208,1182.0469 Q336.1958,1182.0469 336.4302,1182.3125 Q336.6646,1182.5625 336.6646,1183.1719 L336.6646,1184.625 Q336.6646,1185.2344 336.4302,1185.5 Q336.1958,1185.7656 335.8208,1185.7656 Q335.4771,1185.7656 335.2739,1185.5625 Q335.0708,1185.375 334.9614,1184.8594 Q334.9146,1184.5 334.7271,1184.3125 Q334.3989,1183.9375 333.7896,1183.7188 Q333.1802,1183.5 332.5552,1183.5 Q331.7896,1183.5 331.1489,1183.8281 Q330.5239,1184.1563 330.0239,1184.9063 Q329.5396,1185.6563 329.5396,1186.6875 L329.5396,1187.7813 Q329.5396,1189.0156 330.4302,1189.8438 Q331.3208,1190.6563 332.9146,1190.6563 Q333.8521,1190.6563 334.5083,1190.4063 Q334.8989,1190.25 335.3208,1189.8125 Q335.5864,1189.5469 335.7271,1189.4688 Q335.8833,1189.3906 336.0864,1189.3906 Q336.4146,1189.3906 336.6646,1189.6563 Q336.9302,1189.9063 336.9302,1190.25 Q336.9302,1190.5938 336.5864,1191 Q336.0864,1191.5781 335.2896,1191.9063 Q334.2114,1192.3594 332.9146,1192.3594 Q331.3989,1192.3594 330.1958,1191.7344 Q329.2114,1191.2344 328.5239,1190.1719 Q327.8364,1189.0938 327.8364,1187.8125 L327.8364,1186.6563 Q327.8364,1185.3281 328.4458,1184.1875 Q329.0708,1183.0313 330.1646,1182.4219 Q331.2583,1181.7969 332.4927,1181.7969 Q333.2271,1181.7969 333.8677,1181.9688 Q334.5239,1182.125 335.0708,1182.4844 Z " fill="#000000"/><text fill="#000000" font-family="sans-serif" font-size="14" lengthAdjust="spacing" textLength="68.4824" x="352.8052" y="1192.3379">SquareMat</text><rect fill="#FFFFFF" height="17.0938" style="stroke:#181818;stroke-width:1;stroke-dasharray:2,2;" width="22.6719" x="461.0928" y="1167.6094"/><text fill="#000000" font-family="sans-serif" font-size="12" font-style="italic" lengthAdjust="spacing" textLength="20.6719" x="462.0928" y="1181.0664">T, 2</text><line style="stroke:#181818;stroke-width:0.5;" x1="286.5" x2="479.7646" y1="1202.6094" y2="1202.6094"/><line style="stroke:#181818;stroke-width:1;" x1="286.5" x2="479.7646" y1="1210.6094" y2="1210.6094"/><text fill="#000000" font-family="sans-serif" font-size="14" lengthAdjust="spacing" text-decoration="underline" textLength="183.2646" x="291.5" y="1229.1426">+SquareMat rotation(T angle)</text><text fill="#000000" font-family="sans-serif" font-size="14" lengthAdjust="spacing" text-decoration="underline" textLength="169.2168" x="291.5" y="1246.752">+SquareMat scale(T x, T y)</text></g><!--class SquareMat3--><g class="entity" data-entity="SquareMat3" data-source-line="70" data-uid="ent0007" id="entity_SquareMat3"><rect fill="#F1F1F1" height="188.875" rx="2.5" ry="2.5" style="stroke:#181818;stroke-width:0.5;" width="333.002" x="515.5" y="1117.6094"/><ellipse cx="631.1738" cy="1133.6094" fill="#ADD1B2" rx="11" ry="11" style="stroke:#181818;stroke-width:1;"/><path d="M633.9395,1129.4844 Q634.0957,1129.2656 634.2832,1129.1563 Q634.4707,1129.0469 634.6895,1129.0469 Q635.0645,1129.0469 635.2988,1129.3125 Q635.5332,1129.5625 635.5332,1130.1719 L635.5332,1131.625 Q635.5332,1132.2344 635.2988,1132.5 Q635.0645,1132.7656 634.6895,1132.7656 Q634.3457,1132.7656 634.1426,1132.5625 Q633.9395,1132.375 633.8301,1131.8594 Q633.7832,1131.5 633.5957,1131.3125 Q633.2676,1130.9375 632.6582,1130.7188 Q632.0488,1130.5 631.4238,1130.5 Q630.6582,1130.5 630.0176,1130.8281 Q629.3926,1131.1563 628.8926,1131.9063 Q628.4082,1132.6563 628.4082,1133.6875 L628.4082,1134.7813 Q628.4082,1136.0156 629.2988,1136.8438 Q630.1895,1137.6563 631.7832,1137.6563 Q632.7207,1137.6563 633.377,1137.4063 Q633.7676,1137.25 634.1895,1136.8125 Q634.4551,1136.5469 634.5957,1136.4688 Q634.752,1136.3906 634.9551,1136.3906 Q635.2832,1136.3906 635.5332,1136.6563 Q635.7988,1136.9063 635.7988,1137.25 Q635.7988,1137.5938 635.4551,1138 Q634.9551,1138.5781 634.1582,1138.9063 Q633.0801,1139.3594 631.7832,1139.3594 Q630.2676,1139.3594 629.0645,1138.7344 Q628.0801,1138.2344 627.3926,1137.1719 Q626.7051,1136.0938 626.7051,1134.8125 L626.7051,1133.6563 Q626.7051,1132.3281 627.3145,1131.1875 Q627.9395,1130.0313 629.0332,1129.4219 Q630.127,1128.7969 631.3613,1128.7969 Q632.0957,1128.7969 632.7363,1128.9688 Q633.3926,1129.125 633.9395,1129.4844 Z " fill="#000000"/><text fill="#000000" font-family="sans-serif" font-size="14" lengthAdjust="spacing" textLength="68.4824" x="651.6738" y="1139.3379">SquareMat</text><rect fill="#FFFFFF" height="17.0938" style="stroke:#181818;stroke-width:1;stroke-dasharray:2,2;" width="22.6719" x="828.8301" y="1114.6094"/><text fill="#000000" font-family="sans-serif" font-size="12" font-style="italic" lengthAdjust="spacing" textLength="20.6719" x="829.8301" y="1128.0664">T, 3</text><line style="stroke:#181818;stroke-width:0.5;" x1="516.5" x2="847.502" y1="1149.6094" y2="1149.6094"/><line style="stroke:#181818;stroke-width:1;" x1="516.5" x2="847.502" y1="1157.6094" y2="1157.6094"/><text fill="#000000" font-family="sans-serif" font-size="14" lengthAdjust="spacing" text-decoration="underline" textLength="198.0508" x="521.5" y="1176.1426">+SquareMat rotation_x(T angle)</text><text fill="#000000" font-family="sans-serif" font-size="14" lengthAdjust="spacing" text-decoration="underline" textLength="198.0508" x="521.5" y="1193.752">+SquareMat rotation_y(T angle)</text><text fill="#000000" font-family="sans-serif" font-size="14" lengthAdjust="spacing" text-decoration="underline" textLength="198.0508" x="521.5" y="1211.3613">+SquareMat rotation_z(T angle)</text><text fill="#000000" font-family="sans-serif" font-size="14" lengthAdjust="spacing" text-decoration="underline" textLength="288.3262" x="521.5" y="1228.9707">+SquareMat rotation_axis_angle(Vec&lt;T,3&gt;, T)</text><text fill="#000000" font-family="sans-serif" font-size="14" lengthAdjust="spacing" text-decoration="underline" textLength="321.002" x="521.5" y="1246.5801">+SquareMat rotation_from_to(Vec&lt;T,3&gt;, Vec&lt;T,3&gt;)</text><text fill="#000000" font-family="sans-serif" font-size="14" lengthAdjust="spacing" text-decoration="underline" textLength="264.2021" x="521.5" y="1264.1895">+SquareMat look_at(Vec&lt;T,3&gt;, Vec&lt;T,3&gt;)</text><text fill="#000000" font-family="sans-serif" font-size="14" lengthAdjust="spacing" textLength="162.2646" x="521.5" y="1281.7988">+Vec&lt;T,3&gt; euler_angles()</text><text fill="#000000" font-family="sans-serif" font-size="14" lengthAdjust="spacing" text-decoration="underline" textLength="183.2578" x="521.5" y="1299.4082">+SquareMat scale(Vec&lt;T,3&gt;)</text></g><!--class SquareMat4--><g class="entity" data-entity="SquareMat4" data-source-line="82" data-uid="ent0008" id="entity_SquareMat4"><rect fill="#F1F1F1" height="100.8281" rx="2.5" ry="2.5" style="stroke:#181818;stroke-width:0.5;" width="227.168" x="23.5" y="1161.6094"/><ellipse cx="86.2568" cy="1177.6094" fill="#ADD1B2" rx="11" ry="11" style="stroke:#181818;stroke-width:1;"/><path d="M89.0225,1173.4844 Q89.1787,1173.2656 89.3662,1173.1563 Q89.5537,1173.0469 89.7725,1173.0469 Q90.1475,1173.0469 90.3818,1173.3125 Q90.6162,1173.5625 90.6162,1174.1719 L90.6162,1175.625 Q90.6162,1176.2344 90.3818,1176.5 Q90.1475,1176.7656 89.7725,1176.7656 Q89.4287,1176.7656 89.2256,1176.5625 Q89.0225,1176.375 88.9131,1175.8594 Q88.8662,1175.5 88.6787,1175.3125 Q88.3506,1174.9375 87.7412,1174.7188 Q87.1318,1174.5 86.5068,1174.5 Q85.7412,1174.5 85.1006,1174.8281 Q84.4756,1175.1563 83.9756,1175.9063 Q83.4912,1176.6563 83.4912,1177.6875 L83.4912,1178.7813 Q83.4912,1180.0156 84.3818,1180.8438 Q85.2725,1181.6563 86.8662,1181.6563 Q87.8037,1181.6563 88.46,1181.4063 Q88.8506,1181.25 89.2725,1180.8125 Q89.5381,1180.5469 89.6787,1180.4688 Q89.835,1180.3906 90.0381,1180.3906 Q90.3662,1180.3906 90.6162,1180.6563 Q90.8818,1180.9063 90.8818,1181.25 Q90.8818,1181.5938 90.5381,1182 Q90.0381,1182.5781 89.2412,1182.9063 Q88.1631,1183.3594 86.8662,1183.3594 Q85.3506,1183.3594 84.1475,1182.7344 Q83.1631,1182.2344 82.4756,1181.1719 Q81.7881,1180.0938 81.7881,1178.8125 L81.7881,1177.6563 Q81.7881,1176.3281 82.3975,1175.1875 Q83.0225,1174.0313 84.1162,1173.4219 Q85.21,1172.7969 86.4443,1172.7969 Q87.1787,1172.7969 87.8193,1172.9688 Q88.4756,1173.125 89.0225,1173.4844 Z " fill="#000000"/><text fill="#000000" font-family="sans-serif" font-size="14" lengthAdjust="spacing" textLength="68.4824" x="106.7568" y="1183.3379">SquareMat</text><rect fill="#FFFFFF" height="17.0938" style="stroke:#181818;stroke-width:1;stroke-dasharray:2,2;" width="22.6719" x="230.9961" y="1158.6094"/><text fill="#000000" font-family="sans-serif" font-size="12" font-style="italic" lengthAdjust="spacing" textLength="20.6719" x="231.9961" y="1172.0664">T, 4</text><line style="stroke:#181818;stroke-width:0.5;" x1="24.5" x2="249.668" y1="1193.6094" y2="1193.6094"/><line style="stroke:#181818;stroke-width:1;" x1="24.5" x2="249.668" y1="1201.6094" y2="1201.6094"/><text fill="#000000" font-family="sans-serif" font-size="14" lengthAdjust="spacing" text-decoration="underline" textLength="215.168" x="29.5" y="1220.1426">+SquareMat translation(Vec&lt;T,3&gt;)</text><text fill="#000000" font-family="sans-serif" font-size="14" lengthAdjust="spacing" text-decoration="underline" textLength="183.2578" x="29.5" y="1237.752">+SquareMat scale(Vec&lt;T,4&gt;)</text><text fill="#000000" font-family="sans-serif" font-size="14" lengthAdjust="spacing" text-decoration="underline" textLength="131.1064" x="29.5" y="1255.3613">+SquareMat scale(T)</text></g><!--class Quaternion--><g class="entity" data-entity="Quaternion" data-source-line="89" data-uid="ent0009" id="entity_Quaternion"><rect fill="#F1F1F1" height="470.625" rx="2.5" ry="2.5" style="stroke:#181818;stroke-width:0.5;" width="282.416" x="653" y="489.6094"/><ellipse cx="749.6587" cy="505.6094" fill="#ADD1B2" rx="11" ry="11" style="stroke:#181818;stroke-width:1;"/><path d="M752.4243,501.4844 Q752.5806,501.2656 752.7681,501.1563 Q752.9556,501.0469 753.1743,501.0469 Q753.5493,501.0469 753.7837,501.3125 Q754.0181,501.5625 754.0181,502.1719 L754.0181,503.625 Q754.0181,504.2344 753.7837,504.5 Q753.5493,504.7656 753.1743,504.7656 Q752.8306,504.7656 752.6274,504.5625 Q752.4243,504.375 752.3149,503.8594 Q752.2681,503.5 752.0806,503.3125 Q751.7524,502.9375 751.1431,502.7188 Q750.5337,502.5 749.9087,502.5 Q749.1431,502.5 748.5024,502.8281 Q747.8774,503.1563 747.3774,503.9063 Q746.8931,504.6563 746.8931,505.6875 L746.8931,506.7813 Q746.8931,508.0156 747.7837,508.8438 Q748.6743,509.6563 750.2681,509.6563 Q751.2056,509.6563 751.8618,509.4063 Q752.2524,509.25 752.6743,508.8125 Q752.9399,508.5469 753.0806,508.4688 Q753.2368,508.3906 753.4399,508.3906 Q753.7681,508.3906 754.0181,508.6563 Q754.2837,508.9063 754.2837,509.25 Q754.2837,509.5938 753.9399,510 Q753.4399,510.5781 752.6431,510.9063 Q751.5649,511.3594 750.2681,511.3594 Q748.7524,511.3594 747.5493,510.7344 Q746.5649,510.2344 745.8774,509.1719 Q745.1899,508.0938 745.1899,506.8125 L745.1899,505.6563 Q745.1899,504.3281 745.7993,503.1875 Q746.4243,502.0313 747.5181,501.4219 Q748.6118,500.7969 749.8462,500.7969 Q750.5806,500.7969 751.2212,500.9688 Q751.8774,501.125 752.4243,501.4844 Z " fill="#000000"/><text fill="#000000" font-family="sans-serif" font-size="14" lengthAdjust="spacing" textLength="69.2686" x="770.1587" y="511.3379">Quaternion</text><rect fill="#FFFFFF" height="17.0938" style="stroke:#181818;stroke-width:1;stroke-dasharray:2,2;" width="9.3301" x="929.0859" y="486.6094"/><text fill="#000000" font-family="sans-serif" font-size="12" font-style="italic" lengthAdjust="spacing" textLength="7.3301" x="930.0859" y="500.0664">T</text><line style="stroke:#181818;stroke-width:0.5;" x1="654" x2="934.416" y1="521.6094" y2="521.6094"/><text fill="#000000" font-family="sans-serif" font-size="14" lengthAdjust="spacing" textLength="184.0645" x="659" y="540.1426">+enum {X=0, Y=1, Z=2, W=3}</text><text fill="#000000" font-family="sans-serif" font-size="14" lengthAdjust="spacing" textLength="136.582" x="659" y="557.752">+alignas(16) T data[4]</text><line style="stroke:#181818;stroke-width:1;" x1="654" x2="934.416" y1="564.8281" y2="564.8281"/><text fill="#000000" font-family="sans-serif" font-size="14" lengthAdjust="spacing" textLength="86.7686" x="659" y="583.3613">+Quaternion()</text><text fill="#000000" font-family="sans-serif" font-size="14" lengthAdjust="spacing" textLength="190.9824" x="659" y="600.9707">+Quaternion(T w, T x, T y, T z)</text><text fill="#000000" font-family="sans-serif" font-size="14" lengthAdjust="spacing" textLength="149.0234" x="659" y="618.5801">+T&amp; operator[](uint32_t)</text><text fill="#000000" font-family="sans-serif" font-size="14" lengthAdjust="spacing" textLength="220.2471" x="659" y="636.1895">+Quaternion operator+(Quaternion)</text><text fill="#000000" font-family="sans-serif" font-size="14" lengthAdjust="spacing" textLength="216.7334" x="659" y="653.7988">+Quaternion operator-(Quaternion)</text><text fill="#000000" font-family="sans-serif" font-size="14" lengthAdjust="spacing" textLength="217.5195" x="659" y="671.4082">+Quaternion operator*(Quaternion)</text><text fill="#000000" font-family="sans-serif" font-size="14" lengthAdjust="spacing" textLength="156.8027" x="659" y="689.0176">+Quaternion operator*(T)</text><text fill="#000000" font-family="sans-serif" font-size="14" lengthAdjust="spacing" textLength="112.3623" x="659" y="706.627">+T w(), x(), y(), z()</text><text fill="#000000" font-family="sans-serif" font-size="14" lengthAdjust="spacing" textLength="103.8789" x="659" y="724.2363">+Vec&lt;T,3&gt; vec()</text><text fill="#000000" font-family="sans-serif" font-size="14" lengthAdjust="spacing" textLength="156.0234" x="659" y="741.8457">+void set_vec(Vec&lt;T,3&gt;)</text><text fill="#000000" font-family="sans-serif" font-size="14" lengthAdjust="spacing" textLength="151.375" x="659" y="759.4551">+Quaternion conjugate()</text><text fill="#000000" font-family="sans-serif" font-size="14" lengthAdjust="spacing" textLength="61.8379" x="659" y="777.0645">+T norm()</text><text fill="#000000" font-family="sans-serif" font-size="14" lengthAdjust="spacing" textLength="159.1338" x="659" y="794.6738">+Quaternion normalized()</text><text fill="#000000" font-family="sans-serif" font-size="14" lengthAdjust="spacing" textLength="135.7891" x="659" y="812.2832">+Quaternion inverse()</text><text fill="#000000" font-family="sans-serif" font-size="14" lengthAdjust="spacing" textLength="178.5957" x="659" y="829.8926">+Vec&lt;T,3&gt; rotate(Vec&lt;T,3&gt;)</text><text fill="#000000" font-family="sans-serif" font-size="14" lengthAdjust="spacing" textLength="118.6719" x="659" y="847.502">+T dot(Quaternion)</text><text fill="#000000" font-family="sans-serif" font-size="14" lengthAdjust="spacing" text-decoration="underline" textLength="135.0166" x="659" y="865.1113">+Quaternion identity()</text><text fill="#000000" font-family="sans-serif" font-size="14" lengthAdjust="spacing" text-decoration="underline" textLength="270.416" x="659" y="882.7207">+Quaternion from_axis_angle(Vec&lt;T,3&gt;, T)</text><text fill="#000000" font-family="sans-serif" font-size="14" lengthAdjust="spacing" textLength="184.0234" x="659" y="900.3301">+SquareMat&lt;T,3&gt; to_matrix()</text><text fill="#000000" font-family="sans-serif" font-size="14" lengthAdjust="spacing" textLength="199.6025" x="659" y="917.9395">+Quaternion lerp(Quaternion, T)</text><text fill="#000000" font-family="sans-serif" font-size="14" lengthAdjust="spacing" textLength="206.6025" x="659" y="935.5488">+Quaternion slerp(Quaternion, T)</text><text fill="#000000" font-family="sans-serif" font-size="14" lengthAdjust="spacing" textLength="266.5605" x="659" y="953.1582">+bool approx_equal(Quaternion, T epsilon)</text></g><g class="entity" data-entity="TypeAliases" data-source-line="119" data-uid="ent0010" id="entity_TypeAliases"><path d="M699,86.1094 L699,406.7891 L888.7715,406.7891 L888.7715,96.1094 L878.7715,86.1094 L699,86.1094" fill="#FEFFDD" style="stroke:#181818;stroke-width:0.5;"/><path d="M878.7715,86.1094 L878.7715,96.1094 L888.7715,96.1094 L878.7715,86.1094" fill="#FEFFDD" style="stroke:#181818;stroke-width:1;"/><text fill="#000000" font-family="sans-serif" font-size="13" font-weight="bold" lengthAdjust="spacing" textLength="79.4854" x="705" y="104.6045">Type Aliases</text><text fill="#000000" font-family="sans-serif" font-size="13" lengthAdjust="spacing" textLength="127.5498" x="705" y="120.9561">Vec2&lt;T&gt; = Vec&lt;T, 2&gt;</text><text fill="#000000" font-family="sans-serif" font-size="13" lengthAdjust="spacing" textLength="127.5498" x="705" y="137.3076">Vec3&lt;T&gt; = Vec&lt;T, 3&gt;</text><text fill="#000000" font-family="sans-serif" font-size="13" lengthAdjust="spacing" textLength="127.5498" x="705" y="153.6592">Vec4&lt;T&gt; = Vec&lt;T, 4&gt;</text><text fill="#000000" font-family="sans-serif" font-size="13" lengthAdjust="spacing" textLength="3.6118" x="705" y="170.0107">&#160;</text><text fill="#000000" font-family="sans-serif" font-size="13" lengthAdjust="spacing" textLength="124.668" x="705" y="186.3623">Vec2f = Vec&lt;float, 2&gt;</text><text fill="#000000" font-family="sans-serif" font-size="13" lengthAdjust="spacing" textLength="124.668" x="705" y="202.7139">Vec3f = Vec&lt;float, 3&gt;</text><text fill="#000000" font-family="sans-serif" font-size="13" lengthAdjust="spacing" textLength="124.668" x="705" y="219.0654">Vec4f = Vec&lt;float, 4&gt;</text><text fill="#000000" font-family="sans-serif" font-size="13" lengthAdjust="spacing" textLength="3.6118" x="705" y="235.417">&#160;</text><text fill="#000000" font-family="sans-serif" font-size="13" lengthAdjust="spacing" textLength="168.0098" x="705" y="251.7686">Mat2&lt;T&gt; = SquareMat&lt;T, 2&gt;</text><text fill="#000000" font-family="sans-serif" font-size="13" lengthAdjust="spacing" textLength="168.0098" x="705" y="268.1201">Mat3&lt;T&gt; = SquareMat&lt;T, 3&gt;</text><text fill="#000000" font-family="sans-serif" font-size="13" lengthAdjust="spacing" textLength="168.0098" x="705" y="284.4717">Mat4&lt;T&gt; = SquareMat&lt;T, 4&gt;</text><text fill="#000000" font-family="sans-serif" font-size="13" lengthAdjust="spacing" textLength="3.6118" x="705" y="300.8232">&#160;</text><text fill="#000000" font-family="sans-serif" font-size="13" lengthAdjust="spacing" textLength="165.1279" x="705" y="317.1748">Mat2f = SquareMat&lt;float, 2&gt;</text><text fill="#000000" font-family="sans-serif" font-size="13" lengthAdjust="spacing" textLength="165.1279" x="705" y="333.5264">Mat3f = SquareMat&lt;float, 3&gt;</text><text fill="#000000" font-family="sans-serif" font-size="13" lengthAdjust="spacing" textLength="165.1279" x="705" y="349.8779">Mat4f = SquareMat&lt;float, 4&gt;</text><text fill="#000000" font-family="sans-serif" font-size="13" lengthAdjust="spacing" textLength="3.6118" x="705" y="366.2295">&#160;</text><text fill="#000000" font-family="sans-serif" font-size="13" lengthAdjust="spacing" textLength="150.687" x="705" y="382.5811">Quatf = Quaternion&lt;float&gt;</text><text fill="#000000" font-family="sans-serif" font-size="13" lengthAdjust="spacing" textLength="168.7715" x="705" y="398.9326">Quatd = Quaternion&lt;double&gt;</text></g><g class="entity" data-entity="GMN22" data-source-line="158" data-uid="ent0023" id="entity_GMN22"><path d="M1152,1158.1094 L1152,1208.1094 L1116.76,1212.1094 L1152,1216.1094 L1152,1266.2188 A0,0 0 0 0 1152,1266.2188 L1336.2681,1266.2188 A0,0 0 0 0 1336.2681,1266.2188 L1336.2681,1168.1094 L1326.2681,1158.1094 L1152,1158.1094 A0,0 0 0 0 1152,1158.1094" fill="#FEFFDD" style="stroke:#181818;stroke-width:0.5;"/><path d="M1326.2681,1158.1094 L1326.2681,1168.1094 L1336.2681,1168.1094 L1326.2681,1158.1094" fill="#FEFFDD" style="stroke:#181818;stroke-width:0.5;"/><text fill="#000000" font-family="sans-serif" font-size="13" font-weight="bold" lengthAdjust="spacing" textLength="98.9473" x="1158" y="1176.6045">SIMD Optimized</text><text fill="#000000" font-family="sans-serif" font-size="13" lengthAdjust="spacing" textLength="151.0171" x="1158" y="1192.9561">- NEON: Vec&lt;float, 2/3/4&gt;</text><text fill="#000000" font-family="sans-serif" font-size="13" lengthAdjust="spacing" textLength="163.2681" x="1158" y="1209.3076">- CMSIS-DSP: all float types</text><text fill="#000000" font-family="sans-serif" font-size="13" lengthAdjust="spacing" textLength="3.6118" x="1158" y="1225.6592">&#160;</text><text fill="#000000" font-family="sans-serif" font-size="13" font-weight="bold" lengthAdjust="spacing" textLength="63.5527" x="1158" y="1242.0107">Alignment</text><text fill="#000000" font-family="sans-serif" font-size="13" lengthAdjust="spacing" textLength="119.209" x="1158" y="1258.3623">alignas(16) for SIMD</text></g><g class="entity" data-entity="GMN25" data-source-line="167" data-uid="ent0026" id="entity_GMN25"><path d="M1149.5,679.1094 L1149.5,770.8672 L1322.9644,770.8672 L1322.9644,689.1094 L1312.9644,679.1094 L1149.5,679.1094" fill="#FEFFDD" style="stroke:#181818;stroke-width:0.5;"/><path d="M1312.9644,679.1094 L1312.9644,689.1094 L1322.9644,689.1094 L1312.9644,679.1094" fill="#FEFFDD" style="stroke:#181818;stroke-width:1;"/><text fill="#000000" font-family="sans-serif" font-size="13" font-weight="bold" lengthAdjust="spacing" textLength="96.0718" x="1155.5" y="697.6045">Memory Layout</text><text fill="#000000" font-family="sans-serif" font-size="13" lengthAdjust="spacing" textLength="57.7827" x="1155.5" y="713.9561">[x, y, z, w]</text><text fill="#000000" font-family="sans-serif" font-size="13" lengthAdjust="spacing" textLength="3.6118" x="1155.5" y="730.3076">&#160;</text><text fill="#000000" font-family="sans-serif" font-size="13" lengthAdjust="spacing" textLength="152.4644" x="1155.5" y="746.6592">Compatible with Vec&lt;T,3&gt;</text><text fill="#000000" font-family="sans-serif" font-size="13" lengthAdjust="spacing" textLength="104.749" x="1155.5" y="763.0107">via vec() accessor</text></g><g class="entity" data-entity="GMN28" data-source-line="175" data-uid="ent0029" id="entity_GMN28"><path d="M1357.5,679.1094 L1357.5,770.8672 L1496.2427,770.8672 L1496.2427,689.1094 L1486.2427,679.1094 L1357.5,679.1094" fill="#FEFFDD" style="stroke:#181818;stroke-width:0.5;"/><path d="M1486.2427,679.1094 L1486.2427,689.1094 L1496.2427,689.1094 L1486.2427,679.1094" fill="#FEFFDD" style="stroke:#181818;stroke-width:1;"/><text fill="#000000" font-family="sans-serif" font-size="13" font-weight="bold" lengthAdjust="spacing" textLength="117.7427" x="1363.5" y="697.6045">Row-major storage</text><text fill="#000000" font-family="sans-serif" font-size="13" lengthAdjust="spacing" textLength="106.5771" x="1363.5" y="713.9561">data[row * N + col]</text><text fill="#000000" font-family="sans-serif" font-size="13" lengthAdjust="spacing" textLength="3.6118" x="1363.5" y="730.3076">&#160;</text><text fill="#000000" font-family="sans-serif" font-size="13" font-weight="bold" lengthAdjust="spacing" textLength="93.9199" x="1363.5" y="746.6592">Specializations</text><text fill="#000000" font-family="sans-serif" font-size="13" lengthAdjust="spacing" textLength="80.6025" x="1363.5" y="763.0107">2&#215;2, 3&#215;3, 4&#215;4</text></g><!--reverse link Mat to SquareMat--><g class="link" data-entity-1="Mat" data-entity-2="SquareMat" data-source-line="142" data-uid="lnk11" id="link_Mat_SquareMat"><path codeLine="142" d="M531.9671,429.9119 C528.4371,509.9719 525.16,584.4094 522.36,647.7994" fill="none" id="Mat-backto-SquareMat" style="stroke:#181818;stroke-width:1;"/><polygon fill="none" points="532.76,411.9294,525.9729,429.6476,537.9613,430.1762,532.76,411.9294" style="stroke:#181818;stroke-width:1;"/><text fill="#000000" font-family="sans-serif" font-size="13" lengthAdjust="spacing" textLength="45.5317" x="532" y="456.1045">extends</text></g><!--reverse link SquareMat to SquareMat2--><g class="link" data-entity-1="SquareMat" data-entity-2="SquareMat2" data-source-line="143" data-uid="lnk12" id="link_SquareMat_SquareMat2"><path codeLine="143" d="M486.9015,819.3368 C469.1815,871.9168 451.67,926.5594 434,990.6094 C416.87,1052.7294 400.76,1125.7494 391.39,1170.2094" fill="none" id="SquareMat-backto-SquareMat2" style="stroke:#181818;stroke-width:1;"/><polygon fill="none" points="492.65,802.2794,481.2157,817.4206,492.5873,821.2529,492.65,802.2794" style="stroke:#181818;stroke-width:1;"/><text fill="#000000" font-family="sans-serif" font-size="13" lengthAdjust="spacing" textLength="63.5845" x="435" y="1005.1045">specializes</text></g><!--reverse link SquareMat to SquareMat3--><g class="link" data-entity-1="SquareMat" data-entity-2="SquareMat3" data-source-line="144" data-uid="lnk13" id="link_SquareMat_SquareMat3"><path codeLine="144" d="M539.573,819.8571 C552.843,877.2771 569.11,940.0194 593,1008.6094 C605.63,1044.8794 621.97,1083.7094 637.2,1117.5694" fill="none" id="SquareMat-backto-SquareMat3" style="stroke:#181818;stroke-width:1;"/><polygon fill="none" points="535.52,802.3194,533.7271,821.2081,545.419,818.5061,535.52,802.3194" style="stroke:#181818;stroke-width:1;"/><text fill="#000000" font-family="sans-serif" font-size="13" lengthAdjust="spacing" textLength="63.5845" x="594" y="1005.1045">specializes</text></g><!--reverse link SquareMat to SquareMat4--><g class="link" data-entity-1="SquareMat" data-entity-2="SquareMat4" data-source-line="145" data-uid="lnk14" id="link_SquareMat_SquareMat4"><path codeLine="145" d="M445.4333,816.3526 C394.2833,879.3426 331.5,957.3094 268,1038.6094 C235.94,1079.6594 200.23,1126.7794 174.2,1161.3894" fill="none" id="SquareMat-backto-SquareMat4" style="stroke:#181818;stroke-width:1;"/><polygon fill="none" points="456.78,802.3794,440.7755,812.5704,450.091,820.1349,456.78,802.3794" style="stroke:#181818;stroke-width:1;"/><text fill="#000000" font-family="sans-serif" font-size="13" lengthAdjust="spacing" textLength="63.5845" x="302" y="1005.1045">specializes</text></g><!--link Quaternion to Vec--><g class="link" data-entity-1="Quaternion" data-entity-2="Vec" data-source-line="147" data-uid="lnk15" id="link_Quaternion_Vec"><path codeLine="147" d="M886.83,960.7994 C893.56,977.0094 900.33,993.0794 907,1008.6094 C911.2,1018.3894 913.1468,1022.9105 917.5968,1032.9905" fill="none" id="Quaternion-to-Vec" style="stroke:#181818;stroke-width:1;stroke-dasharray:7,7;"/><polygon fill="#181818" points="920.02,1038.4794,920.0445,1028.6305,918.0007,1033.9053,912.726,1031.8615,920.02,1038.4794" style="stroke:#181818;stroke-width:1;"/><text fill="#000000" font-family="sans-serif" font-size="13" lengthAdjust="spacing" textLength="87.439" x="908" y="1005.1045">uses Vec&lt;T,3&gt;</text></g><!--link Quaternion to SquareMat3--><g class="link" data-entity-1="Quaternion" data-entity-2="SquareMat3" data-source-line="148" data-uid="lnk16" id="link_Quaternion_SquareMat3"><path codeLine="148" d="M768.36,960.8194 C765.28,977.0694 761.83,993.1294 758,1008.6094 C748.99,1044.9694 737.6366,1078.1481 724.4866,1111.9281" fill="none" id="Quaternion-to-SquareMat3" style="stroke:#181818;stroke-width:1;stroke-dasharray:7,7;"/><polygon fill="#181818" points="722.31,1117.5194,729.3024,1110.5835,724.1238,1112.86,721.8474,1107.6814,722.31,1117.5194" style="stroke:#181818;stroke-width:1;"/><text fill="#000000" font-family="sans-serif" font-size="13" lengthAdjust="spacing" textLength="63.5845" x="762" y="1005.1045">converts to</text></g><!--link SquareMat3 to Quaternion--><g class="link" data-entity-1="SquareMat3" data-entity-2="Quaternion" data-source-line="149" data-uid="lnk17" id="link_SquareMat3_Quaternion"><path codeLine="149" d="M665.74,1117.3794 C661.75,1077.8494 660.87,1031.5894 670,990.6094 C672.21,980.7094 673.1108,976.4908 676.0708,966.5308" fill="none" id="SquareMat3-to-Quaternion" style="stroke:#181818;stroke-width:1;stroke-dasharray:7,7;"/><polygon fill="#181818" points="677.78,960.7794,671.3819,968.267,676.3556,965.5722,679.0504,970.546,677.78,960.7794" style="stroke:#181818;stroke-width:1;"/><text fill="#000000" font-family="sans-serif" font-size="13" lengthAdjust="spacing" textLength="78.7427" x="671" y="1005.1045">converts from</text></g><!--link Mat to Vec--><g class="link" data-entity-1="Mat" data-entity-2="Vec" data-source-line="151" data-uid="lnk18" id="link_Mat_Vec"><path codeLine="151" d="M656.58,393.0094 C664.78,399.7594 673.27,406.0294 682,411.6094 C787.61,479.1094 873.02,393.1094 953,489.6094 C1024.36,575.7094 994.77,878.9094 1000,990.6094 C1000.72,1006.0994 1001.1011,1016.2006 1001.4211,1032.3406" fill="none" id="Mat-to-Vec" style="stroke:#181818;stroke-width:1;stroke-dasharray:7,7;"/><polygon fill="#181818" points="1001.54,1038.3394,1005.3608,1029.2619,1001.4409,1033.3404,997.3624,1029.4204,1001.54,1038.3394" style="stroke:#181818;stroke-width:1;"/><text fill="#000000" font-family="sans-serif" font-size="13" lengthAdjust="spacing" textLength="54.1836" x="1002" y="730.6045">multiplies</text></g><!--link TypeAliases to Vec--><g class="link" data-entity-1="TypeAliases" data-entity-2="Vec" data-source-line="153" data-uid="lnk19" id="link_TypeAliases_Vec"><path codeLine="153" d="M889.29,301.4494 C953.24,343.4794 1032.26,408.3294 1069,489.6094 C1148.05,664.4694 1108.43,887.0294 1063.48,1038.4094" fill="none" id="TypeAliases-Vec" style="stroke:#181818;stroke-width:1;stroke-dasharray:7,7;"/></g><!--link TypeAliases to SquareMat--><g class="link" data-entity-1="TypeAliases" data-entity-2="SquareMat" data-source-line="154" data-uid="lnk20" id="link_TypeAliases_SquareMat"><path codeLine="154" d="M698.88,387.2994 C677.45,420.3894 655.34,455.8794 636,489.6094 C606.35,541.3194 576.41,601.5094 554.24,647.9594" fill="none" id="TypeAliases-SquareMat" style="stroke:#181818;stroke-width:1;stroke-dasharray:7,7;"/></g><!--link TypeAliases to Quaternion--><g class="link" data-entity-1="TypeAliases" data-entity-2="Quaternion" data-source-line="155" data-uid="lnk21" id="link_TypeAliases_Quaternion"><path codeLine="155" d="M794,407.2694 C794,433.6394 794,461.4594 794,489.2094" fill="none" id="TypeAliases-Quaternion" style="stroke:#181818;stroke-width:1;stroke-dasharray:7,7;"/></g><!--link Quaternion to GMN25--><g class="link" data-entity-1="Quaternion" data-entity-2="GMN25" data-source-line="167" data-uid="lnk27" id="link_Quaternion_GMN25"><path d="M926.14,489.5594 C942.31,474.2894 960.07,460.9294 979.5,450.6094 C1032.88,422.2594 1064.76,417.7594 1115.5,450.6094 C1193.6,501.1694 1221.38,614.9494 1231.04,679.0194" fill="none" id="Quaternion-GMN25" style="stroke:#181818;stroke-width:1;stroke-dasharray:7,7;"/></g><!--link SquareMat to GMN28--><g class="link" data-entity-1="SquareMat" data-entity-2="GMN28" data-source-line="175" data-uid="lnk30" id="link_SquareMat_GMN28"><path d="M533.42,648.0994 C550.13,582.9394 584.72,493.4994 653.5,450.6094 C716.57,411.2794 1260.1,410.2194 1322.5,450.6094 C1399.12,500.2094 1419.68,614.6494 1425.12,679.0094" fill="none" id="SquareMat-GMN28" style="stroke:#181818;stroke-width:1;stroke-dasharray:7,7;"/></g><!--SRC=[hLVfRjiu4FwlfnXaWOthscbh6ViZQ0mKJXSRe76xiR1N4HYqJ3ji954bgVZezZdwG7sn7KgoHT9Ix2og078qyyr5pa6UmZLHWgtUiIaC8o8b_CQe82AyMyCb8mj1OkyKndTyAK7GY2Z64td7KWbJgfQK9X1oGI7KebHwdc8geiqwFK_UioGbgBQGUQCGESqKlGfvCcOR2YyDI4h2UxAWOxL6fOA6YYIBY1g0AG8MWcV9RCWZBk2dNz_gFyyh9U4apbs9sFG4ldWUu9FRXPC_QFWwwC1eS0940duX7yhdET0aY-7BNnSlE_3tnQiE_7FHwy2V5_vN0qCYjaY8RBtwvHa4C2EAV1pTxlZThW55zQrdpdTmTdPcqeAVWQUuJegBZxUjZ2NAxqsKYVWY5Mv0-1NNF96Ahb814fTiel8Vry1Es_CMVZKnkuynswt0yX1cNDNXGy6bT1a1n6IHC9NDzbrBk8Xn-JPqjiUIP4ud1Zy0caeMySJMlMezwy1QlpRwjTpJ4r6HQfSwOCKmvJm2agQ2hoRqSqQY4cDR-Mgb2gQpJfMR3WoBR462bIqrcN03RHWsP0EAM-xUyEK7z6Vz0_U_6Igmb8-4XZooeJhkAglmgudPVOpPTfb5ATuC34H16WuS7PgcWKgGHAPSsa47C1TyIXEMoJo3zdnlJhlSc5wRseNVEOWhKWlOpoeqTo2hneWJjCojiWtjQ4PwMQaJwD13E-ojGu2BSkyio8mgAcAMaCHEkSeGInwea0tPOy1cDC7clZw4ao69QBbzey71k7jEtBscm6jC2QxoUOGj8fyBHtc6dKFlo_gWPxxZcVy_F9kiZlHj9x1-gi3cgG9anUGaboXtoHyuBV8nQIomUAAu8Rhzxu26YFFx2L471BSqe1dsxy9D-PIKym-dND_PsFuJDZRlEyKfg7LauAPt_UF0GLqClsS4Ipb1ow-38eAAyYEEBls6OLLPiVR180Umr2LLr9L-RPvsh37Yg8PBHJm0xHuFRJy5wfnyblgKOHqwwjBsmJddFN0s0qdLH3Fg4iOmZUFtKxR0JwU5xqqoGwPXe1c8klQ-SpSlQrhhM77Mgr-lNUAQTXwT3mOmxo27cv1PikYfufFY9DyKPtxSgxuTRGPGFexSd-GMj7QWdqAmJgakAg8lGPgKS4LrZMh66uEkdtOxXvVaTdl7mANeON73HRb3E1rDdc_nV8lNjtZzWMSfdPUiUSJriSHHwt0TnGxNLAtdTM7NcUacmgz1-1QYNuDmpSmjm7uSsb0jnZ5LYp6DwTtM8AFTvgY1XPZPY1dFfX4j83IPvRllONASmervP_PqYt_zRxThTFnpe2k5CjAhQ3QaXnYPqf3bXTwCyu_4zHsSPnJ7sTaWlpoTGuQfkMiKBiIoYNqBMuoIMAEUmT0uGyp0wGxWvMjHcOkpIB4qOjeVesOGeG4kQMV6PLG6FIylGS4MTtZpcETQYk8RNrrVmljKiLZtpRBykZ1w-tvqRbN92_z5Vr1oXzVZgt7tSlpX7CiyWXm22erBhrJxHe_K69jWgT4SiNCkG9lrTidXU6VuNMYxfZ4NQtX7rZpRQlo84nRdwmPlkxU5rI6FKqmlp3rOCdLNxPTcFZ1Ip2CWOKYbvABHVBMUXNMya7PZyWczbZWBoOAM7kG71RmauTrsXBqIRqEts_37sumgqhqKw7t_XeSF__it7wli-xT-vS5_]--></g></svg>