<svg xmlns="http://www.w3.org/2000/svg" xmlns:xlink="http://www.w3.org/1999/xlink" contentStyleType="text/css" data-diagram-type="CLASS" height="1202px" preserveAspectRatio="none" style="width:1434px;height:1202px;background:#FEFEFE;" version="1.1" viewBox="0 0 1434 1202" width="1434px" zoomAndPan="magnify"><title>MatrixLib Memory Layout and Alignment</title><defs/><g><rect fill="#FEFEFE" height="1202" style="stroke:none;stroke-width:1;" width="1434" x="0" y="0"/><g class="title" data-source-line="2"><text fill="#000000" font-family="sans-serif" font-size="14" font-weight="bold" lengthAdjust="spacing" textLength="270.6895" x="575.0635" y="24.5332">MatrixLib Memory Layout and Alignment</text></g><!--class Vec3f--><g class="entity" data-entity="Vec3f" data-source-line="9" data-uid="ent0002" id="entity_Vec3f"><rect fill="#F1F1F1" height="171.2656" rx="2.5" ry="2.5" style="stroke:#181818;stroke-width:0.5;" width="211.2334" x="829" y="76.1094"/><ellipse cx="912.4668" cy="92.1094" fill="#ADD1B2" rx="11" ry="11" style="stroke:#181818;stroke-width:1;"/><path d="M915.2324,87.9844 Q915.3887,87.7656 915.5762,87.6563 Q915.7637,87.5469 915.9824,87.5469 Q916.3574,87.5469 916.5918,87.8125 Q916.8262,88.0625 916.8262,88.6719 L916.8262,90.125 Q916.8262,90.7344 916.5918,91 Q916.3574,91.2656 915.9824,91.2656 Q915.6387,91.2656 915.4355,91.0625 Q915.2324,90.875 915.123,90.3594 Q915.0762,90 914.8887,89.8125 Q914.5605,89.4375 913.9512,89.2188 Q913.3418,89 912.7168,89 Q911.9512,89 911.3105,89.3281 Q910.6855,89.6563 910.1855,90.4063 Q909.7012,91.1563 909.7012,92.1875 L909.7012,93.2813 Q909.7012,94.5156 910.5918,95.3438 Q911.4824,96.1563 913.0762,96.1563 Q914.0137,96.1563 914.6699,95.9063 Q915.0605,95.75 915.4824,95.3125 Q915.748,95.0469 915.8887,94.9688 Q916.0449,94.8906 916.248,94.8906 Q916.5762,94.8906 916.8262,95.1563 Q917.0918,95.4063 917.0918,95.75 Q917.0918,96.0938 916.748,96.5 Q916.248,97.0781 915.4512,97.4063 Q914.373,97.8594 913.0762,97.8594 Q911.5605,97.8594 910.3574,97.2344 Q909.373,96.7344 908.6855,95.6719 Q907.998,94.5938 907.998,93.3125 L907.998,92.1563 Q907.998,90.8281 908.6074,89.6875 Q909.2324,88.5313 910.3262,87.9219 Q911.4199,87.2969 912.6543,87.2969 Q913.3887,87.2969 914.0293,87.4688 Q914.6855,87.625 915.2324,87.9844 Z " fill="#000000"/><text fill="#000000" font-family="sans-serif" font-size="14" lengthAdjust="spacing" textLength="35.7998" x="932.9668" y="97.8379">Vec3f</text><line style="stroke:#181818;stroke-width:0.5;" x1="830" x2="1039.2334" y1="108.1094" y2="108.1094"/><ellipse cx="840" cy="122.4141" fill="none" rx="3" ry="3" style="stroke:#038048;stroke-width:1;"/><text fill="#000000" font-family="sans-serif" font-size="14" lengthAdjust="spacing" textLength="162.6475" x="849" y="126.6426">data[0] : float   // offset 0-3</text><ellipse cx="840" cy="140.0234" fill="none" rx="3" ry="3" style="stroke:#038048;stroke-width:1;"/><text fill="#000000" font-family="sans-serif" font-size="14" lengthAdjust="spacing" textLength="162.6475" x="849" y="144.252">data[1] : float   // offset 4-7</text><ellipse cx="840" cy="157.6328" fill="none" rx="3" ry="3" style="stroke:#038048;stroke-width:1;"/><text fill="#000000" font-family="sans-serif" font-size="14" lengthAdjust="spacing" textLength="170.4336" x="849" y="161.8613">data[2] : float   // offset 8-11</text><ellipse cx="840" cy="175.2422" fill="none" rx="3" ry="3" style="stroke:#038048;stroke-width:1;"/><text fill="#000000" font-family="sans-serif" font-size="14" lengthAdjust="spacing" textLength="185.2334" x="849" y="179.4707">padding : float   // offset 12-15</text><line style="stroke:#181818;stroke-width:1;" x1="830" x2="1039.2334" y1="186.5469" y2="186.5469"/><text fill="#000000" font-family="sans-serif" font-size="14" lengthAdjust="spacing" textLength="93.7754" x="835" y="205.0801">size = 16 bytes</text><text fill="#000000" font-family="sans-serif" font-size="14" lengthAdjust="spacing" textLength="92.2305" x="835" y="222.6895">alignment = 16</text><text fill="#000000" font-family="sans-serif" font-size="14" lengthAdjust="spacing" textLength="145.127" x="835" y="240.2988">simd_compatible = true</text></g><g class="entity" data-entity="GMN3" data-source-line="21" data-uid="ent0004" id="entity_GMN3"><path d="M676,454.6094 L676,497.3125 A0,0 0 0 0 676,497.3125 L918.8315,497.3125 A0,0 0 0 0 918.8315,497.3125 L918.8315,464.6094 L908.8315,454.6094 L810.55,454.6094 L897.43,247.1794 L802.55,454.6094 L676,454.6094 A0,0 0 0 0 676,454.6094" fill="#FEFFDD" style="stroke:#181818;stroke-width:0.5;"/><path d="M908.8315,454.6094 L908.8315,464.6094 L918.8315,464.6094 L908.8315,454.6094" fill="#FEFFDD" style="stroke:#181818;stroke-width:0.5;"/><text fill="#000000" font-family="sans-serif" font-size="13" lengthAdjust="spacing" textLength="205.9751" x="682" y="473.1045">Vec3f is 16 bytes and aligned to 16.</text><text fill="#000000" font-family="sans-serif" font-size="13" lengthAdjust="spacing" textLength="221.8315" x="682" y="489.4561">Padding ensures SIMD-friendly layout.</text></g><!--class Mat3f--><g class="entity" data-entity="Mat3f" data-source-line="29" data-uid="ent0006" id="entity_Mat3f"><rect fill="#F1F1F1" height="276.9219" rx="2.5" ry="2.5" style="stroke:#181818;stroke-width:0.5;" width="233.7988" x="954.5" y="337.6094"/><ellipse cx="1049.6426" cy="353.6094" fill="#ADD1B2" rx="11" ry="11" style="stroke:#181818;stroke-width:1;"/><path d="M1052.4082,349.4844 Q1052.5645,349.2656 1052.752,349.1563 Q1052.9395,349.0469 1053.1582,349.0469 Q1053.5332,349.0469 1053.7676,349.3125 Q1054.002,349.5625 1054.002,350.1719 L1054.002,351.625 Q1054.002,352.2344 1053.7676,352.5 Q1053.5332,352.7656 1053.1582,352.7656 Q1052.8145,352.7656 1052.6113,352.5625 Q1052.4082,352.375 1052.2988,351.8594 Q1052.252,351.5 1052.0645,351.3125 Q1051.7363,350.9375 1051.127,350.7188 Q1050.5176,350.5 1049.8926,350.5 Q1049.127,350.5 1048.4863,350.8281 Q1047.8613,351.1563 1047.3613,351.9063 Q1046.877,352.6563 1046.877,353.6875 L1046.877,354.7813 Q1046.877,356.0156 1047.7676,356.8438 Q1048.6582,357.6563 1050.252,357.6563 Q1051.1895,357.6563 1051.8457,357.4063 Q1052.2363,357.25 1052.6582,356.8125 Q1052.9238,356.5469 1053.0645,356.4688 Q1053.2207,356.3906 1053.4238,356.3906 Q1053.752,356.3906 1054.002,356.6563 Q1054.2676,356.9063 1054.2676,357.25 Q1054.2676,357.5938 1053.9238,358 Q1053.4238,358.5781 1052.627,358.9063 Q1051.5488,359.3594 1050.252,359.3594 Q1048.7363,359.3594 1047.5332,358.7344 Q1046.5488,358.2344 1045.8613,357.1719 Q1045.1738,356.0938 1045.1738,354.8125 L1045.1738,353.6563 Q1045.1738,352.3281 1045.7832,351.1875 Q1046.4082,350.0313 1047.502,349.4219 Q1048.5957,348.7969 1049.8301,348.7969 Q1050.5645,348.7969 1051.2051,348.9688 Q1051.8613,349.125 1052.4082,349.4844 Z " fill="#000000"/><text fill="#000000" font-family="sans-serif" font-size="14" lengthAdjust="spacing" textLength="35.0137" x="1070.1426" y="359.3379">Mat3f</text><line style="stroke:#181818;stroke-width:0.5;" x1="955.5" x2="1187.2988" y1="369.6094" y2="369.6094"/><ellipse cx="965.5" cy="383.9141" fill="none" rx="3" ry="3" style="stroke:#038048;stroke-width:1;"/><text fill="#000000" font-family="sans-serif" font-size="14" lengthAdjust="spacing" textLength="171.9785" x="974.5" y="388.1426">data[0] : float   // row 0 col 0</text><ellipse cx="965.5" cy="401.5234" fill="none" rx="3" ry="3" style="stroke:#038048;stroke-width:1;"/><text fill="#000000" font-family="sans-serif" font-size="14" lengthAdjust="spacing" textLength="171.9785" x="974.5" y="405.752">data[1] : float   // row 0 col 1</text><ellipse cx="965.5" cy="419.1328" fill="none" rx="3" ry="3" style="stroke:#038048;stroke-width:1;"/><text fill="#000000" font-family="sans-serif" font-size="14" lengthAdjust="spacing" textLength="171.9785" x="974.5" y="423.3613">data[2] : float   // row 0 col 2</text><ellipse cx="965.5" cy="436.7422" fill="none" rx="3" ry="3" style="stroke:#038048;stroke-width:1;"/><text fill="#000000" font-family="sans-serif" font-size="14" lengthAdjust="spacing" textLength="171.9785" x="974.5" y="440.9707">data[3] : float   // row 1 col 0</text><ellipse cx="965.5" cy="454.3516" fill="none" rx="3" ry="3" style="stroke:#038048;stroke-width:1;"/><text fill="#000000" font-family="sans-serif" font-size="14" lengthAdjust="spacing" textLength="171.9785" x="974.5" y="458.5801">data[4] : float   // row 1 col 1</text><ellipse cx="965.5" cy="471.9609" fill="none" rx="3" ry="3" style="stroke:#038048;stroke-width:1;"/><text fill="#000000" font-family="sans-serif" font-size="14" lengthAdjust="spacing" textLength="171.9785" x="974.5" y="476.1895">data[5] : float   // row 1 col 2</text><ellipse cx="965.5" cy="489.5703" fill="none" rx="3" ry="3" style="stroke:#038048;stroke-width:1;"/><text fill="#000000" font-family="sans-serif" font-size="14" lengthAdjust="spacing" textLength="171.9785" x="974.5" y="493.7988">data[6] : float   // row 2 col 0</text><ellipse cx="965.5" cy="507.1797" fill="none" rx="3" ry="3" style="stroke:#038048;stroke-width:1;"/><text fill="#000000" font-family="sans-serif" font-size="14" lengthAdjust="spacing" textLength="171.9785" x="974.5" y="511.4082">data[7] : float   // row 2 col 1</text><ellipse cx="965.5" cy="524.7891" fill="none" rx="3" ry="3" style="stroke:#038048;stroke-width:1;"/><text fill="#000000" font-family="sans-serif" font-size="14" lengthAdjust="spacing" textLength="171.9785" x="974.5" y="529.0176">data[8] : float   // row 2 col 2</text><ellipse cx="965.5" cy="542.3984" fill="none" rx="3" ry="3" style="stroke:#038048;stroke-width:1;"/><text fill="#000000" font-family="sans-serif" font-size="14" lengthAdjust="spacing" textLength="207.7988" x="974.5" y="546.627">padding[3] : float   // offsets 36-47</text><line style="stroke:#181818;stroke-width:1;" x1="955.5" x2="1187.2988" y1="553.7031" y2="553.7031"/><text fill="#000000" font-family="sans-serif" font-size="14" lengthAdjust="spacing" textLength="93.7754" x="960.5" y="572.2363">size = 48 bytes</text><text fill="#000000" font-family="sans-serif" font-size="14" lengthAdjust="spacing" textLength="92.2305" x="960.5" y="589.8457">alignment = 16</text><text fill="#000000" font-family="sans-serif" font-size="14" lengthAdjust="spacing" textLength="124.8789" x="960.5" y="607.4551">storage = row-major</text></g><g class="entity" data-entity="GMN7" data-source-line="47" data-uid="ent0008" id="entity_GMN7"><path d="M826,730.6094 L826,789.6641 A0,0 0 0 0 826,789.6641 L1072.8306,789.6641 A0,0 0 0 0 1072.8306,789.6641 L1072.8306,740.6094 L1062.8306,730.6094 L965.88,730.6094 L1011.93,614.8094 L957.88,730.6094 L826,730.6094 A0,0 0 0 0 826,730.6094" fill="#FEFFDD" style="stroke:#181818;stroke-width:0.5;"/><path d="M1062.8306,730.6094 L1062.8306,740.6094 L1072.8306,740.6094 L1062.8306,730.6094" fill="#FEFFDD" style="stroke:#181818;stroke-width:0.5;"/><text fill="#000000" font-family="sans-serif" font-size="13" lengthAdjust="spacing" textLength="113.4263" x="832" y="749.1045">Row-major storage.</text><text fill="#000000" font-family="sans-serif" font-size="13" lengthAdjust="spacing" textLength="225.8306" x="832" y="765.4561">Total size: 48 bytes (36 data + 12 pad).</text><text fill="#000000" font-family="sans-serif" font-size="13" lengthAdjust="spacing" textLength="167.6353" x="832" y="781.8076">element[r][c] = data[r * 3 + c].</text></g><!--class Quatf--><g class="entity" data-entity="Quatf" data-source-line="56" data-uid="ent0010" id="entity_Quatf"><rect fill="#F1F1F1" height="171.2656" rx="2.5" ry="2.5" style="stroke:#181818;stroke-width:0.5;" width="171.5166" x="1108.5" y="674.6094"/><ellipse cx="1172.8877" cy="690.6094" fill="#ADD1B2" rx="11" ry="11" style="stroke:#181818;stroke-width:1;"/><path d="M1175.6533,686.4844 Q1175.8096,686.2656 1175.9971,686.1563 Q1176.1846,686.0469 1176.4033,686.0469 Q1176.7783,686.0469 1177.0127,686.3125 Q1177.2471,686.5625 1177.2471,687.1719 L1177.2471,688.625 Q1177.2471,689.2344 1177.0127,689.5 Q1176.7783,689.7656 1176.4033,689.7656 Q1176.0596,689.7656 1175.8564,689.5625 Q1175.6533,689.375 1175.5439,688.8594 Q1175.4971,688.5 1175.3096,688.3125 Q1174.9814,687.9375 1174.3721,687.7188 Q1173.7627,687.5 1173.1377,687.5 Q1172.3721,687.5 1171.7314,687.8281 Q1171.1064,688.1563 1170.6064,688.9063 Q1170.1221,689.6563 1170.1221,690.6875 L1170.1221,691.7813 Q1170.1221,693.0156 1171.0127,693.8438 Q1171.9033,694.6563 1173.4971,694.6563 Q1174.4346,694.6563 1175.0908,694.4063 Q1175.4814,694.25 1175.9033,693.8125 Q1176.1689,693.5469 1176.3096,693.4688 Q1176.4658,693.3906 1176.6689,693.3906 Q1176.9971,693.3906 1177.2471,693.6563 Q1177.5127,693.9063 1177.5127,694.25 Q1177.5127,694.5938 1177.1689,695 Q1176.6689,695.5781 1175.8721,695.9063 Q1174.7939,696.3594 1173.4971,696.3594 Q1171.9814,696.3594 1170.7783,695.7344 Q1169.7939,695.2344 1169.1064,694.1719 Q1168.4189,693.0938 1168.4189,691.8125 L1168.4189,690.6563 Q1168.4189,689.3281 1169.0283,688.1875 Q1169.6533,687.0313 1170.7471,686.4219 Q1171.8408,685.7969 1173.0752,685.7969 Q1173.8096,685.7969 1174.4502,685.9688 Q1175.1064,686.125 1175.6533,686.4844 Z " fill="#000000"/><text fill="#000000" font-family="sans-serif" font-size="14" lengthAdjust="spacing" textLength="34.2412" x="1193.3877" y="696.3379">Quatf</text><line style="stroke:#181818;stroke-width:0.5;" x1="1109.5" x2="1279.0166" y1="706.6094" y2="706.6094"/><ellipse cx="1119.5" cy="720.9141" fill="none" rx="3" ry="3" style="stroke:#038048;stroke-width:1;"/><text fill="#000000" font-family="sans-serif" font-size="14" lengthAdjust="spacing" textLength="126.834" x="1128.5" y="725.1426">x : float   // offset 0-3</text><ellipse cx="1119.5" cy="738.5234" fill="none" rx="3" ry="3" style="stroke:#038048;stroke-width:1;"/><text fill="#000000" font-family="sans-serif" font-size="14" lengthAdjust="spacing" textLength="126.834" x="1128.5" y="742.752">y : float   // offset 4-7</text><ellipse cx="1119.5" cy="756.1328" fill="none" rx="3" ry="3" style="stroke:#038048;stroke-width:1;"/><text fill="#000000" font-family="sans-serif" font-size="14" lengthAdjust="spacing" textLength="134.6201" x="1128.5" y="760.3613">z : float   // offset 8-11</text><ellipse cx="1119.5" cy="773.7422" fill="none" rx="3" ry="3" style="stroke:#038048;stroke-width:1;"/><text fill="#000000" font-family="sans-serif" font-size="14" lengthAdjust="spacing" textLength="145.5166" x="1128.5" y="777.9707">w : float   // offset 12-15</text><line style="stroke:#181818;stroke-width:1;" x1="1109.5" x2="1279.0166" y1="785.0469" y2="785.0469"/><text fill="#000000" font-family="sans-serif" font-size="14" lengthAdjust="spacing" textLength="93.7754" x="1114.5" y="803.5801">size = 16 bytes</text><text fill="#000000" font-family="sans-serif" font-size="14" lengthAdjust="spacing" textLength="92.2305" x="1114.5" y="821.1895">alignment = 16</text><text fill="#000000" font-family="sans-serif" font-size="14" lengthAdjust="spacing" textLength="145.127" x="1114.5" y="838.7988">simd_compatible = true</text></g><g class="entity" data-entity="GMN11" data-source-line="68" data-uid="ent0012" id="entity_GMN11"><path d="M961,961.6094 L961,1020.6641 A0,0 0 0 0 961,1020.6641 L1177.7808,1020.6641 A0,0 0 0 0 1177.7808,1020.6641 L1177.7808,971.6094 L1167.7808,961.6094 L1089.2,961.6094 L1148.31,845.7294 L1081.2,961.6094 L961,961.6094 A0,0 0 0 0 961,961.6094" fill="#FEFFDD" style="stroke:#181818;stroke-width:0.5;"/><path d="M1167.7808,961.6094 L1167.7808,971.6094 L1177.7808,971.6094 L1167.7808,961.6094" fill="#FEFFDD" style="stroke:#181818;stroke-width:0.5;"/><text fill="#000000" font-family="sans-serif" font-size="13" lengthAdjust="spacing" textLength="107.6499" x="967" y="980.1045">Layout: [x, y, z, w].</text><text fill="#000000" font-family="sans-serif" font-size="13" lengthAdjust="spacing" textLength="195.7808" x="967" y="996.4561">SIMD compatible (NEON 128-bit).</text><text fill="#000000" font-family="sans-serif" font-size="13" lengthAdjust="spacing" textLength="156.0317" x="967" y="1012.8076">vec() returns Vec3f(x, y, z).</text></g><!--class Mat4f--><g class="entity" data-entity="Mat4f" data-source-line="77" data-uid="ent0014" id="entity_Mat4f"><rect fill="#F1F1F1" height="171.2656" rx="2.5" ry="2.5" style="stroke:#181818;stroke-width:0.5;" width="214.3164" x="1213.5" y="905.6094"/><ellipse cx="1298.9014" cy="921.6094" fill="#ADD1B2" rx="11" ry="11" style="stroke:#181818;stroke-width:1;"/><path d="M1301.667,917.4844 Q1301.8232,917.2656 1302.0107,917.1563 Q1302.1982,917.0469 1302.417,917.0469 Q1302.792,917.0469 1303.0264,917.3125 Q1303.2607,917.5625 1303.2607,918.1719 L1303.2607,919.625 Q1303.2607,920.2344 1303.0264,920.5 Q1302.792,920.7656 1302.417,920.7656 Q1302.0732,920.7656 1301.8701,920.5625 Q1301.667,920.375 1301.5576,919.8594 Q1301.5107,919.5 1301.3232,919.3125 Q1300.9951,918.9375 1300.3857,918.7188 Q1299.7764,918.5 1299.1514,918.5 Q1298.3857,918.5 1297.7451,918.8281 Q1297.1201,919.1563 1296.6201,919.9063 Q1296.1357,920.6563 1296.1357,921.6875 L1296.1357,922.7813 Q1296.1357,924.0156 1297.0264,924.8438 Q1297.917,925.6563 1299.5107,925.6563 Q1300.4482,925.6563 1301.1045,925.4063 Q1301.4951,925.25 1301.917,924.8125 Q1302.1826,924.5469 1302.3232,924.4688 Q1302.4795,924.3906 1302.6826,924.3906 Q1303.0107,924.3906 1303.2607,924.6563 Q1303.5264,924.9063 1303.5264,925.25 Q1303.5264,925.5938 1303.1826,926 Q1302.6826,926.5781 1301.8857,926.9063 Q1300.8076,927.3594 1299.5107,927.3594 Q1297.9951,927.3594 1296.792,926.7344 Q1295.8076,926.2344 1295.1201,925.1719 Q1294.4326,924.0938 1294.4326,922.8125 L1294.4326,921.6563 Q1294.4326,920.3281 1295.042,919.1875 Q1295.667,918.0313 1296.7607,917.4219 Q1297.8545,916.7969 1299.0889,916.7969 Q1299.8232,916.7969 1300.4639,916.9688 Q1301.1201,917.125 1301.667,917.4844 Z " fill="#000000"/><text fill="#000000" font-family="sans-serif" font-size="14" lengthAdjust="spacing" textLength="35.0137" x="1319.4014" y="927.3379">Mat4f</text><line style="stroke:#181818;stroke-width:0.5;" x1="1214.5" x2="1426.8164" y1="937.6094" y2="937.6094"/><ellipse cx="1224.5" cy="951.9141" fill="none" rx="3" ry="3" style="stroke:#038048;stroke-width:1;"/><text fill="#000000" font-family="sans-serif" font-size="14" lengthAdjust="spacing" textLength="180.5303" x="1233.5" y="956.1426">row0[4] : float   // offsets 0-15</text><ellipse cx="1224.5" cy="969.5234" fill="none" rx="3" ry="3" style="stroke:#038048;stroke-width:1;"/><text fill="#000000" font-family="sans-serif" font-size="14" lengthAdjust="spacing" textLength="188.3164" x="1233.5" y="973.752">row1[4] : float   // offsets 16-31</text><ellipse cx="1224.5" cy="987.1328" fill="none" rx="3" ry="3" style="stroke:#038048;stroke-width:1;"/><text fill="#000000" font-family="sans-serif" font-size="14" lengthAdjust="spacing" textLength="188.3164" x="1233.5" y="991.3613">row2[4] : float   // offsets 32-47</text><ellipse cx="1224.5" cy="1004.7422" fill="none" rx="3" ry="3" style="stroke:#038048;stroke-width:1;"/><text fill="#000000" font-family="sans-serif" font-size="14" lengthAdjust="spacing" textLength="188.3164" x="1233.5" y="1008.9707">row3[4] : float   // offsets 48-63</text><line style="stroke:#181818;stroke-width:1;" x1="1214.5" x2="1426.8164" y1="1016.0469" y2="1016.0469"/><text fill="#000000" font-family="sans-serif" font-size="14" lengthAdjust="spacing" textLength="93.7754" x="1219.5" y="1034.5801">size = 64 bytes</text><text fill="#000000" font-family="sans-serif" font-size="14" lengthAdjust="spacing" textLength="92.2305" x="1219.5" y="1052.1895">alignment = 16</text><text fill="#000000" font-family="sans-serif" font-size="14" lengthAdjust="spacing" textLength="145.127" x="1219.5" y="1069.7988">simd_compatible = true</text></g><g class="entity" data-entity="GMN15" data-source-line="89" data-uid="ent0016" id="entity_GMN15"><path d="M1221,1136.6094 L1221,1195.6641 A0,0 0 0 0 1221,1195.6641 L1419.7407,1195.6641 A0,0 0 0 0 1419.7407,1195.6641 L1419.7407,1146.6094 L1409.7407,1136.6094 L1324.5,1136.6094 L1320.5,1076.8394 L1316.5,1136.6094 L1221,1136.6094 A0,0 0 0 0 1221,1136.6094" fill="#FEFFDD" style="stroke:#181818;stroke-width:0.5;"/><path d="M1409.7407,1136.6094 L1409.7407,1146.6094 L1419.7407,1146.6094 L1409.7407,1136.6094" fill="#FEFFDD" style="stroke:#181818;stroke-width:0.5;"/><text fill="#000000" font-family="sans-serif" font-size="13" lengthAdjust="spacing" textLength="130.0254" x="1227" y="1155.1045">Row-major 4x4 matrix.</text><text fill="#000000" font-family="sans-serif" font-size="13" lengthAdjust="spacing" textLength="177.7407" x="1227" y="1171.4561">Each row is 16 bytes (4 floats).</text><text fill="#000000" font-family="sans-serif" font-size="13" lengthAdjust="spacing" textLength="177.7344" x="1227" y="1187.8076">Perfect fit for SIMD operations.</text></g><!--class NeonF32x4--><g class="entity" data-entity="NeonF32x4" data-source-line="98" data-uid="ent0018" id="entity_NeonF32x4"><rect fill="#F1F1F1" height="136.0469" rx="2.5" ry="2.5" style="stroke:#181818;stroke-width:0.5;" width="189.7891" x="22.5" y="93.6094"/><ellipse cx="76.9551" cy="109.6094" fill="#ADD1B2" rx="11" ry="11" style="stroke:#181818;stroke-width:1;"/><path d="M79.7207,105.4844 Q79.877,105.2656 80.0645,105.1563 Q80.252,105.0469 80.4707,105.0469 Q80.8457,105.0469 81.0801,105.3125 Q81.3145,105.5625 81.3145,106.1719 L81.3145,107.625 Q81.3145,108.2344 81.0801,108.5 Q80.8457,108.7656 80.4707,108.7656 Q80.127,108.7656 79.9238,108.5625 Q79.7207,108.375 79.6113,107.8594 Q79.5645,107.5 79.377,107.3125 Q79.0488,106.9375 78.4395,106.7188 Q77.8301,106.5 77.2051,106.5 Q76.4395,106.5 75.7988,106.8281 Q75.1738,107.1563 74.6738,107.9063 Q74.1895,108.6563 74.1895,109.6875 L74.1895,110.7813 Q74.1895,112.0156 75.0801,112.8438 Q75.9707,113.6563 77.5645,113.6563 Q78.502,113.6563 79.1582,113.4063 Q79.5488,113.25 79.9707,112.8125 Q80.2363,112.5469 80.377,112.4688 Q80.5332,112.3906 80.7363,112.3906 Q81.0645,112.3906 81.3145,112.6563 Q81.5801,112.9063 81.5801,113.25 Q81.5801,113.5938 81.2363,114 Q80.7363,114.5781 79.9395,114.9063 Q78.8613,115.3594 77.5645,115.3594 Q76.0488,115.3594 74.8457,114.7344 Q73.8613,114.2344 73.1738,113.1719 Q72.4863,112.0938 72.4863,110.8125 L72.4863,109.6563 Q72.4863,108.3281 73.0957,107.1875 Q73.7207,106.0313 74.8145,105.4219 Q75.9082,104.7969 77.1426,104.7969 Q77.877,104.7969 78.5176,104.9688 Q79.1738,105.125 79.7207,105.4844 Z " fill="#000000"/><text fill="#000000" font-family="sans-serif" font-size="14" lengthAdjust="spacing" textLength="72.3789" x="97.4551" y="115.3379">NeonF32x4</text><line style="stroke:#181818;stroke-width:0.5;" x1="23.5" x2="211.2891" y1="125.6094" y2="125.6094"/><ellipse cx="33.5" cy="139.9141" fill="none" rx="3" ry="3" style="stroke:#038048;stroke-width:1;"/><text fill="#000000" font-family="sans-serif" font-size="14" lengthAdjust="spacing" textLength="126.8477" x="42.5" y="144.1426">register : float32x4_t</text><ellipse cx="33.5" cy="157.5234" fill="none" rx="3" ry="3" style="stroke:#038048;stroke-width:1;"/><text fill="#000000" font-family="sans-serif" font-size="14" lengthAdjust="spacing" textLength="97.6719" x="42.5" y="161.752">width = 128 bits</text><line style="stroke:#181818;stroke-width:1;" x1="23.5" x2="211.2891" y1="168.8281" y2="168.8281"/><text fill="#000000" font-family="sans-serif" font-size="14" lengthAdjust="spacing" textLength="105.4512" x="28.5" y="187.3613">maps_to = Vec4f</text><text fill="#000000" font-family="sans-serif" font-size="14" lengthAdjust="spacing" textLength="103.8926" x="28.5" y="204.9707">maps_to = Quatf</text><text fill="#000000" font-family="sans-serif" font-size="14" lengthAdjust="spacing" textLength="177.7891" x="28.5" y="222.5801">maps_to = Mat row (4 floats)</text></g><g class="entity" data-entity="GMN19" data-source-line="108" data-uid="ent0020" id="entity_GMN19"><path d="M248,115.6094 L248,157.6094 L212.79,161.6094 L248,165.6094 L248,207.3672 A0,0 0 0 0 248,207.3672 L396.8672,207.3672 A0,0 0 0 0 396.8672,207.3672 L396.8672,125.6094 L386.8672,115.6094 L248,115.6094 A0,0 0 0 0 248,115.6094" fill="#FEFFDD" style="stroke:#181818;stroke-width:0.5;"/><path d="M386.8672,115.6094 L386.8672,125.6094 L396.8672,125.6094 L386.8672,115.6094" fill="#FEFFDD" style="stroke:#181818;stroke-width:0.5;"/><text fill="#000000" font-family="sans-serif" font-size="13" lengthAdjust="spacing" textLength="105.4917" x="254" y="134.1045">NEON operations:</text><text fill="#000000" font-family="sans-serif" font-size="13" lengthAdjust="spacing" textLength="104.7808" x="254" y="150.4561">vld1q_f32()  - load</text><text fill="#000000" font-family="sans-serif" font-size="13" lengthAdjust="spacing" textLength="109.0972" x="254" y="166.8076">vst1q_f32()  - store</text><text fill="#000000" font-family="sans-serif" font-size="13" lengthAdjust="spacing" textLength="106.2344" x="254" y="183.1592">vaddq_f32()  - add</text><text fill="#000000" font-family="sans-serif" font-size="13" lengthAdjust="spacing" textLength="127.8672" x="254" y="199.5107">vmulq_f32()  - multiply</text></g><!--class CmsisMatF32--><g class="entity" data-entity="CmsisMatF32" data-source-line="116" data-uid="ent0022" id="entity_CmsisMatF32"><rect fill="#F1F1F1" height="118.4375" rx="2.5" ry="2.5" style="stroke:#181818;stroke-width:0.5;" width="221.3164" x="7" y="417.1094"/><ellipse cx="70.2358" cy="433.1094" fill="#ADD1B2" rx="11" ry="11" style="stroke:#181818;stroke-width:1;"/><path d="M73.0015,428.9844 Q73.1577,428.7656 73.3452,428.6563 Q73.5327,428.5469 73.7515,428.5469 Q74.1265,428.5469 74.3608,428.8125 Q74.5952,429.0625 74.5952,429.6719 L74.5952,431.125 Q74.5952,431.7344 74.3608,432 Q74.1265,432.2656 73.7515,432.2656 Q73.4077,432.2656 73.2046,432.0625 Q73.0015,431.875 72.8921,431.3594 Q72.8452,431 72.6577,430.8125 Q72.3296,430.4375 71.7202,430.2188 Q71.1108,430 70.4858,430 Q69.7202,430 69.0796,430.3281 Q68.4546,430.6563 67.9546,431.4063 Q67.4702,432.1563 67.4702,433.1875 L67.4702,434.2813 Q67.4702,435.5156 68.3608,436.3438 Q69.2515,437.1563 70.8452,437.1563 Q71.7827,437.1563 72.439,436.9063 Q72.8296,436.75 73.2515,436.3125 Q73.5171,436.0469 73.6577,435.9688 Q73.814,435.8906 74.0171,435.8906 Q74.3452,435.8906 74.5952,436.1563 Q74.8608,436.4063 74.8608,436.75 Q74.8608,437.0938 74.5171,437.5 Q74.0171,438.0781 73.2202,438.4063 Q72.1421,438.8594 70.8452,438.8594 Q69.3296,438.8594 68.1265,438.2344 Q67.1421,437.7344 66.4546,436.6719 Q65.7671,435.5938 65.7671,434.3125 L65.7671,433.1563 Q65.7671,431.8281 66.3765,430.6875 Q67.0015,429.5313 68.0952,428.9219 Q69.189,428.2969 70.4233,428.2969 Q71.1577,428.2969 71.7983,428.4688 Q72.4546,428.625 73.0015,428.9844 Z " fill="#000000"/><text fill="#000000" font-family="sans-serif" font-size="14" lengthAdjust="spacing" textLength="86.3447" x="90.7358" y="438.8379">CmsisMatF32</text><line style="stroke:#181818;stroke-width:0.5;" x1="8" x2="227.3164" y1="449.1094" y2="449.1094"/><ellipse cx="18" cy="463.4141" fill="none" rx="3" ry="3" style="stroke:#038048;stroke-width:1;"/><text fill="#000000" font-family="sans-serif" font-size="14" lengthAdjust="spacing" textLength="195.3164" x="27" y="467.6426">type : arm_matrix_instance_f32</text><ellipse cx="18" cy="481.0234" fill="none" rx="3" ry="3" style="stroke:#038048;stroke-width:1;"/><text fill="#000000" font-family="sans-serif" font-size="14" lengthAdjust="spacing" textLength="147.8613" x="27" y="485.252">storage : float32_t array</text><line style="stroke:#181818;stroke-width:1;" x1="8" x2="227.3164" y1="492.3281" y2="492.3281"/><text fill="#000000" font-family="sans-serif" font-size="14" lengthAdjust="spacing" textLength="163.8027" x="13" y="510.8613">maps_to = Mat&lt;float,R,C&gt;</text><text fill="#000000" font-family="sans-serif" font-size="14" lengthAdjust="spacing" textLength="194.9473" x="13" y="528.4707">maps_to = SquareMat&lt;float,N&gt;</text></g><g class="entity" data-entity="GMN23" data-source-line="125" data-uid="ent0024" id="entity_GMN23"><path d="M263,430.1094 L263,472.1094 L228.29,476.1094 L263,480.1094 L263,521.8672 A0,0 0 0 0 263,521.8672 L424.1626,521.8672 A0,0 0 0 0 424.1626,521.8672 L424.1626,440.1094 L414.1626,430.1094 L263,430.1094 A0,0 0 0 0 263,430.1094" fill="#FEFFDD" style="stroke:#181818;stroke-width:0.5;"/><path d="M414.1626,430.1094 L414.1626,440.1094 L424.1626,440.1094 L414.1626,430.1094" fill="#FEFFDD" style="stroke:#181818;stroke-width:0.5;"/><text fill="#000000" font-family="sans-serif" font-size="13" lengthAdjust="spacing" textLength="140.1626" x="269" y="448.6045">CMSIS-DSP operations:</text><text fill="#000000" font-family="sans-serif" font-size="13" lengthAdjust="spacing" textLength="117.0381" x="269" y="464.9561">arm_mat_mult_f32()</text><text fill="#000000" font-family="sans-serif" font-size="13" lengthAdjust="spacing" textLength="134.3862" x="269" y="481.3076">arm_mat_inverse_f32()</text><text fill="#000000" font-family="sans-serif" font-size="13" lengthAdjust="spacing" textLength="85.2681" x="269" y="497.6592">arm_add_f32()</text><text fill="#000000" font-family="sans-serif" font-size="13" lengthAdjust="spacing" textLength="114.8989" x="269" y="514.0107">arm_dot_prod_f32()</text></g><!--class PodProperties--><g class="entity" data-entity="PodProperties" data-source-line="136" data-uid="ent0026" id="entity_PodProperties"><rect fill="#F1F1F1" height="232.0938" rx="2.5" ry="2.5" style="stroke:#181818;stroke-width:0.5;" width="168.3994" x="432.5" y="45.6094"/><ellipse cx="468.9572" cy="61.6094" fill="#ADD1B2" rx="11" ry="11" style="stroke:#181818;stroke-width:1;"/><path d="M471.7228,57.4844 Q471.8791,57.2656 472.0666,57.1563 Q472.2541,57.0469 472.4728,57.0469 Q472.8478,57.0469 473.0822,57.3125 Q473.3166,57.5625 473.3166,58.1719 L473.3166,59.625 Q473.3166,60.2344 473.0822,60.5 Q472.8478,60.7656 472.4728,60.7656 Q472.1291,60.7656 471.9259,60.5625 Q471.7228,60.375 471.6134,59.8594 Q471.5666,59.5 471.3791,59.3125 Q471.0509,58.9375 470.4416,58.7188 Q469.8322,58.5 469.2072,58.5 Q468.4416,58.5 467.8009,58.8281 Q467.1759,59.1563 466.6759,59.9063 Q466.1916,60.6563 466.1916,61.6875 L466.1916,62.7813 Q466.1916,64.0156 467.0822,64.8438 Q467.9728,65.6563 469.5666,65.6563 Q470.5041,65.6563 471.1603,65.4063 Q471.5509,65.25 471.9728,64.8125 Q472.2384,64.5469 472.3791,64.4688 Q472.5353,64.3906 472.7384,64.3906 Q473.0666,64.3906 473.3166,64.6563 Q473.5822,64.9063 473.5822,65.25 Q473.5822,65.5938 473.2384,66 Q472.7384,66.5781 471.9416,66.9063 Q470.8634,67.3594 469.5666,67.3594 Q468.0509,67.3594 466.8478,66.7344 Q465.8634,66.2344 465.1759,65.1719 Q464.4884,64.0938 464.4884,62.8125 L464.4884,61.6563 Q464.4884,60.3281 465.0978,59.1875 Q465.7228,58.0313 466.8166,57.4219 Q467.9103,56.7969 469.1447,56.7969 Q469.8791,56.7969 470.5197,56.9688 Q471.1759,57.125 471.7228,57.4844 Z " fill="#000000"/><text fill="#000000" font-family="sans-serif" font-size="14" lengthAdjust="spacing" textLength="88.7168" x="487.7254" y="67.3379">PodProperties</text><line style="stroke:#181818;stroke-width:0.5;" x1="433.5" x2="599.8994" y1="77.6094" y2="77.6094"/><ellipse cx="443.5" cy="91.9141" fill="none" rx="3" ry="3" style="stroke:#038048;stroke-width:1;"/><text fill="#000000" font-family="sans-serif" font-size="14" lengthAdjust="spacing" textLength="142.3994" x="452.5" y="96.1426">trivially_copyable : true</text><line style="stroke:#181818;stroke-width:1;" x1="433.5" x2="599.8994" y1="103.2188" y2="103.2188"/><text fill="#000000" font-family="sans-serif" font-size="14" lengthAdjust="spacing" textLength="35.7998" x="438.5" y="121.752">Vec3f</text><text fill="#000000" font-family="sans-serif" font-size="14" lengthAdjust="spacing" textLength="35.0137" x="438.5" y="139.3613">Mat3f</text><text fill="#000000" font-family="sans-serif" font-size="14" lengthAdjust="spacing" textLength="35.0137" x="438.5" y="156.9707">Mat4f</text><text fill="#000000" font-family="sans-serif" font-size="14" lengthAdjust="spacing" textLength="34.2412" x="438.5" y="174.5801">Quatf</text><line style="stroke:#181818;stroke-width:1;" x1="433.5" x2="599.8994" y1="181.6563" y2="181.6563"/><text fill="#000000" font-family="sans-serif" font-size="14" lengthAdjust="spacing" textLength="103.4893" x="438.5" y="200.1895">Compatible with:</text><text fill="#000000" font-family="sans-serif" font-size="14" lengthAdjust="spacing" textLength="62.2207" x="438.5" y="217.7988">memcpy()</text><text fill="#000000" font-family="sans-serif" font-size="14" lengthAdjust="spacing" textLength="89.4619" x="438.5" y="235.4082">DMA transfers</text><text fill="#000000" font-family="sans-serif" font-size="14" lengthAdjust="spacing" textLength="74.6963" x="438.5" y="253.0176">C interfaces</text><text fill="#000000" font-family="sans-serif" font-size="14" lengthAdjust="spacing" textLength="115.9443" x="438.5" y="270.627">binary serialization</text></g><!--class AlignmentProperties--><g class="entity" data-entity="AlignmentProperties" data-source-line="151" data-uid="ent0027" id="entity_AlignmentProperties"><rect fill="#F1F1F1" height="153.6563" rx="2.5" ry="2.5" style="stroke:#181818;stroke-width:0.5;" width="158.0615" x="635.5" y="84.6094"/><ellipse cx="650.5" cy="100.6094" fill="#ADD1B2" rx="11" ry="11" style="stroke:#181818;stroke-width:1;"/><path d="M653.2656,96.4844 Q653.4219,96.2656 653.6094,96.1563 Q653.7969,96.0469 654.0156,96.0469 Q654.3906,96.0469 654.625,96.3125 Q654.8594,96.5625 654.8594,97.1719 L654.8594,98.625 Q654.8594,99.2344 654.625,99.5 Q654.3906,99.7656 654.0156,99.7656 Q653.6719,99.7656 653.4688,99.5625 Q653.2656,99.375 653.1563,98.8594 Q653.1094,98.5 652.9219,98.3125 Q652.5938,97.9375 651.9844,97.7188 Q651.375,97.5 650.75,97.5 Q649.9844,97.5 649.3438,97.8281 Q648.7188,98.1563 648.2188,98.9063 Q647.7344,99.6563 647.7344,100.6875 L647.7344,101.7813 Q647.7344,103.0156 648.625,103.8438 Q649.5156,104.6563 651.1094,104.6563 Q652.0469,104.6563 652.7031,104.4063 Q653.0938,104.25 653.5156,103.8125 Q653.7813,103.5469 653.9219,103.4688 Q654.0781,103.3906 654.2813,103.3906 Q654.6094,103.3906 654.8594,103.6563 Q655.125,103.9063 655.125,104.25 Q655.125,104.5938 654.7813,105 Q654.2813,105.5781 653.4844,105.9063 Q652.4063,106.3594 651.1094,106.3594 Q649.5938,106.3594 648.3906,105.7344 Q647.4063,105.2344 646.7188,104.1719 Q646.0313,103.0938 646.0313,101.8125 L646.0313,100.6563 Q646.0313,99.3281 646.6406,98.1875 Q647.2656,97.0313 648.3594,96.4219 Q649.4531,95.7969 650.6875,95.7969 Q651.4219,95.7969 652.0625,95.9688 Q652.7188,96.125 653.2656,96.4844 Z " fill="#000000"/><text fill="#000000" font-family="sans-serif" font-size="14" lengthAdjust="spacing" textLength="126.0615" x="664.5" y="106.3379">AlignmentProperties</text><line style="stroke:#181818;stroke-width:0.5;" x1="636.5" x2="792.5615" y1="116.6094" y2="116.6094"/><ellipse cx="646.5" cy="130.9141" fill="#84BE84" rx="3" ry="3" style="stroke:#038048;stroke-width:1;"/><text fill="#000000" font-family="sans-serif" font-size="14" lengthAdjust="spacing" textLength="69.2617" x="655.5" y="135.1426">alignas(16)</text><line style="stroke:#181818;stroke-width:1;" x1="636.5" x2="792.5615" y1="142.2188" y2="142.2188"/><text fill="#000000" font-family="sans-serif" font-size="14" lengthAdjust="spacing" textLength="54.4756" x="641.5" y="160.752">Benefits:</text><text fill="#000000" font-family="sans-serif" font-size="14" lengthAdjust="spacing" textLength="97.248" x="641.5" y="178.3613">SIMD efficiency</text><text fill="#000000" font-family="sans-serif" font-size="14" lengthAdjust="spacing" textLength="101.9512" x="641.5" y="195.9707">cache alignment</text><text fill="#000000" font-family="sans-serif" font-size="14" lengthAdjust="spacing" textLength="137.7441" x="641.5" y="213.5801">hardware acceleration</text><text fill="#000000" font-family="sans-serif" font-size="14" lengthAdjust="spacing" textLength="110.5029" x="641.5" y="231.1895">atomic operations</text></g><!--link Vec3f to Mat3f--><!--link Mat3f to Quatf--><!--link Quatf to Mat4f--><!--link NeonF32x4 to CmsisMatF32--><!--link PodProperties to AlignmentProperties--><!--SRC=[nLTjRzis4FwkNt70FinPezPwgHCOQu4kIO42TUernRu4Xa5BbCrL8bMIZgCC- -yzah8bst82p0Rc831yV7XtlEUv4wMPpYcCY9RiyJERmOWMGbRmcLHYgO7m53xaRCuBohNdgU-CbqII0cOa-JwNOidJAv4B2Rzyl35_dlSh-F_rWtl_eacK7UKZoObIpW_yum5-Na5ADBdlJs08MIw8HjkRDo2oJ54DVJzgeu9kLEnVj55XD-hI3u8QLf8qPNpU2Gj2FtXhSPYl-LBiYS8x20OmgpHLraRMLRSBDQn8fuaeIgBPB3Sxj5nIxr_Fuq9Jc0cjHO51wYgQBQuEJ6ryMqQjRvg25cX_RO7ZEb_ArL8YxExJwDhF9ACypIl8hHfUU_WBJ2plM9vHRoVXsVfvdcSfLj27HEJGVuxe1XOyntG32zkmg0CMx0UD3yAsWhuz2DiAEkY0XVj1Bmx2je9U7eI5svhUEwoJjO9euCSN7RgEBr_GjHQIp0qIO_e5-Ll83b4xoHZyrpLglTD9-9lG9BSnXvkGq8i6zdYOVX2Q4vmvCCsfIU9UJkwJ2KQs9P3m6qI8J2OdbFgVIw9F8NNhPoFrnnU6MVN267jwQO2j_f_HvQfbjhWdq13k7y-XEeUdSrXD77TcDa7BMU_sviijfdRfpvYk-NsWIUyC9DLBoUl7GQzsT7RQEHQVQ8x53RdO1lszMR7kilwQ0OiB3kA2WHy53J0y28p2TTjQO7GG65_wWwY3_45y8l9TDRTRF7wCeR2t4qVi3KaMTZQr7sgzsEMhQlR7L6OqqP0n_4SdLZ6Yf18p45oTK03MyuYK9Gx64-ZWbWh-CGhnp1ijq3bJcier9MPngjTDobAzC8KESTunhTha5AHKKtp2lpFghylQs9e-QsnOVblPffeRZYIRBxIXQ9EWtMiRhwdhqBLUdWO_fbaKOWE23-WfTNQbstOpkwbRmETAQm5_ENEnp5jc_ALPcLTjxbpHhWh552QFUMtAfgkIOic8BAPEFLF6bIOyeSPZ3Le_U3QbdUADLqfITTSHG_nkWUTVpw_UxopU_LWIIHl8xVlzuhKIjRklHdUVxlphk_5U3Ukyf-RGhWHRPiOVg5HqPmKBjsD9XPwMKgpD9rFzDrFTiJHPQuQDVxpmno9j_3KiIlR0I9vNE3xAYfZXCNJ3eqLGSzjjhWZD96c4NiElca6qOdhXwbtG8YchkdBNemyOX72LOP7T7c0SUp0ZIJtbPemJV4jIL69wxCbIP_XsXzcyCNKSoSv7edh1uAoTrH-KKvnMDVrsgj0iOmbUm1CdnmG77st6gxKjY4nNA3iWIO8t6YSXnpwEL9QqT6MoEvBr-frGqjovNB0IH- -2fIdbPqVvTgyf_htpDKd5Ylirc-w6lxFaI7KtelrToBpN3DATzNOFUjkgso1jm_fTD7e_0G00]--></g></svg>